<?xml version="1.0" encoding="UTF-8"?>
<!DOCTYPE svg PUBLIC "-//W3C//DTD SVG 1.1//EN" "http://www.w3.org/Graphics/SVG/1.1/DTD/svg11.dtd">
<!-- Creator: CorelDRAW X7 -->
<svg xmlns="http://www.w3.org/2000/svg" xml:space="preserve" width="12.234mm" height="12.2105mm" version="1.1" style="shape-rendering:geometricPrecision; text-rendering:geometricPrecision; image-rendering:optimizeQuality; fill-rule:evenodd; clip-rule:evenodd"
viewBox="0 0 2678 2673"
 xmlns:xlink="http://www.w3.org/1999/xlink">
 <defs>
  <style type="text/css">
   <![CDATA[
    .fil1 {fill:#1C4D8A;fill-rule:nonzero}
    .fil0 {fill:#3B8AB8;fill-rule:nonzero}
    .fil2 {fill:white;fill-rule:nonzero}
   ]]>
  </style>
 </defs>
 <g id="Слой_x0020_1">
  <metadata id="CorelCorpID_0Corel-Layer"/>
  <path class="fil0" d="M1339 0c739,0 1339,598 1339,1336 0,738 -600,1337 -1339,1337 -740,0 -1339,-599 -1339,-1337 0,-738 599,-1336 1339,-1336z"/>
  <path class="fil1" d="M2606 1770l-1144 -1115 263 618 -781 63 -406 126 1179 1156c417,-122 749,-440 889,-848z"/>
  <polygon class="fil2" points="2139,1336 1462,655 1284,833 1665,1211 538,1211 538,1462 1665,1462 1284,1840 1462,2017 "/>
 </g>
</svg>
