<?xml version="1.0" encoding="UTF-8"?>
<!DOCTYPE svg PUBLIC "-//W3C//DTD SVG 1.1//EN" "http://www.w3.org/Graphics/SVG/1.1/DTD/svg11.dtd">
<!-- Creator: CorelDRAW X7 -->
<svg xmlns="http://www.w3.org/2000/svg" xml:space="preserve" width="12.234mm" height="12.2105mm" version="1.1" style="shape-rendering:geometricPrecision; text-rendering:geometricPrecision; image-rendering:optimizeQuality; fill-rule:evenodd; clip-rule:evenodd"
viewBox="0 0 1056 1054"
 xmlns:xlink="http://www.w3.org/1999/xlink">
 <defs>
  <style type="text/css">
   <![CDATA[
    .fil0 {fill:#B0D6F3;fill-rule:nonzero}
    .fil1 {fill:#629CD3;fill-rule:nonzero}
    .fil2 {fill:white;fill-rule:nonzero}
   ]]>
  </style>
 </defs>
 <g id="Слой_x0020_1">
  <metadata id="CorelCorpID_0Corel-Layer"/>
  <path class="fil0" d="M528 0c291,0 528,236 528,527 0,291 -237,527 -528,527 -292,0 -528,-236 -528,-527 0,-291 236,-527 528,-527z"/>
  <path class="fil1" d="M1027 698l-451 -440 104 244 -308 25 -160 49 465 456c164,-48 295,-174 350,-334z"/>
  <polygon class="fil2" points="843,527 576,258 506,328 656,477 212,477 212,576 657,576 506,725 576,795 "/>
 </g>
</svg>
