<?xml version="1.0" encoding="UTF-8"?>
<!DOCTYPE svg PUBLIC "-//W3C//DTD SVG 1.1//EN" "http://www.w3.org/Graphics/SVG/1.1/DTD/svg11.dtd">
<!-- Creator: CorelDRAW X7 -->
<svg xmlns="http://www.w3.org/2000/svg" xml:space="preserve" width="12.234mm" height="12.2105mm" version="1.1" style="shape-rendering:geometricPrecision; text-rendering:geometricPrecision; image-rendering:optimizeQuality; fill-rule:evenodd; clip-rule:evenodd"
viewBox="0 0 1768 1764"
 xmlns:xlink="http://www.w3.org/1999/xlink">
 <defs>
  <style type="text/css">
   <![CDATA[
    .fil0 {fill:#152C3D;fill-rule:nonzero}
    .fil1 {fill:#264F80;fill-rule:nonzero}
    .fil2 {fill:white;fill-rule:nonzero}
   ]]>
  </style>
 </defs>
 <g id="Слой_x0020_1">
  <metadata id="CorelCorpID_0Corel-Layer"/>
  <path class="fil0" d="M884 0c488,0 884,395 884,882 0,487 -396,882 -884,882 -488,0 -884,-395 -884,-882 0,-487 396,-882 884,-882z"/>
  <path class="fil1" d="M1720 1168l-755 -736 174 408 -516 42 -268 83 779 764c275,-81 494,-291 586,-561z"/>
  <polygon class="fil2" points="1412,882 965,432 847,550 1099,799 355,799 355,965 1099,965 847,1215 965,1332 "/>
 </g>
</svg>
