<?xml version="1.0" encoding="UTF-8"?>
<!DOCTYPE svg PUBLIC "-//W3C//DTD SVG 1.1//EN" "http://www.w3.org/Graphics/SVG/1.1/DTD/svg11.dtd">
<!-- Creator: CorelDRAW X7 -->
<svg xmlns="http://www.w3.org/2000/svg" xml:space="preserve" width="19.0606mm" height="19.1622mm" version="1.1" style="shape-rendering:geometricPrecision; text-rendering:geometricPrecision; image-rendering:optimizeQuality; fill-rule:evenodd; clip-rule:evenodd"
viewBox="0 0 222 224"
 xmlns:xlink="http://www.w3.org/1999/xlink">
 <defs>
  <style type="text/css">
   <![CDATA[
    .fil1 {fill:#0099FF}
    .fil0 {fill:#21B9FF}
    .fil2 {fill:#FF4000;fill-rule:nonzero}
   ]]>
  </style>
 </defs>
 <g id="Слой_x0020_1">
  <metadata id="CorelCorpID_0Corel-Layer"/>
  <path class="fil0" d="M104 0l118 0 0 224 -118 0c-57,0 -104,-50 -104,-112 0,-62 47,-112 104,-112z"/>
  <path class="fil1" d="M133 86l16 -7 73 72 0 73 -52 -1 -59 -66c3,3 14,-69 22,-71z"/>
  <path class="fil2" d="M112 88c6,-10 11,-16 22,-16 12,0 22,10 22,22 0,21 -22,43 -44,64 -21,-21 -43,-43 -43,-64 0,-12 10,-22 22,-22 11,0 16,6 21,16z"/>
 </g>
</svg>
