<?xml version="1.0" encoding="UTF-8"?>
<!DOCTYPE svg PUBLIC "-//W3C//DTD SVG 1.1//EN" "http://www.w3.org/Graphics/SVG/1.1/DTD/svg11.dtd">
<!-- Creator: CorelDRAW X7 -->
<svg xmlns="http://www.w3.org/2000/svg" xml:space="preserve" width="19.5626mm" height="18.025mm" version="1.1" style="shape-rendering:geometricPrecision; text-rendering:geometricPrecision; image-rendering:optimizeQuality; fill-rule:evenodd; clip-rule:evenodd"
viewBox="0 0 569 524"
 xmlns:xlink="http://www.w3.org/1999/xlink">
 <defs>
  <style type="text/css">
   <![CDATA[
    .fil1 {fill:#4AA7DE}
    .fil0 {fill:white}
    .fil2 {fill:white;fill-rule:nonzero}
   ]]>
  </style>
 </defs>
 <g id="Слой_x0020_1">
  <metadata id="CorelCorpID_0Corel-Layer"/>
  <path class="fil0" d="M4 430l17 -124 40 149 -42 -5c-10,-2 -16,-10 -15,-20zm21 -158l17 -121 215 -58 11 2 0 20 16 -5 0 -13 27 3 0 2 5 -1 184 25 42 160 -17 126 -263 71 -186 -26 -51 -185zm489 -144l32 4c9,2 16,10 15,20l-14 100 -33 -124zm9 298l-10 74c-1,9 -10,16 -19,14l-198 -27 227 -61zm-479 -289l7 -55c2,-9 10,-16 20,-14l153 20 -180 49z"/>
  <rect class="fil1" transform="matrix(0.07428 0.273821 -0.273821 0.07428 465.692 60.376)" width="1246" height="1662" rx="21" ry="21"/>
  <path class="fil2" d="M479 51l90 332 0 0c0,4 -1,8 -2,12 -3,4 -6,7 -11,8l-444 121c-5,1 -10,0 -14,-2 -3,-2 -7,-6 -8,-11l0 0 -89 -330 0 0c-2,-5 -1,-10 1,-13 3,-4 6,-8 11,-9l255 -69 0 25 -243 66 87 318 432 -117 -87 -319 -130 36 0 -25 130 -35c5,-1 9,-1 13,2 4,2 7,6 9,10zm-168 52l-27 7 0 -24 27 -8 0 25z"/>
  <path class="fil2" d="M330 271l0 -137c0,-17 10,-27 23,-32 4,-2 9,-2 14,-2 5,0 10,0 14,2 13,5 23,15 23,31l1 150c0,25 -16,42 -37,49 -7,3 -15,4 -23,4 -8,0 -17,-1 -24,-4 -21,-7 -37,-24 -37,-50l0 -215c0,-23 10,-40 24,-51 10,-8 21,-12 33,-15 11,-2 23,-1 34,1 17,5 31,14 37,29 2,2 4,6 2,7l-26 6c-3,-6 -10,-13 -19,-16 -7,-1 -15,-2 -23,0 -8,1 -15,4 -21,9 -9,6 -14,16 -14,30l0 215c0,13 8,21 19,25 5,1 10,2 15,2 5,0 10,-1 15,-2 10,-4 18,-12 18,-24l-1 -150c0,-3 -2,-5 -5,-6 -1,0 -3,-1 -5,-1 -2,0 -4,1 -5,1 -3,1 -5,3 -5,7l0 133c0,1 0,2 0,2 0,8 -6,14 -13,14 -8,0 -13,-5 -14,-12l0 0z"/>
 </g>
</svg>
