<?xml version="1.0" encoding="UTF-8"?>
<!DOCTYPE svg PUBLIC "-//W3C//DTD SVG 1.1//EN" "http://www.w3.org/Graphics/SVG/1.1/DTD/svg11.dtd">
<!-- Creator: CorelDRAW X7 -->
<svg xmlns="http://www.w3.org/2000/svg" xml:space="preserve" width="19.5626mm" height="18.025mm" version="1.1" style="shape-rendering:geometricPrecision; text-rendering:geometricPrecision; image-rendering:optimizeQuality; fill-rule:evenodd; clip-rule:evenodd"
viewBox="0 0 924 851"
 xmlns:xlink="http://www.w3.org/1999/xlink">
 <defs>
  <style type="text/css">
   <![CDATA[
    .fil1 {fill:#2C5682}
    .fil0 {fill:white}
    .fil2 {fill:white;fill-rule:nonzero}
   ]]>
  </style>
 </defs>
 <g id="Слой_x0020_1">
  <metadata id="CorelCorpID_0Corel-Layer"/>
  <path class="fil0" d="M6 699l28 -202 66 242 -70 -9c-15,-2 -26,-16 -24,-31zm35 -257l27 -196 349 -95 18 3 0 32 26 -8 0 -21 44 6 0 3 8 -2 298 41 70 259 -28 204 -427 116 -303 -41 -82 -301zm794 -234l51 7c16,2 26,16 24,32l-22 162 -53 -201zm15 483l-17 120c-2,16 -16,26 -31,24l-321 -44 369 -100zm-779 -468l12 -89c2,-15 17,-26 32,-24l248 34 -292 79z"/>
  <rect class="fil1" transform="matrix(0.07428 0.273821 -0.273821 0.07428 756.221 98.0426)" width="2024" height="2699" rx="33" ry="33"/>
  <path class="fil2" d="M777 83l146 539 0 1c1,6 0,13 -3,18 -4,7 -10,12 -17,14l-721 195c-8,2 -16,1 -22,-3 -6,-3 -11,-9 -14,-17l0 0 -145 -536 0 0c-2,-8 -1,-16 3,-22 4,-6 10,-11 17,-13l414 -113 0 40 -394 107 140 517 702 -190 -140 -517 -212 58 0 -41 211 -57c8,-2 15,-1 22,3 6,4 11,10 13,17zm-272 85l-44 11 0 -40 44 -12 0 41z"/>
  <path class="fil2" d="M536 440l0 -223c0,-27 16,-44 37,-51 7,-3 15,-4 23,-4 8,0 16,1 23,4 20,7 37,24 37,50l1 243c1,41 -25,68 -59,80 -12,4 -25,6 -38,6 -13,0 -27,-2 -39,-6 -33,-11 -59,-38 -59,-81l-1 -349c0,-37 16,-65 39,-83 16,-12 34,-20 53,-24 19,-3 39,-3 57,2 26,7 49,22 60,47 2,3 6,9 3,10l-42 11c-5,-11 -18,-22 -32,-26 -12,-3 -25,-3 -38,-1 -12,3 -24,8 -34,15 -13,11 -22,27 -22,49l0 349c0,21 14,34 31,40 7,3 16,4 24,4 8,0 16,-2 24,-4 17,-6 30,-19 30,-38l-2 -243c0,-5 -3,-9 -8,-10 -2,-1 -5,-2 -8,-2 -3,0 -6,1 -8,2 -5,1 -8,5 -8,10l-1 217c0,1 1,2 1,4 0,12 -10,22 -22,22 -12,0 -21,-9 -22,-20l0 0z"/>
 </g>
</svg>
