<?xml version="1.0" encoding="UTF-8"?>
<!DOCTYPE svg PUBLIC "-//W3C//DTD SVG 1.1//EN" "http://www.w3.org/Graphics/SVG/1.1/DTD/svg11.dtd">
<!-- Creator: CorelDRAW X7 -->
<svg xmlns="http://www.w3.org/2000/svg" xml:space="preserve" width="26.4942mm" height="26.3598mm" version="1.1" style="shape-rendering:geometricPrecision; text-rendering:geometricPrecision; image-rendering:optimizeQuality; fill-rule:evenodd; clip-rule:evenodd"
viewBox="0 0 1438 1431"
 xmlns:xlink="http://www.w3.org/1999/xlink">
 <defs>
  <style type="text/css">
   <![CDATA[
    .fil2 {fill:#FEFEFE}
    .fil4 {fill:#F4FAFE}
    .fil0 {fill:#195083}
    .fil1 {fill:#1E3966}
    .fil3 {fill:white}
    .fil5 {fill:white;fill-rule:nonzero}
   ]]>
  </style>
 </defs>
 <g id="Слой_x0020_1">
  <metadata id="CorelCorpID_0Corel-Layer"/>
  <path class="fil0" d="M715 0c-395,-1 -715,320 -715,715 0,394 320,713 715,714l723 2 -9 -716 9 -713 -723 -2z"/>
  <polygon class="fil1" points="558,566 971,567 1048,632 1141,615 1438,912 1438,1420 916,1420 477,994 "/>
  <rect class="fil2" x="1048" y="606" width="98.6793" height="378.154" rx="26" ry="91"/>
  <path class="fil3" d="M1014 978c-10,7 -23,14 -44,19 -100,26 -168,16 -275,17 -41,0 -157,5 -190,-2 -23,-4 -38,-26 -38,-50 -2,-43 28,-51 46,-61 -19,-8 -68,0 -74,-65 3,-43 24,-46 48,-61 -48,-15 -64,-19 -64,-65 0,-43 31,-50 63,-57 -13,-9 -39,-9 -46,-46 -4,-27 2,-48 23,-60 22,-13 135,-8 167,-8 29,0 77,7 79,-7 -24,-82 -63,-83 -73,-156 -5,-40 14,-118 57,-128 19,1 20,21 23,34 28,139 139,157 229,254 51,55 43,60 69,103l0 339z"/>
  <path class="fil4" d="M1085 339c-3,-2 -7,-6 -10,-8 -4,-4 -5,-6 -9,-9l-29 -26c-4,-2 -8,-5 -13,-3 -3,1 -17,11 -17,21 0,10 29,40 37,51l31 36c17,22 22,4 46,-29l73 -103c15,-21 18,-23 3,-34 -13,-11 -15,-10 -24,1l-88 103z"/>
  <path class="fil5" d="M1107 140c49,0 94,20 127,52 32,33 52,77 52,127 0,49 -20,94 -52,127 -33,32 -78,52 -127,52 -50,0 -94,-20 -127,-52 -32,-33 -53,-78 -53,-127 0,-50 21,-94 53,-127 33,-32 77,-52 127,-52zm110 69c-28,-28 -67,-46 -110,-46 -43,0 -82,18 -110,46 -28,28 -46,67 -46,110 0,43 18,82 46,110 28,28 67,46 110,46 43,0 82,-18 110,-46 28,-28 46,-67 46,-110 0,-43 -18,-82 -46,-110z"/>
 </g>
</svg>
