<?xml version="1.0" encoding="UTF-8"?>
<!DOCTYPE svg PUBLIC "-//W3C//DTD SVG 1.1//EN" "http://www.w3.org/Graphics/SVG/1.1/DTD/svg11.dtd">
<!-- Creator: CorelDRAW X7 -->
<svg xmlns="http://www.w3.org/2000/svg" xml:space="preserve" width="17.249mm" height="13.5468mm" version="1.1" style="shape-rendering:geometricPrecision; text-rendering:geometricPrecision; image-rendering:optimizeQuality; fill-rule:evenodd; clip-rule:evenodd"
viewBox="0 0 208 163"
 xmlns:xlink="http://www.w3.org/1999/xlink">
 <defs>
  <style type="text/css">
   <![CDATA[
    .fil6 {fill:none}
    .fil1 {fill:#1E78B0}
    .fil4 {fill:#448EB5}
    .fil0 {fill:#45A7DE}
    .fil5 {fill:#7EC5E8}
    .fil2 {fill:#FEFEFE;fill-rule:nonzero}
    .fil3 {fill:#C2EBFF;fill-rule:nonzero}
   ]]>
  </style>
   <clipPath id="id0">
    <path d="M208 0l-208 0 0 163 208 0 0 -163z"/>
   </clipPath>
 </defs>
 <g id="Слой_x0020_1">
  <metadata id="CorelCorpID_0Corel-Layer"/>
  <polygon class="fil0" points="208,0 0,0 0,163 208,163 "/>
  <g style="clip-path:url(#id0)">
   <g id="_896839720">
    <path id="1" class="fil1" d="M69 17l5 0 -4 125 16 0 26 0 -29 46c-30,-4 -68,-3 -84,-26 -4,-6 0,-26 -1,-34l71 -111z"/>
    <path class="fil2" d="M134 15l-28 0 -29 0c-5,0 -9,4 -9,9l0 110c0,5 4,9 9,9l29 0 28 0c4,0 8,-4 8,-9l0 -110c0,-5 -4,-9 -8,-9zm-28 14l30 0 0 98 -30 0 -32 0 0 -98 32 0zm0 101c2,0 4,2 4,5 0,2 -2,4 -4,5 0,0 -1,0 -1,0 -3,0 -5,-3 -5,-5 0,-3 2,-5 5,-5 0,0 1,0 1,0z"/>
    <polygon class="fil3" points="74,29 74,126 136,29 "/>
    <rect class="fil4" x="96" y="21" width="17.3777" height="2.8124" rx="9" ry="1"/>
    <polygon class="fil5" points="136,127 136,29 74,126 "/>
   </g>
  </g>
  <polygon class="fil6" points="208,0 0,0 0,163 208,163 "/>
 </g>
</svg>
