<?xml version="1.0" encoding="UTF-8"?>
<!DOCTYPE svg PUBLIC "-//W3C//DTD SVG 1.1//EN" "http://www.w3.org/Graphics/SVG/1.1/DTD/svg11.dtd">
<!-- Creator: CorelDRAW X7 -->
<svg xmlns="http://www.w3.org/2000/svg" xml:space="preserve" width="20.7203mm" height="16.2729mm" version="1.1" style="shape-rendering:geometricPrecision; text-rendering:geometricPrecision; image-rendering:optimizeQuality; fill-rule:evenodd; clip-rule:evenodd"
viewBox="0 0 295 232"
 xmlns:xlink="http://www.w3.org/1999/xlink">
 <defs>
  <style type="text/css">
   <![CDATA[
    .fil6 {fill:none}
    .fil1 {fill:#8691A1}
    .fil5 {fill:#A3ACBA}
    .fil0 {fill:#B9C0C9}
    .fil4 {fill:#D3D8DE}
    .fil2 {fill:#FEFEFE;fill-rule:nonzero}
    .fil3 {fill:#D3D8DE;fill-rule:nonzero}
   ]]>
  </style>
   <clipPath id="id0">
    <path d="M295 0l-295 0 0 232 295 0 0 -232z"/>
   </clipPath>
 </defs>
 <g id="Слой_x0020_1">
  <metadata id="CorelCorpID_0Corel-Layer"/>
  <polygon class="fil0" points="295,0 0,0 0,232 295,232 "/>
  <g style="clip-path:url(#id0)">
   <g id="_641350560">
    <g>
     <path id="1" class="fil1" d="M97 24l8 0 -5 178 23 0 36 0 -41 65c-42,-6 -96,-4 -119,-36 -6,-10 0,-38 -2,-49l100 -158z"/>
     <path class="fil2" d="M190 21l-39 0 -42 0c-7,0 -12,6 -12,13l0 156c0,7 5,13 12,13l42 0 39 0c6,0 12,-6 12,-13l0 -156c0,-7 -6,-13 -12,-13zm-39 20l42 0 0 139 -42 0 -46 0 0 -139 46 0zm0 143c3,1 6,4 6,7 0,4 -3,7 -6,7 -1,0 -1,0 -2,0 -4,0 -7,-3 -7,-7 0,-4 3,-7 7,-7 1,0 1,0 2,0z"/>
     <polygon class="fil3" points="105,41 105,179 193,41 "/>
     <rect class="fil4" x="137" y="30" width="24.6842" height="3.99487" rx="12" ry="2"/>
     <polygon class="fil5" points="193,180 193,41 105,179 "/>
    </g>
   </g>
  </g>
  <polygon class="fil6" points="295,0 0,0 0,232 295,232 "/>
 </g>
</svg>
