<?xml version="1.0" encoding="UTF-8"?>
<!DOCTYPE svg PUBLIC "-//W3C//DTD SVG 1.1//EN" "http://www.w3.org/Graphics/SVG/1.1/DTD/svg11.dtd">
<!-- Creator: CorelDRAW X7 -->
<svg xmlns="http://www.w3.org/2000/svg" xml:space="preserve" width="17.7118mm" height="17.6278mm" version="1.1" style="shape-rendering:geometricPrecision; text-rendering:geometricPrecision; image-rendering:optimizeQuality; fill-rule:evenodd; clip-rule:evenodd"
viewBox="0 0 2706 2693"
 xmlns:xlink="http://www.w3.org/1999/xlink">
 <defs>
  <style type="text/css">
   <![CDATA[
    .fil1 {fill:#2D5B8C}
    .fil0 {fill:#386499}
    .fil2 {fill:white}
   ]]>
  </style>
 </defs>
 <g id="Слой_x0020_1">
  <metadata id="CorelCorpID_0Corel-Layer"/>
  <path class="fil0" d="M1345 0c-743,-2 -1345,602 -1345,1345 0,743 602,1343 1345,1345l1361 3 -16 -1348 16 -1342 -1361 -3z"/>
  <path class="fil1" d="M1002 1695c125,-45 261,-252 380,-253l107 0c181,-1 419,-69 644,-177l573 432 0 996 -1017 -2 -687 -996z"/>
  <path class="fil2" d="M1022 861l1111 386c20,18 20,46 0,65l-1116 401c-22,19 -52,23 -72,4l-10 -8c-17,-16 -20,-36 -2,-50l252 -304 444 -82 -443 -86 -247 -270c-19,-16 -15,-35 2,-53l9 -7c21,-18 51,-14 72,4l0 0z"/>
 </g>
</svg>
