<?xml version="1.0" encoding="UTF-8"?>
<!DOCTYPE svg PUBLIC "-//W3C//DTD SVG 1.1//EN" "http://www.w3.org/Graphics/SVG/1.1/DTD/svg11.dtd">
<!-- Creator: CorelDRAW X7 -->
<svg xmlns="http://www.w3.org/2000/svg" xml:space="preserve" width="20.2649mm" height="15.2517mm" version="1.1" style="shape-rendering:geometricPrecision; text-rendering:geometricPrecision; image-rendering:optimizeQuality; fill-rule:evenodd; clip-rule:evenodd"
viewBox="0 0 285 214"
 xmlns:xlink="http://www.w3.org/1999/xlink">
 <defs>
  <style type="text/css">
   <![CDATA[
    .fil4 {fill:none}
    .fil1 {fill:#8691A1}
    .fil0 {fill:#B9C0C9}
    .fil2 {fill:white}
    .fil3 {fill:white;fill-rule:nonzero}
   ]]>
  </style>
   <clipPath id="id0">
    <path d="M285 0l-285 0 0 214 285 0 0 -214z"/>
   </clipPath>
 </defs>
 <g id="Слой_x0020_1">
  <metadata id="CorelCorpID_0Corel-Layer"/>
  <polygon class="fil0" points="285,0 0,0 0,214 285,214 "/>
  <g style="clip-path:url(#id0)">
   <g id="_641337984">
    <polygon id="1" class="fil1" points="118,34 127,98 118,116 132,163 214,187 188,225 -21,247 "/>
    <path class="fil2" d="M138 145c-3,-4 -7,-12 -5,-16 1,-4 6,-5 9,-5 9,0 16,6 4,21l7 17 -11 26 -10 -26 6 -17z"/>
    <path class="fil0" d="M121 93c2,13 -1,17 -5,20 -4,3 15,52 15,52l27 0 10 -52c-8,-2 -7,-17 -6,-21 1,-4 -30,-1 -30,-1l-9 1 -2 1z"/>
    <path class="fil3" d="M168 82c-1,10 -8,21 -19,25 -4,2 -9,2 -14,0 -10,-4 -17,-15 -19,-25 -1,0 -3,-2 -5,-10 -3,-10 0,-12 3,-12 -1,-1 -1,-2 -2,-4 -4,-27 9,-28 9,-28 0,0 2,-5 8,-8 3,-2 8,-4 15,-3 2,0 5,0 7,1 2,1 4,2 6,4 3,1 5,4 7,6 4,4 7,8 8,14 1,5 1,9 0,14 0,2 -1,3 -1,5 3,-1 6,1 3,11 -2,8 -4,10 -6,10z"/>
    <path class="fil3" d="M83 128c19,-5 33,-15 33,-15l12 37 2 7 0 -1 2 6 6 -17c-15,-21 3,-21 4,-21 1,0 20,0 4,21l7 17 1 -6 1 1 2 -7 11 -37c0,0 15,10 34,15 13,3 15,18 15,27 1,11 1,18 2,31l-151 1c0,-5 1,-32 1,-32 0,-8 1,-24 14,-27z"/>
   </g>
  </g>
  <polygon class="fil4" points="285,0 0,0 0,214 285,214 "/>
 </g>
</svg>
