<?xml version="1.0" encoding="UTF-8"?>
<!DOCTYPE svg PUBLIC "-//W3C//DTD SVG 1.1//EN" "http://www.w3.org/Graphics/SVG/1.1/DTD/svg11.dtd">
<!-- Creator: CorelDRAW X7 -->
<svg xmlns="http://www.w3.org/2000/svg" xml:space="preserve" width="18.2935mm" height="13.5158mm" version="1.1" style="shape-rendering:geometricPrecision; text-rendering:geometricPrecision; image-rendering:optimizeQuality; fill-rule:evenodd; clip-rule:evenodd"
viewBox="0 0 227 168"
 xmlns:xlink="http://www.w3.org/1999/xlink">
 <defs>
  <style type="text/css">
   <![CDATA[
    .fil5 {fill:none}
    .fil1 {fill:#1E78B0}
    .fil0 {fill:#45A7DE}
    .fil3 {fill:#90D3F5}
    .fil2 {fill:white}
    .fil4 {fill:white;fill-rule:nonzero}
   ]]>
  </style>
   <clipPath id="id0">
    <path d="M227 0l-227 0 0 168 227 0 0 -168z"/>
   </clipPath>
 </defs>
 <g id="Слой_x0020_1">
  <metadata id="CorelCorpID_0Corel-Layer"/>
  <polygon class="fil0" points="227,0 0,0 0,168 227,168 "/>
  <g style="clip-path:url(#id0)">
   <g id="_976045928">
    <polygon id="1" class="fil1" points="93,28 99,77 92,91 103,126 165,144 145,173 -12,189 "/>
    <path class="fil2" d="M108 112c-3,-3 -6,-9 -5,-12 2,-3 5,-3 8,-3 7,0 12,4 3,15l5 14 -8 19 -8 -19 5 -14z"/>
    <path class="fil3" d="M95 73c1,10 -1,13 -4,15 -3,2 11,39 11,39l21 1 8 -40c-7,-1 -6,-12 -5,-16 1,-3 -23,0 -23,0l-7 1 -1 0z"/>
    <path class="fil4" d="M131 65c-1,7 -7,16 -15,19 -3,1 -7,1 -10,0 -9,-3 -14,-12 -15,-19 -1,0 -2,-2 -4,-7 -2,-8 0,-10 2,-9 0,-2 -1,-3 -1,-4 -3,-21 7,-21 7,-21 0,0 1,-4 5,-6 3,-2 7,-3 12,-3 2,0 4,1 5,1 2,1 4,2 5,3 2,1 4,3 6,5 2,3 4,6 5,11 1,3 1,7 0,10 0,1 0,2 0,4 2,-1 4,1 2,9 -2,5 -3,7 -4,7z"/>
    <path class="fil4" d="M66 100c14,-4 25,-12 25,-12l9 28 2 5 0 0 1 5 5 -14c-12,-15 2,-15 3,-15 1,0 14,0 3,15l5 14 1 -5 0 0 2 -5 9 -28c0,0 11,8 25,12 10,2 11,13 11,20 1,8 1,14 2,24l-114 0c-1,-3 1,-24 1,-24 -1,-6 0,-18 10,-20z"/>
   </g>
  </g>
  <polygon class="fil5" points="227,0 0,0 0,168 227,168 "/>
 </g>
</svg>
