<svg xmlns="http://www.w3.org/2000/svg" viewBox="0 0 22.17 21.34"><defs><style>.cls-1{fill:#c4c4c4;fill-rule:evenodd;}</style></defs><title>arr-double</title><g id="Слой_2" data-name="Слой 2"><g id="Слой_1-2" data-name="Слой 1"><path class="cls-1" d="M.48,11.82A1.25,1.25,0,0,1,0,10.71H0v-.09H0v0H0v-.06H0v-.06H0v0H0V10.4l0,0h0v0h0v0h0a.1.1,0,0,0,0-.09l0,0h0v-.06l0,0h0v0l0,0h0v0l0,0v0l0,0h0l0,0V9.86h0v0l.17-.23a1.77,1.77,0,0,1,1.19-.68l.17,0h.06a2,2,0,0,1,1,.34h0L3,9.33H3c2.58,1.9,5.56,4.68,8.08,6.8,2.52-2.13,5.5-4.9,8.08-6.8h0c.06,0,.09-.06.11-.06v0h0a1.83,1.83,0,0,1,1-.34h.06s.06,0,.11,0a1.72,1.72,0,0,1,1.22.68l.17.23v0h0v.06l0,0h0l0,0v0l0,0v0h0l0,0v0h0l0,0v.06h0v0a.1.1,0,0,0,0,.09h0v0h0v0h0l0,0v.06h0v0h0v0l0,0h0v.06h0v0h0v.09h0a1.25,1.25,0,0,1-.48,1.11.39.39,0,0,1-.09.11h0l-.06.06s-.09.06-.11.11a0,0,0,0,0,0,0h0L11.06,21.34h0L10.63,21,.79,12.13h0a0,0,0,0,0,0,0C.71,12,.65,12,.62,12l-.06,0h0a.39.39,0,0,1-.09-.11ZM20.3,8.9h0"/><path class="cls-1" d="M.54,2.92A1.3,1.3,0,0,1,.06,1.79h0V1.7h0V1.64h0l0,0h0v0h0V1.5h0l0,0h0V1.39h0s0,0,0-.06l0,0h0V1.25h0l0,0h0v0l0,0h0v0h0l0-.06h0l0,0h0V1l0,0h0V1h0v0A1.57,1.57,0,0,1,.51.71,1.77,1.77,0,0,1,1.7,0a.36.36,0,0,1,.17,0h.06a1.74,1.74,0,0,1,1,.34h0A.21.21,0,0,0,3,.4v0H3c2.58,1.9,5.56,4.68,8.08,6.8,2.52-2.13,5.5-4.9,8.08-6.8h0v0A.15.15,0,0,0,19.3.34h0a1.64,1.64,0,0,1,1-.34h.17a1.76,1.76,0,0,1,1.22.71,1.57,1.57,0,0,1,.17.23V1h0V1h0l0,0V1h0l0,0h0l0,0v.06h0l0,0v0h0l0,0h0V1.3h0v0s0,0,0,.06h0v.09h0l0,0h0v.09h0v0h0v0h0V1.7h0v.09h0a1.3,1.3,0,0,1-.48,1.13L21.6,3h0l-.06,0c0,.06-.09.09-.11.11s0,0,0,.06h0L11.11,12.44h0l-.43-.37L.85,3.23h0s0,0,0-.06S.71,3.12.68,3.06L.62,3h0L.54,2.92ZM20.35,0h0"/></g></g></svg>