<svg xmlns="http://www.w3.org/2000/svg" viewBox="0 0 16.19 28.77"><defs><style>.cls-1{fill:#ededed;fill-rule:evenodd;}</style></defs><title>arr-page</title><g id="Слой_2" data-name="Слой 2"><g id="Слой_1-2" data-name="Слой 1"><path class="cls-1" d="M12.42.62A1.6,1.6,0,0,1,13.86,0H14l0,0h.14l0,0h.09l0,0h0l.09,0,0,0h.06l0,0h.06l0,0h0l0,0h0l0,0h0l0,0h0l0,0h.06v0h0v0H15c.09.09.2.14.28.23a2.33,2.33,0,0,1,.91,1.53v.28a2.06,2.06,0,0,1-.43,1.3h0v0l-.09.11h0C13.18,7.23,9.55,11.08,6.8,14.37c2.75,3.32,6.38,7.17,8.84,10.54h0a.21.21,0,0,1,.06.11l0,0h0a2.12,2.12,0,0,1,.43,1.3v.2a2.19,2.19,0,0,1-.91,1.62c-.09.09-.2.14-.28.23h-.06v0h0v0h-.06l0,0h0l0,0h0l0,0h0l0,0h0l0,0h-.06l0,0h0l-.06,0-.09,0h0l0,0h-.09l0,0H14l0,0h-.14a1.63,1.63,0,0,1-1.45-.62.75.75,0,0,1-.17-.14h0l0-.06a.75.75,0,0,1-.17-.14s0,0,0-.06h0L0,14.37H0l.48-.54L12,1V1a0,0,0,0,0,0,0l.17-.17,0,0h0a.75.75,0,0,1,.17-.14Zm3.77,25.77v.06"/></g></g></svg>