<svg xmlns="http://www.w3.org/2000/svg" viewBox="0 0 57.57 43.77"><defs><style>.cls-1{fill:none;stroke:#000;stroke-miterlimit:10;stroke-width:0.57px;}</style></defs><title>balloons_sm</title><g id="Слой_2" data-name="Слой 2"><g id="Слой_1-2" data-name="Слой 1"><path class="cls-1" d="M10,34.78c5.39,0,9.75-7.74,9.75-17.23S15.42.28,10,.28.28,8,.28,17.55,4.68,34.78,10,34.78Z"/><path class="cls-1" d="M26.9,43.48C34.13,43.48,40,35.29,40,25.26S34.13,7,26.9,7,13.78,15.22,13.78,25.26s5.9,18.23,13.12,18.23Z"/><path class="cls-1" d="M45.3,32.54c6.6,0,12-5.9,12-13.12S51.9,6.29,45.3,6.29s-12,5.9-12,13.12,5.39,13.12,12,13.12Z"/></g></g></svg>