<svg xmlns="http://www.w3.org/2000/svg" viewBox="0 0 39.23 40.06"><defs><style>.cls-1,.cls-2{fill:#d0cfcf;}.cls-1{fill-rule:evenodd;}.cls-2{stroke:#d0cfcf;stroke-miterlimit:10;stroke-width:0.23px;}</style></defs><title>balloons</title><g id="Слой_2" data-name="Слой 2"><g id="Слой_1-2" data-name="Слой 1"><path class="cls-1" d="M7.74,1.5a6.75,6.75,0,0,1,5.13,2.66,15.74,15.74,0,0,0-2,7.85,15.48,15.48,0,0,0,2.07,7.91,6.74,6.74,0,0,1-5.19,2.72C3.46,22.65,0,17.91,0,12.08S3.46,1.5,7.74,1.5Zm5.61,3.32a10.71,10.71,0,0,1,1,1.67,5.49,5.49,0,0,0-.77,3.32l1-.17a3.87,3.87,0,0,1,.28-1.9,13.94,13.94,0,0,1,.4,1.56A4.79,4.79,0,0,0,15,11.23l.43-.09c0,.31,0,.62,0,.94a12.91,12.91,0,0,1-2.07,7.2A14.88,14.88,0,0,1,11.59,12a14.87,14.87,0,0,1,1.76-7.2ZM6,4.85C2.07,7.2,2.58,10,2.58,10l-.85.14s-.6-3.37,3.86-6ZM7.31,6.09c-3.94,2.35-3.46,5.13-3.46,5.13L3,11.37s-.6-3.34,3.86-6Z"/><path class="cls-1" d="M6.63,22.54c.28.26.23.2-.2.62-.06.06-.43.54-.51.62l3.15.06c-.26-.43-.71-.68-.77-1.22Z"/><path class="cls-2" d="M8.11,23.58s.09.17.11.43a2.48,2.48,0,0,1-.31,2.13,7.92,7.92,0,0,0-1.59,3h0c-.06.48.23.77.79,1a2.85,2.85,0,0,1,1.3,2.24,15.12,15.12,0,0,1,.06,4.31l-.79-.34a14.5,14.5,0,0,0-.09-3.83c-.17-.77-.4-1.42-.82-1.59-.91-.4-1.42-.91-1.33-1.84h0a8.32,8.32,0,0,1,1.76-3.43,1.82,1.82,0,0,0,.14-1.47c-.09-.57-.17-1,.31-1.3Z"/><path class="cls-1" d="M31.49,1.36a6.26,6.26,0,0,0-4.28,1.79A15.31,15.31,0,0,1,29.88,12a15.34,15.34,0,0,1-2.61,8.79,6.38,6.38,0,0,0,4.22,1.73c4.28,0,7.74-4.73,7.74-10.57s-3.46-10.6-7.74-10.6Zm-4.82,2.3A12.35,12.35,0,0,0,23.75,12a12.31,12.31,0,0,0,3,8.33A14.56,14.56,0,0,0,29.14,12a14.52,14.52,0,0,0-2.47-8.36Zm6.52,1.08c3.94,2.35,3.46,5.13,3.46,5.13l.85.14s.6-3.37-3.86-6ZM31.89,6c4,2.38,3.46,5.16,3.46,5.16l.85.14s.6-3.37-3.86-6Z"/><path class="cls-1" d="M32.6,22.42c-.28.26-.23.17.2.6.06.06.43.54.51.62l-3.15.06c.26-.4.71-.65.77-1.19Z"/><path class="cls-2" d="M31.1,23.47c.06,0-.06.17-.11.4A2.68,2.68,0,0,0,31.29,26a7.37,7.37,0,0,1,1.59,3h0c.06.45-.26.74-.79,1a2.82,2.82,0,0,0-1.33,2.21,15.83,15.83,0,0,0,0,4.31l.79-.31a14.55,14.55,0,0,1,.09-3.83c.14-.77.4-1.42.82-1.62a1.71,1.71,0,0,0,1.3-1.84h0A7.76,7.76,0,0,0,32,25.51a2,2,0,0,1-.17-1.5c.11-.57.17-1-.28-1.28Z"/><path class="cls-1" d="M20.38,0c4.85,0,8.76,5.39,8.76,12s-3.91,12-8.76,12-8.79-5.36-8.79-12S15.53,0,20.38,0ZM18.45,3.8c-4.51,2.69-3.94,5.84-3.94,5.84l-1,.17S12.87,6,17.94,3ZM19.9,5.22C15.42,7.88,16,11.06,16,11.06l-1,.17s-.68-3.83,4.39-6.83Z"/><path class="cls-1" d="M19.11,23.9c.34.28.26.2-.23.68-.06.09-.45.62-.54.71l3.54.06c-.28-.45-.79-.77-.85-1.36Z"/><path class="cls-2" d="M20.81,25.09s.09.17.14.45a2.93,2.93,0,0,1-.37,2.41c-1.16,1.64-1.73,2.69-1.79,3.4h0c-.06.54.28.85.91,1.13A3.28,3.28,0,0,1,21.2,35a17.72,17.72,0,0,1,0,4.9l-.88-.37a16.48,16.48,0,0,0-.11-4.37c-.17-.88-.45-1.59-.94-1.81-1-.43-1.59-1-1.5-2.1h0c.06-.88.68-2.1,2-3.88a2.06,2.06,0,0,0,.2-1.67c-.11-.65-.2-1.13.31-1.47Z"/></g></g></svg>