<svg xmlns="http://www.w3.org/2000/svg" viewBox="0 0 49.25 34.67"><defs><style>.cls-1{fill:#c7cbcf;fill-rule:evenodd;}</style></defs><title>best-choice</title><g id="Слой_2" data-name="Слой 2"><g id="Слой_1-2" data-name="Слой 1"><path class="cls-1" d="M6.18,11.84l.43,3.43-3.88.48a5.72,5.72,0,0,1,1-2.07,5.86,5.86,0,0,1,2.41-1.84Zm9.72-1.42.43,0a13.9,13.9,0,0,1,.23-1.9,4.58,4.58,0,0,0-.88.06,7.57,7.57,0,0,0-4,1.67,7.82,7.82,0,0,0-9.44,2.3C-2.07,17.82.6,23.66,3.77,26.61c.14.14,7.4,5.75,10.06,7.8a1.22,1.22,0,0,0,1.73-.2c2.07-2.66,7.74-9.86,7.85-10a8.42,8.42,0,0,0,.85-1.53,11.87,11.87,0,0,1-3.49-2.13c-1.28,1.64-4.68,6-6.09,7.8a1,1,0,0,1-.68.37h0a.94.94,0,0,1-.77-.2c-.74-.57-1.84-1.42-3-2.35L9.1,17.25l8.39-1A12.09,12.09,0,0,1,16.7,14L8.82,15l-.45-3.57A6,6,0,0,1,12,12.63a5.88,5.88,0,0,1,3.91-2.21ZM7.71,24.2C6.12,23,4.85,22,4.79,21.93A5.77,5.77,0,0,1,2.58,18l4.31-.54Z"/><path class="cls-1" d="M28.4,0c-6,0-10.77,5.16-10.77,11.17.54,6.41,5.73,11.14,12.1,10.57a11,11,0,0,0,10.2-11.54A10.31,10.31,0,0,0,28.4,0Zm0,2a8.84,8.84,0,0,0-8.31,9,8.87,8.87,0,0,0,9.07,8.33A9,9,0,0,0,38,10.25,9.5,9.5,0,0,0,28.4,2.06Z"/><path class="cls-1" d="M39.43,22.44l7.06,6.29c.71.82,1.53.11,1.9-.48.82-.68,1.19-1.28.48-2.13l-7.06-6.29-1.9.48Z"/><path class="cls-1" d="M38.83,22.07l.6.37,2.38-2.61L41.1,19c-1.08-.26-2.13-.48-2.49.11-.71,1.16-.94,2.24.23,2.95Z"/></g></g></svg>