<?xml version="1.0" encoding="UTF-8"?>
<!DOCTYPE svg PUBLIC "-//W3C//DTD SVG 1.1//EN" "http://www.w3.org/Graphics/SVG/1.1/DTD/svg11.dtd">
<!-- Creator: CorelDRAW X7 -->
<svg xmlns="http://www.w3.org/2000/svg" xml:space="preserve" width="35.7269mm" height="46.496mm" version="1.1" style="shape-rendering:geometricPrecision; text-rendering:geometricPrecision; image-rendering:optimizeQuality; fill-rule:evenodd; clip-rule:evenodd"
viewBox="0 0 32185 41887"
 xmlns:xlink="http://www.w3.org/1999/xlink">
 <defs>
  <style type="text/css">
   <![CDATA[
    .fil0 {fill:#C7CBCF}
   ]]>
  </style>
 </defs>
 <g id="Слой_x0020_1">
  <metadata id="CorelCorpID_0Corel-Layer"/>
  <path class="fil0" d="M26010 19592l-10040 0c-554,0 -1087,-209 -1087,-762 0,-553 448,-903 1002,-903l10039 0c554,0 1003,350 1003,903 0,553 -435,762 -989,762l72 0zm-5587 -5084l-2466 -14 1317 -1975c1170,2025 -20,-36 1149,1989l0 0zm1338 -1369l1022 -1702 2126 3099 -2327 -28 -821 -1369zm-5736 -3994c2612,713 4623,-1232 3902,-3874l5363 -14 0 6513 -1667 -2075c-386,-668 -1351,-667 -1736,0l-1199 2076 -574 -995c-385,-667 -1350,-667 -1736,0l-2339 3338 -14 -4969zm14 -3888l2342 -14c1081,1398 -944,3494 -2342,2412l0 -2398zm13505 -5257l-17759 0c-553,0 -1002,449 -1002,1002l0 2251 -1005 0c-553,0 -1002,449 -1002,1002 0,554 449,1002 1002,1002l1005 0 0 2761 -1005 0c-553,0 -1002,449 -1002,1002 0,554 449,1003 1002,1003l1005 0 0 2760 -1005 0c-553,0 -1002,449 -1002,1003 0,553 449,1002 1002,1002l1005 0 0 2761 -1005 0c-553,0 -1002,448 -1002,1002 0,553 449,1002 1002,1002l1005 0 0 2251c0,553 449,1002 1002,1002l17759 0c553,0 1002,-449 1002,-1002l0 -20802c0,-553 -449,-1002 -1002,-1002l0 0z"/>
  <path class="fil0" d="M14149 26350l-12099 0c-377,0 -683,306 -683,683l0 1533 -684 0c-377,0 -683,306 -683,683 0,377 306,683 683,683l684 0 0 1880 -684 0c-377,0 -683,306 -683,683 0,377 306,683 683,683l684 0 0 1881 -684 0c-377,0 -683,306 -683,683 0,377 306,682 683,682l684 0 0 1882 -684 0c-377,0 -683,305 -683,682 0,377 306,683 683,683l684 0 0 1534c0,376 306,682 683,682l12099 0c377,0 683,-306 683,-682l0 -14172c0,-377 -306,-683 -683,-683l0 0zm-6322 2522l4783 0 0 2723 -4783 0 0 -2723z"/>
  <path class="fil0" d="M31610 28611l-10196 0c-318,0 -576,257 -576,575l0 1292 -576 0c-318,0 -576,258 -576,576 0,317 258,575 576,575l576 0 0 1585 -576 0c-318,0 -576,258 -576,576 0,317 258,575 576,575l576 0 0 1585 -576 0c-318,0 -576,258 -576,576 0,317 258,575 576,575l576 0 0 1585 -576 0c-318,0 -576,258 -576,575 0,318 258,576 576,576l576 0 0 1292c0,317 258,575 576,575l10196 0c318,0 575,-258 575,-575l0 -11943c0,-318 -257,-575 -575,-575l0 0zm-3116 2427c844,0 1528,684 1528,1528 0,844 -684,1528 -1528,1528 -844,0 -1528,-684 -1528,-1528 0,-844 684,-1528 1528,-1528z"/>
 </g>
</svg>
