<svg xmlns="http://www.w3.org/2000/svg" viewBox="0 0 100.83 131.22"><defs><style>.cls-1{fill:#c7cbcf;fill-rule:evenodd;}</style></defs><title>books</title><g id="Слой_2" data-name="Слой 2"><g id="Слой_1-2" data-name="Слой 1"><path class="cls-1" d="M81.38,61.65H49.8c-1.76,0-3.43-.65-3.43-2.41a2.91,2.91,0,0,1,3.15-2.83H81.13a2.91,2.91,0,0,1,3.15,2.83c0,1.76-1.36,2.41-3.12,2.41Zm-17.57-16L56,45.61l4.14-6.21c3.69,6.38-.06-.11,3.63,6.26ZM68,41.36,71.23,36l6.69,9.75-7.31-.09ZM50,28.77C58.2,31,64.52,24.89,62.25,16.58l16.87,0V37L73.87,30.5a3.16,3.16,0,0,0-5.47,0L64.63,37,62.84,33.9a3.16,3.16,0,0,0-5.47,0L50,44.42Zm0-12.22,7.37-.06c3.4,4.39-3,11-7.37,7.6ZM92.49,0H36.62a3.16,3.16,0,0,0-3.15,3.15v7.09H30.3a3.16,3.16,0,0,0,0,6.32h3.17v8.67H30.3a3.16,3.16,0,0,0,0,6.32h3.17v8.67H30.3a3.16,3.16,0,0,0,0,6.32h3.17v8.67H30.3a3.16,3.16,0,0,0,0,6.32h3.17V68.6a3.16,3.16,0,0,0,3.15,3.17H92.49a3.17,3.17,0,0,0,3.17-3.17V3.15A3.16,3.16,0,0,0,92.49,0Z"/><path class="cls-1" d="M44.53,82.26H6.46a2.15,2.15,0,0,0-2.15,2.13v4.85H2.15a2.14,2.14,0,1,0,0,4.28H4.31v5.92H2.15a2.15,2.15,0,0,0,0,4.31H4.31v5.9H2.15a2.15,2.15,0,0,0,0,4.31H4.31v5.92H2.15a2.14,2.14,0,1,0,0,4.28H4.31V129a2.15,2.15,0,0,0,2.15,2.15H44.53A2.13,2.13,0,0,0,46.66,129V84.39a2.12,2.12,0,0,0-2.13-2.13Z"/><path class="cls-1" d="M99,90H66.93a1.83,1.83,0,0,0-1.81,1.81V95.9H63.3a1.81,1.81,0,1,0,0,3.63h1.81v5H63.3a1.81,1.81,0,0,0,0,3.63h1.81v5H63.3a1.8,1.8,0,1,0,0,3.6h1.81v5H63.3a1.83,1.83,0,0,0-1.81,1.81,1.81,1.81,0,0,0,1.81,1.81h1.81v4.08a1.8,1.8,0,0,0,1.81,1.79H99a1.8,1.8,0,0,0,1.81-1.79V91.84A1.83,1.83,0,0,0,99,90Z"/></g></g></svg>