<?xml version="1.0" encoding="utf-8"?>
<!-- Generator: Adobe Illustrator 21.0.0, SVG Export Plug-In . SVG Version: 6.00 Build 0)  -->
<svg version="1.1" id="Слой_1" xmlns="http://www.w3.org/2000/svg" xmlns:xlink="http://www.w3.org/1999/xlink" x="0px" y="0px"
	 viewBox="0 0 47.8 27.4" style="enable-background:new 0 0 47.8 27.4;" xml:space="preserve">
<style type="text/css">
	.st0{fill:#C7CBCF;}
	.st1{fill:#F3F3F3;}
</style>
<title>books_page</title>
<g id="Слой_2">
	<g id="Слой_1-2">
		<path class="st0" d="M42.4,23.6H30.3c-0.6,0-1.3-0.3-1.3-0.9c0-0.6,0.5-1.1,1.1-1.1c0,0,0.1,0,0.1,0h12.1c0.6,0,1.1,0.4,1.2,1
			c0,0,0,0,0,0.1C43.5,23.3,43,23.6,42.4,23.6L42.4,23.6z M35.7,17.5h-3l1.6-2.4C35.7,17.5,34.3,15.1,35.7,17.5L35.7,17.5z
			 M37.3,15.8l1.3-2l2.5,3.7h-2.8L37.3,15.8z M30.4,11c3.2,0.9,5.6-1.5,4.7-4.7h6.5v7.8l-2-2.5c-0.3-0.6-1-0.8-1.6-0.5
			c-0.2,0.1-0.4,0.3-0.5,0.5L36,14.2L35.3,13c-0.3-0.6-1.1-0.8-1.6-0.4c-0.2,0.1-0.3,0.3-0.4,0.4l-2.8,4L30.4,11z M30.4,6.3h2.8
			c1.3,1.7-1.1,4.2-2.8,2.9L30.4,6.3z M46.7,0H25.3c-0.7,0-1.2,0.5-1.2,1.2c0,0,0,0,0,0v2.7h-1.2c-0.7,0-1.2,0.5-1.2,1.2
			s0.5,1.2,1.2,1.2h1.2v3.3h-1.2c-0.7,0-1.2,0.5-1.2,1.2s0.5,1.2,1.2,1.2h1.2v3.3h-1.2c-0.7,0-1.2,0.5-1.2,1.2
			c0,0.7,0.5,1.2,1.2,1.2h1.2v3.3h-1.2c-0.7,0-1.2,0.5-1.2,1.2s0.5,1.2,1.2,1.2h1.2v2.7c0,0.7,0.5,1.2,1.2,1.2c0,0,0,0,0,0h21.4
			c0.7,0,1.2-0.5,1.2-1.2v-25C47.9,0.6,47.4,0,46.7,0C46.7,0,46.7,0,46.7,0z"/>
		<path class="st0" d="M16.1,9.8C16.1,9.8,16.1,9.8,16.1,9.8L16.1,9.8l-13.8,0c-0.4,0-0.8,0.3-0.8,0.7c0,0,0,0,0,0v1.8H0.8
			c-0.4,0-0.7,0.4-0.7,0.9c0,0.4,0.3,0.6,0.7,0.7h0.8V16H0.8C0.4,16,0,16.3,0,16.7c0,0,0,0,0,0c0,0.4,0.3,0.8,0.8,0.8h0.8v2.1H0.8
			C0.4,19.7,0,20,0,20.4c0,0,0,0,0,0c0,0.4,0.3,0.8,0.8,0.8h0.8v2.1H0.8c-0.4,0-0.8,0.3-0.8,0.7c0,0,0,0,0,0c0,0.4,0.3,0.8,0.8,0.8
			h0.8v1.7c0,0.4,0.3,0.8,0.7,0.8c0,0,0,0,0,0h13.7c0.4,0,0.8-0.3,0.8-0.7c0,0,0,0,0,0V10.6C16.8,10.2,16.5,9.8,16.1,9.8z
			 M12.8,15.8h-2.4c-0.9,0-1.5-0.7-1.6-1.6c0-0.8,0.7-1.6,1.6-1.6h2.4c0.9,0,1.5,0.7,1.6,1.6C14.4,15.1,13.6,15.8,12.8,15.8z"/>
		<path class="st1" d="M10.4,12.7h2.4c0.9,0,1.5,0.7,1.6,1.5v-1.5H8.9v1C9.1,13.1,9.7,12.7,10.4,12.7z"/>
	</g>
</g>
</svg>
