<svg xmlns="http://www.w3.org/2000/svg" viewBox="0 0 134.33 117.38"><defs><style>.cls-1{fill:#999;fill-rule:evenodd;}</style></defs><title>cart</title><g id="Слой_2" data-name="Слой 2"><g id="Слой_1-2" data-name="Слой 1"><path class="cls-1" d="M10.77,67.78l8.87,27.89c0,12.42,9.3,21.71,21.69,21.71H93c12.39,0,22.73-9.3,22.73-21.71l8.87-27.89Zm44,7.37c0-2.07,2.07-3.12,4.14-3.12A4.45,4.45,0,0,1,63,76.17V99.95a3.8,3.8,0,0,1-4.14,4.14,3.8,3.8,0,0,1-4.14-4.14V75.15Zm17.57,7.23V76.17c0-2.07,1-4.14,4.14-4.14a4.42,4.42,0,0,1,4.11,4.14V99.95a3.78,3.78,0,0,1-4.11,4.14c-3.12,0-4.14-1-4.14-4.14V82.37ZM88.87,89.6V76.17A4.45,4.45,0,0,1,93,72c3.09,0,5.16,2.07,5.16,4.14V99.95c0,3.09-2.07,4.14-5.16,4.14a3.8,3.8,0,0,1-4.14-4.14V89.6ZM45.47,99.95a3.8,3.8,0,0,1-4.14,4.14,3.8,3.8,0,0,1-4.14-4.14V76.17A4.45,4.45,0,0,1,41.33,72a4.45,4.45,0,0,1,4.14,4.14Z"/><path class="cls-1" d="M134.33,53.29c0,4.14-4.14,8.28-9.3,8.28H10.35C4.14,61.57,0,57.43,0,53.29V48.1c0-5.16,4.14-8.25,10.35-8.25H22a12,12,0,0,0,3.69,8.42c4,4,10.66,3.54,15.11.57l.4-.26,8.73-8.73H83.45l9.41,9.41.43.43.51.34a13.71,13.71,0,0,0,16,0l1-.68.68-1a15.35,15.35,0,0,0,2.55-8.5h11c5.16,0,9.3,3.09,9.3,8.25v5.19Z"/><path class="cls-1" d="M133.31,56.38,115.74,39.85H114a15.35,15.35,0,0,1-2.55,8.5l-.68,1-1,.68a16.17,16.17,0,0,1-4.51,2.1l9.41,9.44H125c4.14,0,7.23-2.07,8.28-5.19Z"/><path class="cls-1" d="M35,51.05,45.47,61.57h24.8L48.76,41l-7.57,7.57-.4.26A13.71,13.71,0,0,1,35,51.05Z"/><path class="cls-1" d="M38.24,45c-3.09,2.07-7.23,2.07-9.3,0-3.12-3.12-3.12-7.23,0-9.3L55.7,8.9A15.84,15.84,0,0,0,58,14.23l.31.51.43.43,4.65,4.65Z"/><path class="cls-1" d="M106.44,35.72c2.07,2.07,2.07,6.18,0,9.3a7.74,7.74,0,0,1-9.3,0L63,10.88c-4.79-7.17,2.13-14.09,9.3-9.3Z"/><path class="cls-1" d="M67.89,9.92A3.47,3.47,0,1,0,64.4,6.46a3.47,3.47,0,0,0,3.49,3.46Z"/></g></g></svg>