<svg xmlns="http://www.w3.org/2000/svg" viewBox="0 0 55.11 32.26"><defs><style>.cls-1{fill:#d0cfcf;fill-rule:evenodd;}</style></defs><title>cups</title><g id="Слой_2" data-name="Слой 2"><g id="Слой_1-2" data-name="Слой 1"><path class="cls-1" d="M55.11,18.57a9,9,0,0,1-8.76,9.21,9,9,0,0,1-8.76-9.21Z"/><path class="cls-1" d="M46.26,29.93a10.77,10.77,0,0,1-4.68-1v3.37h9.35V28.89a10.77,10.77,0,0,1-4.68,1Z"/><path class="cls-1" d="M38.24,4.22a11.66,11.66,0,1,0,0,23.33c.43,0,.88,0,1.3-.06a11.29,11.29,0,0,1-3.74-8.39V16.7H49.86a7.43,7.43,0,0,0,0-.79A11.67,11.67,0,0,0,38.24,4.22Z"/><path class="cls-1" d="M38.27,0a15.94,15.94,0,0,0,0,31.89,14,14,0,0,0,1.56-.09V29.45a14,14,0,0,1-1.56.09A13.61,13.61,0,1,1,51.87,15.93v.79H54.2c0-.26,0-.51,0-.79A16,16,0,0,0,38.27,0Z"/><path class="cls-1" d="M3.94,20.3v1.84A8,8,0,0,0,4.14,24H3.29a1.84,1.84,0,0,1,0-3.69Zm13.8,7.88a8.09,8.09,0,0,0,1.33-1.62,8.22,8.22,0,0,0,1.3-4.42V16.92H3.94v1.93H3.29a3.29,3.29,0,0,0,0,6.58H4.62a8.64,8.64,0,0,0,.6,1.13,9.19,9.19,0,0,0,1.33,1.62h11.2Z"/><path class="cls-1" d="M9.95,29.71H19.9v.17a2,2,0,0,1-2,2H6.41a2,2,0,0,1-2-2v-.17Z"/></g></g></svg>