<svg xmlns="http://www.w3.org/2000/svg" viewBox="0 0 40.93 82.74"><defs><style>.cls-1{fill:#b8bec4;fill-rule:evenodd;}</style></defs><title>framing</title><g id="Слой_2" data-name="Слой 2"><g id="Слой_1-2" data-name="Слой 1"><path class="cls-1" d="M36.26,38.13a1.14,1.14,0,0,1-1.16,1.13H5.81a1.14,1.14,0,0,1-1.13-1.13V18.77a1.14,1.14,0,0,1,1.13-1.13H35.09a1.14,1.14,0,0,1,1.16,1.13ZM19.53,4.62a2.3,2.3,0,0,0,1.87,0l8.08,8.08h-18ZM39.77,12.7H32.88l-10-10a.78.78,0,0,0,0-.26,2.41,2.41,0,1,0-4.82,0v.26L8,12.7H1.13A1.14,1.14,0,0,0,0,13.83V43a1.14,1.14,0,0,0,1.13,1.13H39.77A1.14,1.14,0,0,0,40.93,43V13.83a1.14,1.14,0,0,0-1.16-1.13Z"/><path class="cls-1" d="M27.69,21.63a3.4,3.4,0,0,1-.34.31h0c-1.22,1-2.49,2.1-3.8,3.09a.92.92,0,0,0-1.33-.28s-.26.17-.31.23a5.57,5.57,0,0,1-.71.37.1.1,0,0,1-.06,0L22.42,24c.6-.65-.2-1.76-1-1.25s-1.3.74-2,1.11a9.94,9.94,0,0,1-3.29,1.25c-1,.09-1,1.7,0,1.62a6.82,6.82,0,0,0,2-.51c-.17.2-.34.4-.51.57a.84.84,0,0,0,.43,1.39,18.36,18.36,0,0,1-5.56,1.36,1,1,0,0,0-.88,1,1,1,0,0,0,1,.88h.09A20.18,20.18,0,0,0,15.59,31c-1.79,1.25-3.15,2.21-3.17,2.21a1,1,0,0,0,1,1.64l10.29-5.44a30.65,30.65,0,0,0-2.3,3.12A1,1,0,0,0,22.56,34a10.77,10.77,0,0,0,1.22-.54l-.34.6a1,1,0,0,0,.06,1,1,1,0,0,0,.79.4h.14c.09,0,2.1-.31,3.2-.6a1,1,0,0,0,.68-1.19A.94.94,0,0,0,27.16,33c-.31.09-.68.14-1,.23l1.16-2.13a1,1,0,0,0-.2-1.19,1,1,0,0,0-1.16-.09c1.33-1.59,2.58-3,2.58-3a1,1,0,0,0,.06-1.25,1,1,0,0,0-1.22-.28l-1.59.85c.34-.31.65-.62,1-.94.48-.48,1-1,1.9-1.81A4.24,4.24,0,0,0,29,23.1a1,1,0,0,0,.09-1.36,1,1,0,0,0-1.36-.11Z"/><path class="cls-1" d="M9.1,76.71a2,2,0,1,1,2-2,2,2,0,0,1-2,2ZM9.1,69a5.66,5.66,0,1,0,5.64,5.67A5.66,5.66,0,0,0,9.1,69Z"/><path class="cls-1" d="M20.55,81.18a12.62,12.62,0,0,0-3.23-8.62,11.11,11.11,0,0,0-1-1,7.45,7.45,0,0,1,.65,3.09,7.84,7.84,0,0,1-6,7.6h9.58Z"/><path class="cls-1" d="M9.1,63.21a2,2,0,1,1,2-2,2,2,0,0,1-2,2Zm-5.64-2A5.64,5.64,0,1,0,9.1,55.56,5.66,5.66,0,0,0,3.46,61.2Z"/><path class="cls-1" d="M16.92,61.23a7.72,7.72,0,0,1-2.41,5.64H28.6a13.12,13.12,0,0,1,4.48.71,7.68,7.68,0,0,0,3.23-6.26,7.76,7.76,0,0,0-7.74-7.71l-17.6,0a7.87,7.87,0,0,1,6,7.6Z"/><path class="cls-1" d="M28.6,69H16.47a14.07,14.07,0,0,1,2.44,2.07,14.85,14.85,0,0,1,3.8,10.09v1.56H40V81.18a12.49,12.49,0,0,0-3.23-8.62A11.05,11.05,0,0,0,28.6,69Z"/></g></g></svg>