<svg xmlns="http://www.w3.org/2000/svg" viewBox="0 0 14.05 25.37"><defs><style>.cls-1{fill:#def2ff;fill-rule:evenodd;}</style></defs><title>geo</title><g id="Слой_2" data-name="Слой 2"><g id="Слой_1-2" data-name="Слой 1"><path class="cls-1" d="M7.12,2.13a4.79,4.79,0,0,1,4.76,4.37A4.83,4.83,0,0,1,7.4,11.62H7.12A4.83,4.83,0,0,1,2.18,7.23a4.77,4.77,0,0,1,4.51-5.1Zm0,23.16,3.49-8.65c.14-.28.23-.57.34-.85L11.68,14c.51-1.25,1.28-3.34,1.79-4.39a6.75,6.75,0,0,0-.23-6A7,7,0,0,0,7.12,0H7A7,7,0,0,0,.79,3.71,7,7,0,0,0,.11,8.19,6.66,6.66,0,0,0,.6,9.64C2.89,14.54,4.9,20.21,7,25.29c.06.11,0,0,.09.09Z"/></g></g></svg>