<svg xmlns="http://www.w3.org/2000/svg" viewBox="0 0 18.56 11.83"><defs><style>.cls-1{fill:#fefefe;}</style></defs><title>gp</title><g id="Слой_2" data-name="Слой 2"><g id="Слой_1-2" data-name="Слой 1"><path class="cls-1" d="M16.92,5.16h-.4V3.34c0-.09-.09-.23-.14-.23-.45,0-.91,0-1.39,0v2H12.92v.37c0,.37.06.74.06,1.11.37,0,.74.06,1.11.06H15v2h1.5v-2h2V5.16Z"/><path class="cls-1" d="M11.05,4.71h-5c-.06,0-.2.09-.2.14V7.11H9a1.4,1.4,0,0,1-.11.37A3.05,3.05,0,0,1,5.38,9.35,3.45,3.45,0,0,1,2.55,5.24a2.55,2.55,0,0,1,.23-.79,3.45,3.45,0,0,1,3.88-2,3.21,3.21,0,0,1,1.47.77c.57-.6,1.13-1.13,1.73-1.73-.06-.06-.11-.09-.14-.11A5.71,5.71,0,0,0,4.93.08,5.89,5.89,0,0,0,.39,8,6,6,0,0,0,6.6,11.79,5.42,5.42,0,0,0,10,10.18a6,6,0,0,0,1.47-5.1c0-.31-.14-.4-.45-.37Z"/></g></g></svg>