<svg xmlns="http://www.w3.org/2000/svg" viewBox="0 0 43.75 39.57"><defs><style>.cls-1,.cls-2{fill:#45484f;}.cls-1{fill-rule:evenodd;}</style></defs><title>loupe</title><g id="Слой_2" data-name="Слой 2"><g id="Слой_1-2" data-name="Слой 1"><path class="cls-1" d="M13.88,5.21a10.67,10.67,0,0,0-3.2.82,4.52,4.52,0,0,0-.82.43,8.71,8.71,0,0,0-3,3.06c-.4,1,.6,1.93,1.76.79A11.5,11.5,0,0,1,11,8.18,6.58,6.58,0,0,1,14.62,7.1a7.57,7.57,0,0,1,3.91,1l.09.06c.82.48,1.59,1.33,2.35,1.73a.46.46,0,0,0,.43,0,1,1,0,0,0,.43-1.42,7.24,7.24,0,0,0-3-2.41,10.53,10.53,0,0,0-4.93-.88Z"/><path class="cls-1" d="M29.27,30.55l10.57,8.62c.88.85,1.93.26,2.78-.71a4.66,4.66,0,0,0,1.11-1.84c.14-.68-.45-1-.85-1.5-10.6-8.62-10.35-8.45-10.35-8.45l-2.72.77Z"/><path class="cls-1" d="M28.39,30.07l.88.48,3.26-3.88a8,8,0,0,0-.77-.82,2.63,2.63,0,0,0-4,.31c-1.19,1.3-1.08,2.58.65,3.91Z"/><path class="cls-2" d="M13.94,0A14.58,14.58,0,0,1,29.19,13.94,14.58,14.58,0,0,1,15.27,29.19,14.6,14.6,0,0,1,0,15.44v-.17A14.44,14.44,0,0,1,3.82,4.75,14.62,14.62,0,0,1,13.77,0Zm8.25,6.29a11.14,11.14,0,0,0-8.08-2.95h0A11.29,11.29,0,0,0,3.36,15.1h0a11.24,11.24,0,0,0,19.53,7.09,11.2,11.2,0,0,0-.71-15.87Z"/></g></g></svg>