<svg xmlns="http://www.w3.org/2000/svg" viewBox="0 0 46.94 30.98"><defs><style>.cls-1,.cls-2{fill:#c7cbcf;}.cls-1{fill-rule:evenodd;}</style></defs><title>lovers</title><g id="Слой_2" data-name="Слой 2"><g id="Слой_1-2" data-name="Слой 1"><path class="cls-1" d="M11.4,3.57A6,6,0,0,1,15.7,5.36a6,6,0,0,1,0,8.62,5.65,5.65,0,0,1-1.56,1.13,9.08,9.08,0,0,1,3.57,2.18,8.85,8.85,0,0,1,2.61,6.29l0,5.24h6.07l0-5.24a9.24,9.24,0,0,1,2.66-6.49,9.39,9.39,0,0,1,3.09-2,5.9,5.9,0,0,1-1.13-.91,6.36,6.36,0,0,1,0-9h0a6.36,6.36,0,0,1,9,0,6.36,6.36,0,0,1,0,9h0a6.55,6.55,0,0,1-1.11.88,9.21,9.21,0,0,1,5.78,8.53l0,5.24h2.15V31H0V28.83H2.52V23.58a8.94,8.94,0,0,1,6.15-8.48A5.79,5.79,0,0,1,7.09,14,6.09,6.09,0,0,1,11.4,3.57ZM28.32,28.83H42.89V23.58a7.26,7.26,0,0,0-2.15-5.13,7.25,7.25,0,0,0-10.26,0,7.26,7.26,0,0,0-2.15,5.13ZM38.75,6.52a4.46,4.46,0,0,0-3.17-1.33,4.5,4.5,0,0,0-4.45,4.48,4.43,4.43,0,0,0,1.3,3.17h0a4.48,4.48,0,0,0,3.15,1.3,4.45,4.45,0,0,0,4.48-4.48,4.48,4.48,0,0,0-1.3-3.15Z"/><path class="cls-2" d="M23.16,1.64A2.55,2.55,0,0,1,25.63,0a2.35,2.35,0,0,1,2.47,2.18c0,2.18-2.47,4.39-4.93,6.58-2.47-2.18-4.93-4.39-4.93-6.58A2.35,2.35,0,0,1,20.69,0a2.58,2.58,0,0,1,2.47,1.64Z"/></g></g></svg>