<svg xmlns="http://www.w3.org/2000/svg" viewBox="0 0 60.55 33.73"><defs><style>.cls-1{fill:#d0cfcf;fill-rule:evenodd;}</style></defs><title>machine</title><g id="Слой_2" data-name="Слой 2"><g id="Слой_1-2" data-name="Слой 1"><path class="cls-1" d="M55.56,11.51A1.17,1.17,0,0,1,54.4,12.7a1.2,1.2,0,0,1-1.19-1.19V9.18A1.2,1.2,0,0,1,54.4,8a1.17,1.17,0,0,1,1.16,1.19ZM51.68,30a1.77,1.77,0,1,1,1.79-1.76A1.77,1.77,0,0,1,51.68,30ZM49.52,11.51V9.18a1.19,1.19,0,1,1,2.38,0v2.32a1.19,1.19,0,1,1-2.38,0Zm-1.3,0A1.2,1.2,0,0,1,47,12.7a1.17,1.17,0,0,1-1.16-1.19V9.18A1.17,1.17,0,0,1,47,8a1.2,1.2,0,0,1,1.19,1.19ZM59.36,9.16a1.16,1.16,0,0,0-1,.68v-1A3.31,3.31,0,0,0,55,5.56H53.91V3.17a1.19,1.19,0,0,0-2.38,0V5.56H50V1.19A1.17,1.17,0,0,0,48.87,0a1.2,1.2,0,0,0-1.19,1.19V5.56H36.2a1.18,1.18,0,0,0,.51-1A1.2,1.2,0,0,0,35.52,3.4H32.43a1.17,1.17,0,0,0-1.16,1.19,1.16,1.16,0,0,0,.48,1h-.54a5.07,5.07,0,0,0-5.07,5.07v6.75a3,3,0,0,0,3,3.06v1.79a1.19,1.19,0,1,0,2.38,0V20.44h0a3,3,0,0,0,3.06-3.06V15.17H41.1a4.48,4.48,0,0,1,0,9H27.3a1.16,1.16,0,0,0-1.16,1.19v5.13a3.29,3.29,0,0,0,3.29,3.29H55a3.31,3.31,0,0,0,3.32-3.29V17a1.14,1.14,0,0,0,1,.65,1.2,1.2,0,0,0,1.19-1.19V10.35a1.2,1.2,0,0,0-1.19-1.19Z"/><path class="cls-1" d="M10,21.32a.66.66,0,0,0,.4.88,16.94,16.94,0,0,0,5.36.68h.11a19.24,19.24,0,0,0,5.5-.79.69.69,0,1,0-.45-1.3,17.33,17.33,0,0,1-5.16.74,16.42,16.42,0,0,1-4.88-.6.69.69,0,0,0-.88.4Z"/><path class="cls-1" d="M10,23.24a.66.66,0,0,0,.4.88,16.94,16.94,0,0,0,5.36.68h.11A19.24,19.24,0,0,0,21.4,24a.69.69,0,1,0-.45-1.3,16.31,16.31,0,0,1-5.16.74,16.42,16.42,0,0,1-4.88-.6.69.69,0,0,0-.88.4Z"/><path class="cls-1" d="M10.91,24.77a.69.69,0,0,0-.88.4.66.66,0,0,0,.4.88,16.94,16.94,0,0,0,5.36.68h.11a19.24,19.24,0,0,0,5.5-.79.69.69,0,0,0,.43-.85.66.66,0,0,0-.88-.43,19.17,19.17,0,0,1-5.16.71,15.29,15.29,0,0,1-4.88-.6Z"/><path class="cls-1" d="M21.4,30a.68.68,0,0,0,.43-.85.71.71,0,0,0-.88-.43,16.56,16.56,0,0,1-5,.74h-.11a16.42,16.42,0,0,1-4.88-.6.68.68,0,0,0-.48,1.28,16.94,16.94,0,0,0,5.36.68h.11A17.64,17.64,0,0,0,21.4,30Z"/><path class="cls-1" d="M15.93,17.66c1.28,0,2.32.23,2.32.48s-1,.45-2.32.45-2.35-.2-2.35-.45,1-.48,2.35-.48Zm6.43.51a.53.53,0,0,0-.06-.2h0c0-.48-2.86-.88-6.38-.88s-6.41.4-6.41.88h0a.53.53,0,0,0-.06.23V19a1.15,1.15,0,0,0,.62,1,16.11,16.11,0,0,0,5.84.82A15.73,15.73,0,0,0,21.77,20a1.12,1.12,0,0,0,.6-1Z"/><path class="cls-1" d="M9.47,31.95a1.15,1.15,0,0,0,.62,1,15.48,15.48,0,0,0,5.84.82,15.33,15.33,0,0,0,5.84-.79,1.17,1.17,0,0,0,.6-1v-.79a.43.43,0,0,0-.62-.43,17,17,0,0,1-5.81.94,17,17,0,0,1-5.84-.94.43.43,0,0,0-.62.43Z"/><path class="cls-1" d="M8.7,30.67C8.82,28.18,10,28,10.46,28a19,19,0,0,0,5.33.65h.11a19.24,19.24,0,0,0,5.5-.79.69.69,0,0,0,.43-.85.66.66,0,0,0-.88-.43,17.91,17.91,0,0,1-5.16.71,14.31,14.31,0,0,1-4.88-.6h-.09a.68.68,0,0,0-.26-.06h0c-1.13,0-3.06.51-3.23,4-.06.85-1.19,1.59-1.62,1.79a.67.67,0,0,0-.31.91.64.64,0,0,0,.6.4.48.48,0,0,0,.28-.09c.26-.11,2.32-1.16,2.41-2.95Z"/><path class="cls-1" d="M.34,26.25a.42.42,0,0,0,.23.54,10.72,10.72,0,0,0,3.23.4h.09a10.66,10.66,0,0,0,3.29-.48.42.42,0,0,0,.28-.51.41.41,0,0,0-.54-.26,10.59,10.59,0,0,1-3.12.43A10,10,0,0,1,.85,26a.4.4,0,0,0-.51.23Z"/><path class="cls-1" d="M.34,27.41a.42.42,0,0,0,.23.54,10.72,10.72,0,0,0,3.23.4h.09a10.66,10.66,0,0,0,3.29-.48.41.41,0,0,0,.28-.51.41.41,0,0,0-.54-.26,10.59,10.59,0,0,1-3.12.43,10,10,0,0,1-2.95-.34.4.4,0,0,0-.51.23Z"/><path class="cls-1" d="M.85,28.35a.4.4,0,0,0-.51.23.42.42,0,0,0,.23.54,10.72,10.72,0,0,0,3.23.4h.09A10.66,10.66,0,0,0,7.17,29a.41.41,0,0,0,.28-.51.41.41,0,0,0-.54-.26,11.84,11.84,0,0,1-3.12.43,10,10,0,0,1-2.95-.34Z"/><path class="cls-1" d="M7.17,31.49A.43.43,0,0,0,7.46,31a.45.45,0,0,0-.54-.28,9.68,9.68,0,0,1-3.06.45H3.8a8.35,8.35,0,0,1-2.95-.37A.41.41,0,0,0,.34,31a.39.39,0,0,0,.23.51A10.06,10.06,0,0,0,3.8,32h.09a10.66,10.66,0,0,0,3.29-.48Z"/><path class="cls-1" d="M3.88,24.07c.79,0,1.42.11,1.42.26s-.62.28-1.42.28-1.42-.11-1.42-.28.65-.26,1.42-.26Zm3.88.28a.17.17,0,0,0,0-.11h0c0-.28-1.73-.54-3.86-.54S0,24,0,24.24H0a.17.17,0,0,0,0,.11v.48a.72.72,0,0,0,.37.6,9.72,9.72,0,0,0,3.51.51,8.75,8.75,0,0,0,3.51-.51.66.66,0,0,0,.37-.6Z"/><path class="cls-1" d="M0,32.66a.72.72,0,0,0,.37.6,10,10,0,0,0,3.51.48,9.56,9.56,0,0,0,3.51-.48.66.66,0,0,0,.37-.6v-.48c0-.23-.17-.31-.37-.26a10,10,0,0,1-3.51.57,10.11,10.11,0,0,1-3.51-.57c-.2-.06-.37,0-.37.26Z"/><path class="cls-1" d="M.6,30.27a10.54,10.54,0,0,0,3.2.4h.09a10.66,10.66,0,0,0,3.29-.48.41.41,0,0,0,.28-.51.43.43,0,0,0-.54-.26,13.42,13.42,0,0,1-3.12.43A8.46,8.46,0,0,1,.43,29.4a1.08,1.08,0,0,0,.17.88Z"/></g></g></svg>