<svg xmlns="http://www.w3.org/2000/svg" viewBox="0 0 15.25 25.39"><defs><style>.cls-1{fill:#fff;fill-rule:evenodd;}</style></defs><title>od</title><g id="Слой_2" data-name="Слой 2"><g id="Слой_1-2" data-name="Слой 1"><path class="cls-1" d="M14.85,15.36a7.87,7.87,0,0,1-2.78,1.81,14.75,14.75,0,0,1-3.17.71,3.42,3.42,0,0,1,.34.37c1.47,1.45,2.95,2.92,4.39,4.39a1.5,1.5,0,0,1,.34,1.7,1.74,1.74,0,0,1-1.64,1,1.61,1.61,0,0,1-1-.51C10.2,23.73,9.07,22.65,8,21.51c-.31-.34-.45-.26-.74,0C6.15,22.68,5,23.81,3.88,24.92a1.4,1.4,0,0,1-1.7.31,1.73,1.73,0,0,1-1-1.59,1.58,1.58,0,0,1,.54-1.08C3.17,21.12,4.62,19.67,6,18.23a3.82,3.82,0,0,0,.34-.34A9.8,9.8,0,0,1,1.1,16c-.17-.17-.37-.31-.54-.45a1.5,1.5,0,0,1-.23-2.13,1.52,1.52,0,0,1,2-.45,3.37,3.37,0,0,1,.43.26,8.61,8.61,0,0,0,9.55.09,2.46,2.46,0,0,1,.94-.48,1.47,1.47,0,0,1,1.67.68,1.38,1.38,0,0,1-.09,1.84Z"/><path class="cls-1" d="M7.65,0A6.42,6.42,0,1,1,1.22,6.41,6.42,6.42,0,0,1,7.65,0Zm0,9.58A3.15,3.15,0,1,0,4.48,6.46,3.15,3.15,0,0,0,7.65,9.58Z"/></g></g></svg>