<svg xmlns="http://www.w3.org/2000/svg" viewBox="0 0 36.88 38.58"><defs><style>.cls-1,.cls-2{fill:#b8bec4;}.cls-2,.cls-3{fill-rule:evenodd;}.cls-3{fill:#f4f8fd;}</style></defs><title>parts</title><g id="Слой_2" data-name="Слой 2"><g id="Слой_1-2" data-name="Слой 1"><path class="cls-1" d="M.77,0h20.1V7.23h-1.5V1.5H1.5V26.79H13.35v1.5H0V0Zm20.1,8.7V28.29h-6v-1.5h4.51V8.7Z"/><path class="cls-2" d="M10.8,11.71a2.36,2.36,0,0,1,2.55,1.73V9.58a2.15,2.15,0,0,1-.45-.17c-.54-.23-.51-.31-.51-1a.83.83,0,0,0-.57-.91,6.16,6.16,0,0,0-1.45,0,.78.78,0,0,0-.62.82c0,.65.09.82-.45,1s-.68.37-1,0c-.2-.23-.45-.6-.91-.57s-.71.37-.91.57a4.52,4.52,0,0,0-.37.37c-.57.71-.06,1.11.31,1.47s.26.57,0,1-.4.45-1,.45a.82.82,0,0,0-.88.62,8.21,8.21,0,0,0,0,1.45.81.81,0,0,0,.88.57c.65,0,.77-.06,1,.48a2.07,2.07,0,0,1,.2.54c.06.6-.82.68-.77,1.45,0,.43.4.71.6.91s.48.57.91.57.71-.37.91-.57c.4-.37.6-.2,1.08,0s.43.43.43,1a.81.81,0,0,0,.37.71l.26.14h1.36a.85.85,0,0,0,.31-.17c.71-.51,0-1.33.68-1.7a4.67,4.67,0,0,1,.62-.26V14.68a2.83,2.83,0,0,1-.45.88,2.37,2.37,0,1,1-3-3.57,3.79,3.79,0,0,1,.91-.28Zm4.05,7.6c.4,0,.68-.43.88-.6s.77-.62.54-1.22-1.16-.51-.45-1.81c.28-.57,1-.11,1.45-.4.31-.2.31-.43.4-.54V13.38c-.14-.23-.06-.26-.28-.45-.57-.48-1.28.23-1.62-.6a4.36,4.36,0,0,1-.23-.54c-.11-.62.79-.71.79-1.45,0-.45-.37-.71-.6-.94s-.48-.57-.85-.6h0Z"/><polygon class="cls-2" points="15.7 8.7 36.88 8.7 36.88 38.58 14.85 38.58 14.85 8.7 15.7 8.7"/><path class="cls-3" d="M25.57,21.32a2.34,2.34,0,0,1,2.64,2,2.44,2.44,0,0,1-.51,1.81,2.37,2.37,0,1,1-3-3.57,2.14,2.14,0,0,1,.88-.28Zm-.4,8.9h1.36a1.52,1.52,0,0,0,.31-.14c.71-.54,0-1.36.65-1.7a3.32,3.32,0,0,1,.68-.26c.51-.06.71.57,1.13.74.6.23,1-.34,1.19-.57s.79-.6.57-1.19-1.19-.51-.48-1.81c.31-.57,1-.14,1.45-.43s.34-.43.43-.51V23c-.14-.23-.09-.26-.28-.45-.6-.51-1.28.2-1.64-.62,0-.11-.17-.43-.2-.54-.11-.6.77-.68.79-1.45,0-.45-.37-.71-.6-.91s-.48-.57-.85-.62c-.79-.06-.88.79-1.45.79a1.71,1.71,0,0,1-.54-.17c-.57-.26-.51-.34-.51-1a.82.82,0,0,0-.57-.91,8.16,8.16,0,0,0-1.45,0,.81.81,0,0,0-.62.85c0,.65.09.79-.45,1s-.68.34-1,0c-.23-.2-.45-.57-.94-.57s-.68.4-.88.57a4.71,4.71,0,0,0-.37.4c-.57.68-.06,1.11.31,1.45s.26.57,0,1.08-.4.45-1,.45a.83.83,0,0,0-.88.6,8.16,8.16,0,0,0,0,1.45.79.79,0,0,0,.88.6c.65,0,.77-.06,1,.45a1.92,1.92,0,0,1,.2.57c.06.57-.82.65-.79,1.45,0,.4.43.68.62.88s.45.57.88.57a1.16,1.16,0,0,0,.94-.57c.37-.37.6-.2,1.08,0s.43.45.43,1a.83.83,0,0,0,.37.74Z"/></g></g></svg>