<svg xmlns="http://www.w3.org/2000/svg" viewBox="0 0 61.11 31.21"><defs><style>.cls-1{fill:#c7cbcf;fill-rule:evenodd;}</style></defs><title>pictures</title><g id="Слой_2" data-name="Слой 2"><g id="Слой_1-2" data-name="Слой 1"><path class="cls-1" d="M25.6,26.93a.81.81,0,0,1-.79.79H4.11a.79.79,0,0,1-.79-.79V13.27a.8.8,0,0,1,.79-.82H24.8a.82.82,0,0,1,.79.82ZM13.78,3.26a1.82,1.82,0,0,0,.68.14,1.68,1.68,0,0,0,.65-.14L20.83,9H8.08ZM28.09,9H23.22L16.13,1.9a.55.55,0,0,0,0-.2,1.7,1.7,0,1,0-3.4,0v.2L5.67,9H.82A.8.8,0,0,0,0,9.78V30.39a.82.82,0,0,0,.82.82H28.09a.82.82,0,0,0,.82-.82V9.78A.8.8,0,0,0,28.09,9Z"/><path class="cls-1" d="M19.56,15.28l-.26.23h0c-.85.74-1.73,1.47-2.66,2.15a.64.64,0,0,0-.94-.17l-.23.14a2.68,2.68,0,0,1-.48.26s0,0-.06,0c.28-.31.6-.62.88-1a.56.56,0,0,0-.68-.88c-.45.28-.94.54-1.39.77a7.49,7.49,0,0,1-2.35.91c-.71.06-.71,1.19,0,1.13a4.75,4.75,0,0,0,1.42-.37c-.11.14-.26.28-.37.43a.58.58,0,0,0,.31,1,13.2,13.2,0,0,1-3.91,1,.67.67,0,0,0-.62.74.66.66,0,0,0,.68.62H9a12.27,12.27,0,0,0,2-.34c-1.25.91-2.21,1.56-2.24,1.59a.67.67,0,0,0-.17.91.68.68,0,0,0,.91.26l7.26-3.86A23.54,23.54,0,0,0,15.14,23a.68.68,0,0,0,.06.77.67.67,0,0,0,.74.26,7,7,0,0,0,.85-.37l-.23.4a.72.72,0,0,0,.6,1h.11c.06,0,1.47-.23,2.27-.43a.71.71,0,0,0,.48-.85.69.69,0,0,0-.85-.48l-.71.17.82-1.5a.7.7,0,0,0-.17-.85.68.68,0,0,0-.82-.06c1-1.13,1.84-2.1,1.84-2.1a.65.65,0,0,0,0-.88.67.67,0,0,0-.85-.2l-1.13.6a7.7,7.7,0,0,0,.68-.68c.34-.34.74-.71,1.36-1.28l.26-.2a.68.68,0,0,0,.06-1,.7.7,0,0,0-1-.09Z"/><path class="cls-1" d="M39.29,25.26a1.42,1.42,0,1,1,0-2.83,1.42,1.42,0,1,1,0,2.83Zm0-5.41a4,4,0,1,0,4,4,4,4,0,0,0-4-4Z"/><path class="cls-1" d="M47.37,28.43a8.93,8.93,0,0,0-2.3-6.09c-.23-.23-.48-.48-.71-.68a5.65,5.65,0,0,1,.43,2.18,5.53,5.53,0,0,1-4.2,5.36h6.77Z"/><path class="cls-1" d="M39.29,15.76a1.43,1.43,0,1,1,1.42-1.45,1.45,1.45,0,0,1-1.42,1.45Zm-4-1.45a4,4,0,1,0,4-4,4,4,0,0,0-4,4Z"/><path class="cls-1" d="M44.82,14.34a5.57,5.57,0,0,1-1.7,4l9.95,0a9.76,9.76,0,0,1,3.15.51,5.34,5.34,0,0,0,2.27-4.42A5.44,5.44,0,0,0,53,9L40.59,9a5.56,5.56,0,0,1,4.22,5.36Z"/><path class="cls-1" d="M53,19.84H44.5a10.16,10.16,0,0,1,4.39,8.59v1.11H61.11V28.43a8.91,8.91,0,0,0-2.27-6.09A7.9,7.9,0,0,0,53,19.84Z"/></g></g></svg>