<svg xmlns="http://www.w3.org/2000/svg" viewBox="0 0 48.08 44.16"><defs><style>.cls-1{fill:#b8bec4;fill-rule:evenodd;}</style></defs><title>polygraph</title><g id="Слой_2" data-name="Слой 2"><g id="Слой_1-2" data-name="Слой 1"><path class="cls-1" d="M42,0H7C1.82.31-.13,3.12,0,8.25V15.9H1.62v26H3.27v2.24H8.79V41.92h24v2.24h5.56V41.92h2.61V37.45L48,33.08l.09-2.89-6.41,1.93c-.37.14-.28.26-.74.48V31.32L48,27l.09-2.89L41.68,26c-.37.14-.28.26-.74.48V25.34L48,21l.09-2.89L41.68,20c-.37.17-.28.26-.74.48V15.9h1ZM8.68,6.43h9.41v5H8.68Zm10.8,0h2V8.59h-2Zm0,3.29h2v2.13h-2Zm3.12,0h2v2.13h-2Zm0-3.17h2V8.7h-2ZM10,20.64h7.71v1.25h6.92V20.64h7.26v6H10Zm0,8h7.71v1.25h6.92V28.63h7.26v6H10Z"/></g></g></svg>