<svg xmlns="http://www.w3.org/2000/svg" viewBox="0 0 57.7 35.77"><defs><style>.cls-1,.cls-2{fill:#c7cbcf;}.cls-1{fill-rule:evenodd;}</style></defs><title>presents</title><g id="Слой_2" data-name="Слой 2"><g id="Слой_1-2" data-name="Слой 1"><path class="cls-1" d="M5.72,14.45l.4,3.15-3.6.45a4.83,4.83,0,0,1,1-1.9,5.21,5.21,0,0,1,2.24-1.7Zm9-1.3a5.4,5.4,0,0,1,4,1.11,5.35,5.35,0,0,1,1.39,1.62l-12,1.47-.4-3.29a5.54,5.54,0,0,1,3.34,1.13,5.34,5.34,0,0,1,3.6-2ZM7.13,25.88c-1.47-1.13-2.66-2-2.72-2.07a5.52,5.52,0,0,1-2-3.6l4-.51ZM12.94,30a.91.91,0,0,1-.71-.2c-.68-.51-1.7-1.3-2.81-2.15l-1-8.25,12.36-1.53a5.37,5.37,0,0,1-1.11,4c-.09.11-4.48,5.7-6.09,7.77a.86.86,0,0,1-.62.37ZM19.8,12.87a7.21,7.21,0,0,0-9,.09,7.21,7.21,0,0,0-3.94-.62,7.36,7.36,0,0,0-4.79,2.75c-4,4.9-1.53,10.32,1.39,13,.11.14,6.83,5.3,9.3,7.23a1.19,1.19,0,0,0,1.62-.2l7.26-9.27c1.7-2.38,3.77-8.7-1.84-13Z"/><path class="cls-2" d="M42.45,9.86h-.91l.11.48c.11.4.23.79.31,1.19.11-.51.28-1,.48-1.67Zm-.17,3.23.09.43L42,13.29l-.34.23,0-.4a6.78,6.78,0,0,1-.6-.37l.54.51-1-.14-.17,2.1h3.12l-.17-2.1h-.06l-.11.09-.06-.06-.54,0,.34-.54c-.23.14-.48.28-.71.45Z"/><path class="cls-1" d="M40.72,11.76l-.09-.06c.28.2.57.37.82.54a14.43,14.43,0,0,0-.4-1.59,5.27,5.27,0,0,1,.14.79l0,.54ZM36.84,9.24c-1.42-1.11-2.41-2.55-1.13-4.39A2.25,2.25,0,0,1,36.64,4a1.48,1.48,0,0,1,1.56.31,5.48,5.48,0,0,1,1.19,1.56A18.61,18.61,0,0,1,40.67,9l-.2-.74a27.35,27.35,0,0,0-1.93-4.68,7.78,7.78,0,0,0-2-2.55A1.81,1.81,0,0,0,35.11.68a2.3,2.3,0,0,0-1.25.74A4.4,4.4,0,0,0,33,2.86a3.76,3.76,0,0,0,.09,2.83A7,7,0,0,0,34.6,7.56a17,17,0,0,0,2.24,1.67Z"/><path class="cls-2" d="M40.72,11.76l-.09-.06c.28.2.57.37.82.54a14.43,14.43,0,0,0-.4-1.59,5.27,5.27,0,0,1,.14.79l0,.54ZM40,10.54l.48.31A17.68,17.68,0,0,0,38.82,6.2a4.62,4.62,0,0,0-1-1.36.83.83,0,0,0-.88-.23,1.6,1.6,0,0,0-.68.6c-1.11,1.64.14,2.95,1.56,3.91a15.59,15.59,0,0,0,1.36.88l.09,0,.77.51Zm-3.15-1.3c-1.42-1.11-2.41-2.55-1.13-4.39A2.25,2.25,0,0,1,36.64,4a1.48,1.48,0,0,1,1.56.31,5.48,5.48,0,0,1,1.19,1.56A18.61,18.61,0,0,1,40.67,9l-.2-.74a27.35,27.35,0,0,0-1.93-4.68,7.78,7.78,0,0,0-2-2.55A1.81,1.81,0,0,0,35.11.68a2.3,2.3,0,0,0-1.25.74A4.4,4.4,0,0,0,33,2.86a3.76,3.76,0,0,0,.09,2.83A7,7,0,0,0,34.6,7.56a17,17,0,0,0,2.24,1.67Zm5.44,3.86.09.43L42,13.29l.23-.17Zm-.6,0a6.78,6.78,0,0,1-.6-.37l-.2-.17a5.19,5.19,0,0,0-1.16-.71l-.48-.34c-.82-.54-1.64-1.08-2.3-1.47a17.11,17.11,0,0,1-2.78-2A8,8,0,0,1,32.47,6a4.21,4.21,0,0,1-.09-3.32,4.86,4.86,0,0,1,1-1.7A3.11,3.11,0,0,1,35,.05a2.4,2.4,0,0,1,1.9.43,8.06,8.06,0,0,1,2.18,2.78,25.87,25.87,0,0,1,2,4.82l.57,2.27c.11.4.23.79.31,1.19a7.42,7.42,0,0,0-.26,1.3Z"/><path class="cls-1" d="M42.79,11.48a16.36,16.36,0,0,1,1.81-4.85A7.19,7.19,0,0,1,46,4.84a1.62,1.62,0,0,1,1.64-.51,1.53,1.53,0,0,1,.65.43,4.94,4.94,0,0,1,.34.4,2.54,2.54,0,0,1,.54,2,3.53,3.53,0,0,1-1,1.7l-.57.48c-.11.06-.26.17-.4.26a20.11,20.11,0,0,0,2-1.25A8.61,8.61,0,0,0,50.7,7.05a4,4,0,0,0,.94-1.5,3.25,3.25,0,0,0-.09-1.87,4.81,4.81,0,0,0-1.13-2,1.88,1.88,0,0,0-.79-.54,2.12,2.12,0,0,0-2.07.71,11.86,11.86,0,0,0-2.18,2.92,27.85,27.85,0,0,0-2.89,7.43l.28-.2-.06,0Z"/><path class="cls-2" d="M42.79,11.48a16.36,16.36,0,0,1,1.81-4.85A7.19,7.19,0,0,1,46,4.84a1.62,1.62,0,0,1,1.64-.51,1.53,1.53,0,0,1,.65.43,4.94,4.94,0,0,1,.34.4,2.54,2.54,0,0,1,.54,2,3.53,3.53,0,0,1-1,1.7l-.57.48c-.11.06-.26.17-.4.26a20.11,20.11,0,0,0,2-1.25A8.61,8.61,0,0,0,50.7,7.05a4,4,0,0,0,.94-1.5,3.25,3.25,0,0,0-.09-1.87,4.81,4.81,0,0,0-1.13-2,1.88,1.88,0,0,0-.79-.54,2.12,2.12,0,0,0-2.07.71,11.86,11.86,0,0,0-2.18,2.92,27.85,27.85,0,0,0-2.89,7.43l.28-.2-.06,0Zm2.38-4.54a17.22,17.22,0,0,0-1.64,4c.48-.23,1.08-.54,1.64-.88a15.66,15.66,0,0,0,2-1.25,3.38,3.38,0,0,0,.51-.43,2.5,2.5,0,0,0,.82-1.33,1.9,1.9,0,0,0-.4-1.56c-.11-.11-.2-.23-.31-.34a1.44,1.44,0,0,0-.37-.26,1.07,1.07,0,0,0-1,.37,6.52,6.52,0,0,0-1.22,1.64Zm.48,4.22c-.54.28-1.11.57-1.64.88l-.11,0-.11.06c-.11.06-.26.09-.34.14l-.23.17-.09,0h0a.38.38,0,0,0-.14.17h0c-.26.14-.51.31-.77.48l-.57.4.06-.68A27.64,27.64,0,0,1,44.8,4.45a11.86,11.86,0,0,1,2.32-3.06A2.73,2.73,0,0,1,49.82.54a2.74,2.74,0,0,1,1,.74,5.79,5.79,0,0,1,1.3,2.21,3.78,3.78,0,0,1,.06,2.24,4.79,4.79,0,0,1-1,1.79A10.73,10.73,0,0,1,49.57,8.9a32.81,32.81,0,0,1-3.91,2.27Z"/><path class="cls-1" d="M28.65,8.22a1.75,1.75,0,0,1-.43.82,1.26,1.26,0,0,0-.23.31l.23.23a3.16,3.16,0,0,0,.77.57c2.49,1.47,4.56,1.62,7.43,1.81.91.06,1.73.2,2.64.31a12.36,12.36,0,0,0-1.5-.54,24.26,24.26,0,0,0-2.47-.6,21.85,21.85,0,0,1-4.42-1.3,5,5,0,0,1-2-1.62Z"/><path class="cls-2" d="M28.65,8.22a1.75,1.75,0,0,1-.43.82,1.26,1.26,0,0,0-.23.31l.23.23a3.16,3.16,0,0,0,.77.57c2.49,1.47,4.56,1.62,7.43,1.81.91.06,1.73.2,2.64.31a12.36,12.36,0,0,0-1.5-.54,24.26,24.26,0,0,0-2.47-.6,21.85,21.85,0,0,1-4.42-1.3,5,5,0,0,1-2-1.62Zm-.94.43c.23-.26.4-.48.31-1.28l-.11-.94.65.68c.26.26.43.48.6.68a4.07,4.07,0,0,0,1.79,1.45,18.08,18.08,0,0,0,4.28,1.25c.85.2,1.7.4,2.49.62a11.2,11.2,0,0,1,1.87.71,4.94,4.94,0,0,1,1.3.77l.74.68-4.48-.6-.79-.06c-2.95-.2-5.07-.34-7.68-1.9a3.9,3.9,0,0,1-.91-.68,1.07,1.07,0,0,0-.34-.26l-.26-.11.11-.28a2.53,2.53,0,0,1,.43-.74Z"/><path class="cls-1" d="M55.75,10a3.68,3.68,0,0,1-.06-1.28h0c-3.69-.28-5.64.82-7.91,2.1a25.09,25.09,0,0,1-2.64,1.42,24,24,0,0,0,4-1.25l.74-.28a14.16,14.16,0,0,1,3.4-.91,6.47,6.47,0,0,1,2.44.2Z"/><path class="cls-2" d="M55.75,10a3.68,3.68,0,0,1-.06-1.28h0c-3.69-.28-5.64.82-7.91,2.1a25.09,25.09,0,0,1-2.64,1.42,24,24,0,0,0,4-1.25l.74-.28a14.16,14.16,0,0,1,3.4-.91,6.47,6.47,0,0,1,2.44.2Zm.6-1.22a1.76,1.76,0,0,0,.4,1.62l1,1.11-1.33-.6a6,6,0,0,0-3-.48,14.19,14.19,0,0,0-3.23.88l-.74.28a18.7,18.7,0,0,1-6,1.53l-.11.09-.06-.06-.54,0,.34-.54a.38.38,0,0,1,.14-.17h0l.09,0,.23-.17c.09-.06.23-.09.34-.14l.11-.06a25,25,0,0,0,3.6-1.79C49.91,8.9,52,7.71,56.09,8.1l.31,0Z"/><path class="cls-2" d="M34.66,15.84H49.54a3.3,3.3,0,0,1,2.35,1,3.37,3.37,0,0,1,1,2.35V32.45a3.37,3.37,0,0,1-1,2.35,3.3,3.3,0,0,1-2.35,1H34.66a3.3,3.3,0,0,1-2.35-1,3.37,3.37,0,0,1-1-2.35V19.16a3.37,3.37,0,0,1,1-2.35,3.3,3.3,0,0,1,2.35-1Zm14.88,2.55H34.66a.79.79,0,0,0-.57.23.85.85,0,0,0-.23.54V32.45a.92.92,0,0,0,.23.54.79.79,0,0,0,.57.23H49.54a.79.79,0,0,0,.57-.23.92.92,0,0,0,.23-.54V19.16a.85.85,0,0,0-.23-.54.79.79,0,0,0-.57-.23Z"/></g></g></svg>