<svg id="icon-shirts" viewBox="0 0 136.8 145.3" width="100%" height="100%">

    <title>
        shirts
    </title>
    <g id="Слой_2" data-name="Слой 2">
        <g id="Слой_1-2" data-name="Слой 1">
            <path class="cls-1" d="M47.82 7.57a8.84 8.84 0 0 0 8.48-6.15 32 32 0 0 1-8.48 1 32.12 32.12 0 0 1-8.48-1 8.89 8.89 0 0 0 8.48 6.15z"></path>
            <path class="cls-1" d="M92.72 12.08a2.12 2.12 0 0 0-1.08-1.19L74.5 3a84.85 84.85 0 0 0-11.14-3h-.4a2 2 0 0 0-2 1.59 13.5 13.5 0 0 1-13.14 10.54A13.52 13.52 0 0 1 34.64 1.59a2 2 0 0 0-2-1.59h-.4a86 86 0 0 0-11.09 3L4 10.89a2.12 2.12 0 0 0-1.08 1.19A2.07 2.07 0 0 0 3 13.66l7.46 14.71a2 2 0 0 0 1.81 1.11 1.83 1.83 0 0 0 .57-.09l8.28-2.47v49.36a2.05 2.05 0 0 0 2 2h49.33a2 2 0 0 0 2-2V27l8.28 2.44a2.12 2.12 0 0 0 .57.09 2 2 0 0 0 1.81-1.11l7.46-14.71a2.07 2.07 0 0 0 .11-1.59z"></path>
            <path class="cls-1" d="M42.8 135.38c-12.53 0-23.41-2.13-30.22-6-2.35 1.13-9.72 4.82-11.68 7.14a5.47 5.47 0 0 0-.9 2.35 7.66 7.66 0 0 0 .54 1.87c16.58 7 25.85 4.34 35.12 2.49 9.84-1.92 18.79-8.23 18.79-8.23a1.83 1.83 0 0 1 .23-.26c-4.05.4-8.05.62-11.88.62z"></path>
            <path class="cls-1" d="M43.06 97.88h-.11c-.14-1.56-2-2.81-4.37-2.81s-4.34 1.34-4.34 2.93v.09c-22 2.3-21.15 17.72-20.69 26a26 26 0 0 1-.11 3.83c9 5.13 25.57 7 43.65 4.85a71.86 71.86 0 0 1 7.94-4.54s.28-8.56 0-11.4c-1.47-14.85-14.2-18.28-22-19z"></path>
            <path class="cls-1" d="M101.08 101.2c-1.33 0-2.1.71-2.1 2.35v6.29c0 1.62.77 2.35 2.1 2.35s2.13-.74 2.13-2.35v-6.29c0-1.64-.79-2.35-2.13-2.35z"></path>
            <path class="cls-1" d="M119.85 110.07c0 3.88-2.69 5.36-6 5.36-4.05 0-5.61-2.49-5.61-4.48 0-1.08.43-1.36 1.73-1.36 1.53 0 1.9.34 1.9 1.25 0 1.11 1 1.36 2.13 1.36 1.59 0 2.18-.6 2.18-2.13v-.45c0-1.59-1-1.9-2.3-1.9-.79 0-1-.71-1-1.42s.26-1.42 1-1.42 1.84-.11 1.84-2c0-1.36-.77-1.7-1.73-1.7-1.16 0-1.76.28-1.76 1.22s-.37 1.33-1.73 1.33c-1.7 0-1.93-.34-1.93-1.47 0-1.87 1.33-4.25 5.41-4.25 3 0 5.27 1.08 5.27 4.28 0 1.73-.62 3.34-1.81 3.88a3.45 3.45 0 0 1 2.41 3.49v.45zm-12.93-.23c0 4.05-2.58 5.58-5.84 5.58s-5.81-1.53-5.81-5.58v-6.29c0-4.08 2.55-5.58 5.81-5.58s5.84 1.5 5.84 5.58zM136 92.72c-6.8-3.06-10.57-12.7-8.84-23.22a1.42 1.42 0 0 0-.31-1.11 1.3 1.3 0 0 0-1-.48h-5.56a1.38 1.38 0 0 0-1.36 1.22 11.56 11.56 0 0 1-23 0 1.38 1.38 0 0 0-1.36-1.22H89a1.3 1.3 0 0 0-1 .48 1.42 1.42 0 0 0-.31 1.11c1.73 10.52-2 20.15-8.84 23.22A1.38 1.38 0 0 0 78 94v49.27a1.34 1.34 0 0 0 1.36 1.36h56.07a1.34 1.34 0 0 0 1.33-1.36V94a1.38 1.38 0 0 0-.79-1.25z"></path>
            <path class="cls-2" d="M59.64 34.81a8.07 8.07 0 1 0-8.16-8.05 8.13 8.13 0 0 0 8.16 8.05z"></path>
            <path class="cls-1" d="M61.8 27.33a2.76 2.76 0 1 1-5.5 0V26a.76.76 0 0 1 .77-.77h4a.76.76 0 0 1 .74.77zm1-3.63h-7.47a.76.76 0 0 0-.74.77v2.66A4.79 4.79 0 0 0 59 31.95a4.79 4.79 0 0 0 4.45-4.82v-2.67a.74.74 0 0 0-.74-.77z"></path>
            <path class="cls-1" d="M65.74 27.13a7.34 7.34 0 0 1-1.87 4.82 6.83 6.83 0 0 1-2.1 1.62 6.08 6.08 0 0 1-2.72.62 6.16 6.16 0 0 1-2.72-.62 6.83 6.83 0 0 1-2.1-1.62 7.34 7.34 0 0 1-1.87-4.82v-2.67a3 3 0 0 1 3-3h7.43a3 3 0 0 1 3 3zM60.07 17c-16.19.34-8.73 8-8.11 17.21.54 2.58 10.12 7 13 .43C67 30.1 77.19 20.47 60.07 17z"></path>
        </g>
    </g>
</svg>