<svg xmlns="http://www.w3.org/2000/svg" viewBox="0 0 85.33 27.77"><defs><style>.cls-1{fill:#c7cbcf;}.cls-1,.cls-2{fill-rule:evenodd;}.cls-2{fill:#dfe6eb;}</style></defs><title>shirts</title><g id="Слой_2" data-name="Слой 2"><g id="Слой_1-2" data-name="Слой 1"><path class="cls-1" d="M70.1,3.17A3,3,0,0,0,73,1.11a10.72,10.72,0,0,1-2.86.34,10.79,10.79,0,0,1-2.89-.34A3,3,0,0,0,70.1,3.17Z"/><path class="cls-1" d="M85.29,4.71a.72.72,0,0,0-.37-.4L79.11,1.62a33.47,33.47,0,0,0-3.77-1h-.11a.68.68,0,0,0-.68.54A4.56,4.56,0,0,1,70.1,4.73a4.59,4.59,0,0,1-4.48-3.57A.67.67,0,0,0,65,.62h-.14a35.14,35.14,0,0,0-3.77,1L55.25,4.31a.72.72,0,0,0-.37.4.7.7,0,0,0,0,.54l2.52,5a.7.7,0,0,0,.62.37.48.48,0,0,0,.2,0l2.81-.82V26.48a.69.69,0,0,0,.68.68h16.7a.69.69,0,0,0,.68-.68V9.75l2.81.82a.48.48,0,0,0,.2,0,.7.7,0,0,0,.62-.37l2.52-5a.7.7,0,0,0,0-.54Z"/><path class="cls-1" d="M15.36,24.21c-4.51,0-8.39-.77-10.86-2.15-.82.43-3.49,1.73-4.2,2.58a2.24,2.24,0,0,0-.31.82,3.42,3.42,0,0,0,.2.68c6,2.49,9.27,1.56,12.59.91a20.39,20.39,0,0,0,6.75-3l.09-.09c-1.45.14-2.89.23-4.25.23Z"/><path class="cls-1" d="M15.45,10.74h0c-.06-.54-.74-1-1.56-1s-1.56.48-1.56,1v0c-7.91.82-7.6,6.35-7.43,9.35a6.68,6.68,0,0,1-.06,1.36c3.23,1.84,9.18,2.52,15.68,1.73a27.41,27.41,0,0,1,2.86-1.62s.09-3.06,0-4.08c-.54-5.33-5.1-6.58-7.91-6.83Z"/><path class="cls-1" d="M36.28,11.93c-.48,0-.77.26-.77.85v2.27c0,.57.28.85.77.85s.77-.28.77-.85V12.78c0-.6-.31-.85-.77-.85Z"/><path class="cls-1" d="M43,15.14c0,1.39-1,1.9-2.15,1.9-1.45,0-2-.88-2-1.59,0-.4.17-.48.62-.48s.68.11.68.43.37.51.77.51c.57,0,.77-.23.77-.77V15c0-.57-.34-.68-.79-.68s-.4-.26-.4-.51.09-.51.4-.51.65-.06.65-.74c0-.48-.28-.6-.62-.6s-.62.09-.62.43-.14.48-.62.48-.71-.14-.71-.54c0-.65.48-1.53,2-1.53,1.08,0,1.9.4,1.9,1.56a1.48,1.48,0,0,1-.65,1.39A1.23,1.23,0,0,1,43,15v.17Zm-4.65-.09a1.83,1.83,0,0,1-2.07,2,1.84,1.84,0,0,1-2.1-2V12.78a1.86,1.86,0,0,1,2.1-2,1.85,1.85,0,0,1,2.07,2ZM48.81,8.9C46.35,7.8,45,4.34,45.64.57a.51.51,0,0,0-.11-.4A.46.46,0,0,0,45.16,0h-2a.51.51,0,0,0-.48.43,4.13,4.13,0,0,1-4.11,3.74A4.18,4.18,0,0,1,34.41.43.49.49,0,0,0,33.93,0h-2a.46.46,0,0,0-.37.17.51.51,0,0,0-.11.4c.62,3.77-.74,7.23-3.17,8.33a.5.5,0,0,0-.28.45V27a.5.5,0,0,0,.48.48H48.61A.5.5,0,0,0,49.1,27V9.35a.5.5,0,0,0-.28-.45Z"/><path class="cls-2" d="M74.1,12.42a2.74,2.74,0,1,0-2.78-2.72,2.75,2.75,0,0,0,2.78,2.72Z"/><path class="cls-1" d="M74.83,9.86a.94.94,0,1,1-1.87,0V9.41a.25.25,0,0,1,.26-.26h1.36a.25.25,0,0,1,.26.26Zm.31-1.22H72.62a.25.25,0,0,0-.26.26v.91a1.52,1.52,0,1,0,3,0V8.9a.25.25,0,0,0-.26-.26Z"/><path class="cls-1" d="M76.17,9.81a2.41,2.41,0,0,1-.65,1.64,2.24,2.24,0,0,1-.71.54,2,2,0,0,1-.91.23A2.17,2.17,0,0,1,73,12a2.61,2.61,0,0,1-.71-.54,2.53,2.53,0,0,1-.62-1.64V8.9a1,1,0,0,1,1-1h2.52a1,1,0,0,1,1,1ZM74.24,6.38c-5.47.11-3,2.72-2.75,5.84.17.88,3.43,2.35,4.39.14.68-1.53,4.17-4.79-1.64-6Z"/></g></g></svg>