<svg xmlns="http://www.w3.org/2000/svg" viewBox="0 0 77.8 32.64"><defs><style>.cls-1{fill:#c7cbcf;fill-rule:evenodd;}</style></defs><title>souvenirs_page</title><g id="Слой_2" data-name="Слой 2"><g id="Слой_1-2" data-name="Слой 1"><path class="cls-1" d="M39.54,3.12A3.7,3.7,0,0,0,43.05.6,14,14,0,0,1,39.54,1,13.79,13.79,0,0,1,36,.6a3.69,3.69,0,0,0,3.49,2.52Z"/><path class="cls-1" d="M58.07,5a.77.77,0,0,0-.45-.48L50.56,1.22A34.21,34.21,0,0,0,46,0a.36.36,0,0,0-.17,0A.82.82,0,0,0,45,.65,5.59,5.59,0,0,1,39.54,5,5.56,5.56,0,0,1,34.12.65.84.84,0,0,0,33.3,0a.36.36,0,0,0-.17,0,32.14,32.14,0,0,0-4.59,1.19L21.45,4.51A.73.73,0,0,0,21,5a.87.87,0,0,0,0,.65l3.09,6.07a.82.82,0,0,0,.74.45.78.78,0,0,0,.26,0l3.4-1V31.49a.83.83,0,0,0,.85.82H49.71a.85.85,0,0,0,.85-.82V11.11l3.4,1a.78.78,0,0,0,.26,0,.82.82,0,0,0,.74-.45L58,5.64a.87.87,0,0,0,0-.65ZM44.44,7.71A3.33,3.33,0,1,1,41,11.06a3.38,3.38,0,0,1,3.4-3.34Z"/><path class="cls-1" d="M45.32,11.28a1.14,1.14,0,1,1-2.27,0v-.57a.31.31,0,0,1,.31-.31H45a.31.31,0,0,1,.31.31Zm.4-1.5H42.65a.31.31,0,0,0-.31.31V11.2a1.85,1.85,0,1,0,3.69,0V10.09a.31.31,0,0,0-.31-.31Z"/><path class="cls-1" d="M46.93,11.2a3,3,0,0,1-.77,2,2.93,2.93,0,0,1-.88.68,2.44,2.44,0,0,1-1.11.26,2.65,2.65,0,0,1-1.13-.26,2.82,2.82,0,0,1-.85-.68,2.94,2.94,0,0,1-.79-2V10.09a1.23,1.23,0,0,1,1.25-1.22h3.06a1.21,1.21,0,0,1,1.22,1.22ZM44.58,7c-6.66.14-3.6,3.29-3.32,7.09.2,1.08,4.17,2.89,5.36.17.82-1.87,5-5.84-2-7.26Z"/><path class="cls-1" d="M60,19.73v2a9.05,9.05,0,0,0,.23,2h-.91a2,2,0,1,1,0-4Zm14.91,8.5a8.37,8.37,0,0,0,1.45-1.73,8.76,8.76,0,0,0,1.42-4.79V16.07H60v2.1h-.68a3.54,3.54,0,1,0,0,7.09h1.42a10.43,10.43,0,0,0,.65,1.25,10.63,10.63,0,0,0,1.45,1.73H74.94Z"/><path class="cls-1" d="M66.55,29.91H77.29v.17a2.18,2.18,0,0,1-2.18,2.15H62.69a2.15,2.15,0,0,1-2.15-2.15v-.17Z"/><path class="cls-1" d="M5,14.29,5.29,17l-3.12.4A4.46,4.46,0,0,1,3,15.76,4.64,4.64,0,0,1,5,14.29Zm7.82-1.13a4.69,4.69,0,0,1,3.49,1,5.12,5.12,0,0,1,1.22,1.39l-10.4,1.3-.37-2.86a4.87,4.87,0,0,1,2.92,1,4.74,4.74,0,0,1,3.15-1.76ZM6.2,24.21,3.85,22.39a4.66,4.66,0,0,1-1.79-3.12l3.46-.43Zm5,3.6a.81.81,0,0,1-.62-.17L8.18,25.77l-.88-7.14L18,17.29a4.71,4.71,0,0,1-1,3.46c-.09.11-3.88,5-5.3,6.75a.77.77,0,0,1-.54.31Zm6-14.91a6.32,6.32,0,0,0-4.62-1.28A6.4,6.4,0,0,0,9.4,13,6.46,6.46,0,0,0,6,12.44a6.4,6.4,0,0,0-4.17,2.38C-1.65,19.11.47,23.78,3,26.16l8.08,6.26a1,1,0,0,0,1.39-.17c1.67-2.15,6.21-7.94,6.29-8.05,1.47-2.07,3.29-7.54-1.59-11.31Z"/></g></g></svg>