<svg xmlns="http://www.w3.org/2000/svg" viewBox="0 0 46.06 28.93"><defs><style>.cls-1{fill:#d0cfcf;fill-rule:evenodd;}</style></defs><title>souvenirs</title><g id="Слой_2" data-name="Слой 2"><g id="Слой_1-2" data-name="Слой 1"><path class="cls-1" d="M30.18,3.79a1.71,1.71,0,0,1,2.38-.57.86.86,0,0,1,.2.14c.06,0,0,.06,0,.06a2.16,2.16,0,0,0-.6.09,4,4,0,0,0-.62.23,2.71,2.71,0,0,0-1.19,1.79c0,.09,0,.2-.14.09a1.58,1.58,0,0,1,0-1.81ZM31.85,6.4c-.06,0-.06-.06-.06-.09a1.5,1.5,0,0,1,.51-1.22l.2-.09a1.54,1.54,0,0,1,.77.09s.06,0,0,.06a1.12,1.12,0,0,1-.17.43,1.69,1.69,0,0,1-1.28.82ZM37,8.63a18.16,18.16,0,0,1,1.76,4.17.3.3,0,0,1,0,.23c-.31.94-.31,1.73-.45,1.81s-.88-.31-1.93-.43a.43.43,0,0,1-.26-.11,12.35,12.35,0,0,1-2.61-2.89c-.06-.11,0-.14.06-.17a5.79,5.79,0,0,0,2.15-2.07,6.19,6.19,0,0,0,.6-1.33s0-.11.11,0a7.8,7.8,0,0,1,.54.79Zm8.31,3.54a3.87,3.87,0,0,0-5.16-1.11l-.09.09c-.06,0-.17.11-.2,0a18.2,18.2,0,0,0-1.53-3.29,13,13,0,0,0-1.76-2.35,5.75,5.75,0,0,0-2.75-4.28A5.81,5.81,0,0,0,25.93,9.4a.34.34,0,0,1,.06.43c-1.3,2.1-4.08,6.69-4.56,7.48-.09.14-.26.06-.26.06l-1.39-.85a1.13,1.13,0,0,0-1.59.4,1.15,1.15,0,0,0,.37,1.59l1.39.85a.16.16,0,0,1,.09.26c-.11.2-.4.65-.54.88s-.2,0-.2,0l-1.42-.88a1.21,1.21,0,0,0-1.62.4,1.17,1.17,0,0,0,.4,1.59l1.42.88a.16.16,0,0,1,.06.23c-.14.26-.4.68-.54.91a.14.14,0,0,1-.2,0L16,22.78a1.16,1.16,0,0,0-1.19,2s.94.57,1.42.88c.17.09.06.2.06.2-.65,1.11.23,1.67,1.33,2.35a3.82,3.82,0,0,0,1.73.74,1.12,1.12,0,0,0,1-.65S27.4,16.54,30.1,12.12a.27.27,0,0,1,.28-.17,4.41,4.41,0,0,0,1.36-.09c.06,0,.17,0,.23.06a12.78,12.78,0,0,0,2.18,2.72c.11.11,0,.17,0,.23A3.86,3.86,0,0,0,32.87,20a4.37,4.37,0,0,0,2.21,1.93c1.7.77,7.54,1.56,8.33,1s2.61-6.07,2.64-8a4.44,4.44,0,0,0-.79-2.81Z"/><path class="cls-1" d="M5,2.68l.34,2.75-3.12.4A4.68,4.68,0,0,1,3,4.16,4.64,4.64,0,0,1,5,2.68Zm7.82-1.13a4.82,4.82,0,0,1,3.49,1,5.23,5.23,0,0,1,1.22,1.42L7.08,5.2,6.71,2.34a4.72,4.72,0,0,1,2.92,1,4.77,4.77,0,0,1,3.15-1.79ZM6.2,12.63,3.85,10.82A4.79,4.79,0,0,1,2.06,7.7l3.46-.45Zm5,3.6a.81.81,0,0,1-.62-.17c-.57-.45-1.47-1.13-2.44-1.9L7.31,7,18,5.69a4.71,4.71,0,0,1-1,3.46c-.09.11-3.88,5-5.3,6.77a.88.88,0,0,1-.54.31Zm6-14.91A6.32,6.32,0,0,0,12.58,0,6.16,6.16,0,0,0,9.4,1.41a6.29,6.29,0,0,0-7.6,1.81C-1.65,7.5.47,12.18,3,14.56c.11.11,5.92,4.62,8.08,6.26a1,1,0,0,0,1.39-.17c1.67-2.13,6.21-7.94,6.29-8.05,1.47-2.07,3.29-7.54-1.59-11.28Z"/></g></g></svg>