<svg xmlns="http://www.w3.org/2000/svg" viewBox="0 0 21.26 17.01"><defs><style>.cls-1{fill:#fefefe;}</style></defs><title>tw</title><g id="Слой_2" data-name="Слой 2"><g id="Слой_1-2" data-name="Слой 1"><path class="cls-1" d="M21.26,2a9,9,0,0,1-2.49.68A4.35,4.35,0,0,0,20.69.31a8.66,8.66,0,0,1-2.78,1A4.45,4.45,0,0,0,14.71,0a4.33,4.33,0,0,0-4.34,4.31,3.73,3.73,0,0,0,.11,1,12.53,12.53,0,0,1-9-4.48A4.21,4.21,0,0,0,.91,2.95,4.26,4.26,0,0,0,2.83,6.52,4.7,4.7,0,0,1,.85,6V6A4.13,4.13,0,0,0,1.16,7.6a4.44,4.44,0,0,0,3.2,2.66,5.22,5.22,0,0,1-1.16.14,4,4,0,0,1-.82-.09,4.38,4.38,0,0,0,4.08,3A8.8,8.8,0,0,1,1,15.14a6.33,6.33,0,0,1-1-.06A12.48,12.48,0,0,0,6.69,17,12.1,12.1,0,0,0,18.79,7.4a11.91,11.91,0,0,0,.31-2.61,3.43,3.43,0,0,0,0-.54A8.2,8.2,0,0,0,21.26,2Z"/></g></g></svg>