<svg xmlns="http://www.w3.org/2000/svg" viewBox="0 0 23.39 13.69"><defs><style>.cls-1{fill:#fefefe;}</style></defs><title>vk</title><g id="Слой_2" data-name="Слой 2"><g id="Слой_1-2" data-name="Слой 1"><path class="cls-1" d="M23.21,1A6.81,6.81,0,0,0,20.69.81a16,16,0,0,0-2.52.11,14.79,14.79,0,0,0-1.5,2.75c-.79,1.53-1.79,3-2.41,3-.82,0-.62-2.52-.57-4.37,0-1.22-.17-1.62-.34-1.73A7.92,7.92,0,0,0,11.73,0s-3.51-.28-4,1.25c.68.09,1.81-.11,1.39,4.59,0,.23-.54,2.18-2.18-.45C6.49,4.75,4.93.84,4.39.81,2.55.76.76.7.14,1s.79,3,3.09,6.66c1.9,3,3.91,5.27,7.34,5.87a8.88,8.88,0,0,0,2.89-.11c.34-.2-.09-2.75,1.13-3,.57-.09,2.64,2.66,3.46,3a9.07,9.07,0,0,0,2.64.23c1.16-.06,2.49.09,2.64-.71.28-1.76-3.57-4.05-3.69-5.16C19.56,7,21.06,5.58,21.82,4.5c.94-1.33,2-2.95,1.39-3.46Z"/></g></g></svg>