<svg xmlns="http://www.w3.org/2000/svg" viewBox="0 0 52.39 27.03"><defs><style>.cls-1,.cls-2{fill:#7c8b99;}.cls-1{fill-rule:evenodd;}</style></defs><title>watched</title><g id="Слой_2" data-name="Слой 2"><g id="Слой_1-2" data-name="Слой 1"><path class="cls-1" d="M30,5.8c-1.87.11-2,1.53-2.66,2.75l-1.76,3.63c-.91,1.9-.68,2.35-.68,4.68,0,1.76-.09,3.66,0,5.39a13.66,13.66,0,0,1,9-.51,11.3,11.3,0,0,0,1.16.4v-6c1.5,0,1.33-1.39,1.33-2.24V6.68c0-1.19.06-2.49,0-3.69L31.86,3C29.91,3,30,3.53,30,5.8Z"/><path class="cls-1" d="M42.21,16.14v6c.54-.11,1.16-.45,2.35-.68a13.34,13.34,0,0,1,6.69.37,10.5,10.5,0,0,0,1.11.4c0-1.19.06-6.66,0-8a5.27,5.27,0,0,0-.68-2c-.6-1.22-1.13-2.44-1.76-3.63C49.24,7.19,49,5.85,47.25,5.8,47.28,4,47.57,3,45.52,3,44,3,42.43,3,40.9,3l0,10.83c0,1.28,0,2.24,1.33,2.3Z"/><path class="cls-1" d="M25.74,25.5c0-.51.17-.6.57-.79a12.53,12.53,0,0,1,6.07-.37c.57.09,1.79.4,1.93.79.48,1.53-7,1.81-8.56.37Zm-.79-2.61c0,2.78-.34,3,.94,3.57,2,.77,7.46.85,9-.4.31-.26.23-.51.23-.94,0-.79,0-1.59,0-2.35a12.41,12.41,0,0,0-10.15.11Z"/><path class="cls-1" d="M51.56,25.5c-1.22,1.28-7.43,1.3-8.56,0-.6-1.33,5.58-1.84,8-.79.4.17.65.26.6.79Zm-9.33-2.72c-.06.74,0,1.53,0,2.27,0,1,.09,1,.88,1.39,1.93.79,7.29.91,9-.34.31-.26.26-.4.26-.91V22.92a12.35,12.35,0,0,0-10.12-.14Z"/><path class="cls-1" d="M38.44,3c-1.25.28-.91,1.39-.94,2.89v7.6c0,.57-.11,1.33.2,1.76a1.11,1.11,0,0,0,1.33.45c1-.31.77-1.87.77-3V5.29a3.71,3.71,0,0,0-.11-1.7A1.11,1.11,0,0,0,38.44,3Z"/><path class="cls-1" d="M41,2.57H46C46-.33,46.46,0,43.54,0S41-.33,41,2.57Z"/><path class="cls-1" d="M31.29,2.57h5.07C36.11-.21,37.11,0,33.87,0c-3,0-2.55-.37-2.58,2.55Z"/><path class="cls-2" d="M16.53,4.58a33.18,33.18,0,0,1-3.06,2.55,6.84,6.84,0,0,1,2.18,2.24,8.09,8.09,0,0,1,1,4.2,8.18,8.18,0,0,1-1,3.91,7.73,7.73,0,0,1-2.15,2.32,26.27,26.27,0,0,1,2.3,2.83l-1.36,1C11,18.78,6.72,16.29,2.61,13.88c0,0-2.38-1.39-2.61-1.53l1.53-.65A68.15,68.15,0,0,0,8.9,8.09a31.92,31.92,0,0,0,6.43-4.73ZM14.88,13.2l0,.09.62.62a1.38,1.38,0,0,0,0-.34c0-.34,0-.68-.06-1l-.62.62Zm-.4,4a2.74,2.74,0,0,1-1.79-1.33A4.83,4.83,0,0,1,12,13.11h0A4.86,4.86,0,0,1,13,10.53a2.53,2.53,0,0,1,1.45-1,6.14,6.14,0,0,0-2-1.73c-.88.62-1.81,1.19-2.75,1.73a59,59,0,0,1-6,3,42.6,42.6,0,0,1,9,6.41,7.12,7.12,0,0,0,1.79-1.79Zm-.43-3.69,0-.34.06-.37,1.25-1.28a8.12,8.12,0,0,0-.43-1.16,1.53,1.53,0,0,0-1.25.71,4.12,4.12,0,0,0-.77,2.1h0a3.82,3.82,0,0,0,.54,2.24,1.74,1.74,0,0,0,1.28,1A.39.39,0,0,0,15,16.2a8.75,8.75,0,0,0,.4-1.22l-1.33-1.3Z"/><path class="cls-1" d="M15.59,14.39a1,1,0,0,0,.94-1.11,1,1,0,0,0-.94-1.11,1,1,0,0,0-.94,1.11,1,1,0,0,0,.94,1.11Z"/><path class="cls-1" d="M14.71,13.93a.7.7,0,1,0-.77-.68.73.73,0,0,0,.77.68Z"/></g></g></svg>