<svg xmlns="http://www.w3.org/2000/svg" viewBox="0 0 91.28 172.25"><defs><style>.cls-1,.cls-2{fill:#b3c0d1;}.cls-1{fill-rule:evenodd;}</style></defs><title>watched</title><g id="Слой_2" data-name="Слой 2"><g id="Слой_1-2" data-name="Слой 1"><path class="cls-1" d="M17,19.3c-6.21.43-6.63,5.13-8.79,9.1L2.39,40.47C-.7,46.82.12,48.32.12,56.06c0,5.84-.28,12.1,0,17.86,9.21-3.49,20-4.9,29.82-1.67a38.72,38.72,0,0,0,3.88,1.28l-.06-19.81c5-.14,4.45-4.62,4.45-7.46l0-24c0-4,.2-8.25.09-12.27L23.11,10c-6.55,0-6.18,1.73-6.09,9.27Z"/><path class="cls-1" d="M57.49,53.71V73.55c1.79-.4,3.83-1.5,7.8-2.3a44.85,44.85,0,0,1,22.2,1.28c1.33.43,2.47,1,3.69,1.36.11-4.05.2-22.22,0-26.65-.14-2.66-1.19-4.62-2.24-6.75-2-4.05-3.74-8.11-5.78-12.1-2.27-4.45-3.06-8.9-8.87-9.07.06-6,1-9.3-5.78-9.3-5.13,0-10.23-.14-15.34,0L53.07,46c0,4.25.09,7.54,4.42,7.71Z"/><path class="cls-1" d="M2.75,84.81c-.17-1.76.51-2,1.87-2.64,5-2.27,14.77-2.27,20.13-1.3,1.93.34,6,1.33,6.41,2.72,1.64,5.07-23.22,6-28.4,1.22ZM.12,76.13C.2,85.37-1.07,86.19,3.24,87.92c6.49,2.61,24.72,2.92,29.85-1.3,1-.79.74-1.62.71-3.12,0-2.55.09-5.22,0-7.77-11.68-4.82-22.25-4.45-33.68.4Z"/><path class="cls-1" d="M88.53,84.78c-4.08,4.2-24.69,4.37-28.4,0-2-4.48,18.54-6.09,26.39-2.69,1.39.6,2.21.94,2,2.69Zm-31-9c-.14,2.41,0,5.07,0,7.54,0,3.2.28,3.51,2.92,4.59,6.38,2.61,24.21,3.06,29.88-1.16,1.08-.79.88-1.3.88-2.95v-7.6C81,70.86,68,71.45,57.52,75.73Z"/><path class="cls-1" d="M45,10.17c-4.2.91-3.06,4.65-3.15,9.61V45c0,1.84-.37,4.45.68,5.87a3.78,3.78,0,0,0,4.39,1.47c3.46-1,2.58-6.26,2.58-10.06V17.57c0-2,.45-4-.37-5.64A3.67,3.67,0,0,0,45,10.17Z"/><path class="cls-1" d="M53.3,8.52H70.13C70-1.06,71.64,0,61.83,0,51.77,0,53.55-1.08,53.3,8.52Z"/><path class="cls-1" d="M21.18,8.52l16.89.06C37.17-.66,40.45,0,29.71,0c-10,0-8.39-1.22-8.53,8.48Z"/><path class="cls-2" d="M66.42,108.19a101.62,101.62,0,0,1-10.23,8.62,23.52,23.52,0,0,1,7.29,7.51A27,27,0,0,1,67,138.41a26,26,0,0,1-3.54,13.15,25.09,25.09,0,0,1-7.23,7.85A89.45,89.45,0,0,1,64,169l-4.65,3.29C47.8,156,33.43,147.56,19.62,139.51c-.06,0-8-4.71-8.76-5.16L16,132.14a240.25,240.25,0,0,0,24.72-12.08,108.2,108.2,0,0,0,21.69-16Zm-5.47,29.06v.26l2.18,2.13c0-.4,0-.79.06-1.22a31.67,31.67,0,0,0-.17-3.32l-2.07,2.1Zm-1.42,13.41a9.21,9.21,0,0,1-6-4.51,15.54,15.54,0,0,1-2.18-9.21v0a16.42,16.42,0,0,1,3.15-8.65A8.73,8.73,0,0,1,59.33,125a20.25,20.25,0,0,0-6.52-5.75c-3,2-6.07,4-9.24,5.81a215.62,215.62,0,0,1-20.15,10.09C33.6,141,44,147.25,53.52,156.64a20.81,20.81,0,0,0,6-6Zm-1.36-12.36-.11-1.13.2-1.3,4.14-4.22a18.62,18.62,0,0,0-1.45-4A5.43,5.43,0,0,0,56.78,130a13.41,13.41,0,0,0-2.52,7.09v0A12.65,12.65,0,0,0,56,144.64c1.16,1.87,2.72,3.12,4.34,3.23a1.2,1.2,0,0,0,1-.57,21.41,21.41,0,0,0,1.33-4.14l-4.45-4.37Z"/><path class="cls-1" d="M63.3,141.24a3.49,3.49,0,0,0,3.15-3.74c0-2.07-1.42-3.77-3.15-3.77s-3.15,1.7-3.15,3.77a3.49,3.49,0,0,0,3.15,3.74Z"/><path class="cls-1" d="M60.33,139.74a2.38,2.38,0,1,0-2.61-2.38,2.52,2.52,0,0,0,2.61,2.38Z"/></g></g></svg>