<?xml version="1.0" encoding="UTF-8"?>
<!DOCTYPE svg PUBLIC "-//W3C//DTD SVG 1.1//EN" "http://www.w3.org/Graphics/SVG/1.1/DTD/svg11.dtd">
<!-- Creator: CorelDRAW X7 -->
<svg xmlns="http://www.w3.org/2000/svg" xml:space="preserve" width="12.234mm" height="12.2105mm" version="1.1" style="shape-rendering:geometricPrecision; text-rendering:geometricPrecision; image-rendering:optimizeQuality; fill-rule:evenodd; clip-rule:evenodd"
viewBox="0 0 1803 1799"
 xmlns:xlink="http://www.w3.org/1999/xlink">
 <defs>
  <style type="text/css">
   <![CDATA[
    .fil1 {fill:#264F80;fill-rule:nonzero}
    .fil0 {fill:#7AC9F1;fill-rule:nonzero}
    .fil2 {fill:white;fill-rule:nonzero}
   ]]>
  </style>
 </defs>
 <g id="Слой_x0020_1">
  <metadata id="CorelCorpID_0Corel-Layer"/>
  <path class="fil0" d="M901 0c498,0 902,403 902,900 0,497 -404,899 -902,899 -497,0 -901,-402 -901,-899 0,-497 404,-900 901,-900z"/>
  <path class="fil1" d="M1754 1192l-770 -751 177 416 -525 43 -273 84 793 779c281,-82 504,-297 598,-571z"/>
  <polygon class="fil2" points="1440,900 984,441 864,561 1121,815 363,815 363,984 1121,984 864,1239 984,1358 "/>
 </g>
</svg>
