<?xml version="1.0" encoding="UTF-8"?>
<!DOCTYPE svg PUBLIC "-//W3C//DTD SVG 1.1//EN" "http://www.w3.org/Graphics/SVG/1.1/DTD/svg11.dtd">
<!-- Creator: CorelDRAW X7 -->
<svg xmlns="http://www.w3.org/2000/svg" xml:space="preserve" width="15.1692mm" height="14.1777mm" version="1.1" style="shape-rendering:geometricPrecision; text-rendering:geometricPrecision; image-rendering:optimizeQuality; fill-rule:evenodd; clip-rule:evenodd"
viewBox="0 0 158 148"
 xmlns:xlink="http://www.w3.org/1999/xlink">
 <defs>
  <style type="text/css">
   <![CDATA[
    .fil0 {fill:#24568D}
    .fil1 {fill:white}
    .fil3 {fill:#E63833;fill-rule:nonzero}
    .fil2 {fill:white;fill-rule:nonzero}
   ]]>
  </style>
 </defs>
 <g id="Слой_x0020_1">
  <metadata id="CorelCorpID_0Corel-Layer"/>
  <path class="fil0" d="M74 0l84 0 0 148 -84 0c-41,0 -74,-33 -74,-74 0,-41 33,-74 74,-74z"/>
  <g id="_975936680">
   <path class="fil1" d="M55 78l6 19c0,8 6,15 14,15 35,0 35,0 35,0 8,0 15,-7 15,-15l6 -19 -76 0zm29 5c0,-1 2,-2 3,-2 1,0 3,2 3,3 0,1 0,1 0,1 0,15 0,15 0,15 0,2 -2,3 -3,3 -1,0 -3,-1 -3,-3 0,-16 0,-16 0,-16 0,0 0,-1 0,-1zm12 5c0,-4 0,-4 0,-4 0,-1 1,-3 3,-3 1,0 2,2 2,3 0,6 0,6 0,6 0,10 0,10 0,10 0,2 -1,3 -2,3 -2,0 -3,-1 -3,-3 0,-12 0,-12 0,-12zm11 5c0,-9 0,-9 0,-9 0,-1 1,-3 3,-3 2,0 3,2 3,3 0,11 0,11 0,11l0 5c0,2 -1,3 -3,3 -2,0 -3,-1 -3,-3 0,-7 0,-7 0,-7zm-29 7c0,2 -1,3 -3,3 -1,0 -2,-1 -2,-3 0,-16 0,-16 0,-16 0,-1 1,-3 2,-3 2,0 3,2 3,3l0 16z"/>
   <g>
    <path class="fil1" d="M137 69c0,3 -3,5 -6,5 -76,0 -76,0 -76,0 -5,0 -7,-2 -7,-5 0,-4 0,-4 0,-4 0,-3 2,-5 7,-5l7 0c0,2 1,4 3,5 2,3 7,3 10,1l0 0 6 -6 22 0 7 6 0 0 0 1c4,2 7,2 11,0l1 -1 0 0c1,-2 2,-4 2,-6l7 0c3,0 6,2 6,5 0,4 0,4 0,4l0 0z"/>
    <path class="fil1" d="M137 71c-12,-11 -12,-11 -12,-11l-1 0c0,2 -1,4 -2,6l0 0 -1 1c-1,0 -2,1 -3,1l6 6c7,0 7,0 7,0 3,0 5,-1 6,-3l0 0z"/>
    <path class="fil1" d="M71 67l7 7 17 0 -15 -13 -5 5 0 0c-1,1 -3,1 -4,1z"/>
   </g>
   <path class="fil1" d="M73 63c-2,2 -5,2 -6,0 -2,-2 -2,-5 0,-6l18 -18c0,1 1,3 1,4l1 0 0 0 3 4 -17 16z"/>
   <path class="fil1" d="M119 57c1,1 1,4 0,6 -2,2 -5,2 -7,0 -22,-22 -22,-22 -22,-22 -3,-5 1,-10 6,-7l23 23zm-26 -22c1,0 2,1 2,3 0,1 -1,2 -2,2 -1,0 -2,-1 -2,-2 0,-2 1,-3 2,-3z"/>
  </g>
  <polygon class="fil2" points="34,25 47,25 47,11 57,11 57,25 70,25 70,34 57,34 57,48 47,48 47,34 34,34 "/>
  <path class="fil3" d="M158 148l-86 0c-12,0 -29,-4 -39,-13 11,6 26,7 38,8l87 0 0 5z"/>
 </g>
</svg>
