<?xml version="1.0" encoding="UTF-8"?>
<!DOCTYPE svg PUBLIC "-//W3C//DTD SVG 1.1//EN" "http://www.w3.org/Graphics/SVG/1.1/DTD/svg11.dtd">
<!-- Creator: CorelDRAW X7 -->
<svg xmlns="http://www.w3.org/2000/svg" xml:space="preserve" width="20.2797mm" height="17.7178mm" version="1.1" style="shape-rendering:geometricPrecision; text-rendering:geometricPrecision; image-rendering:optimizeQuality; fill-rule:evenodd; clip-rule:evenodd"
viewBox="0 0 307 268"
 xmlns:xlink="http://www.w3.org/1999/xlink">
 <defs>
  <style type="text/css">
   <![CDATA[
    .str0 {stroke:black;stroke-width:1.15345;stroke-linecap:round;stroke-linejoin:round}
    .fil3 {fill:#4D92B9}
    .fil4 {fill:#274F7F}
    .fil2 {fill:#122867}
    .fil6 {fill:#212826}
    .fil0 {fill:#2D5977}
    .fil5 {fill:#4B4C48}
    .fil1 {fill:#AA0000}
    .fil7 {fill:white}
   ]]>
  </style>
 </defs>
 <g id="Слой_x0020_1">
  <metadata id="CorelCorpID_0Corel-Layer"/>
  <path class="fil0" d="M224 219c0,7 -4,9 -11,9 -5,0 -10,-2 -10,-9 0,-24 0,-24 0,-24 -19,-10 -19,-10 -19,-10 0,34 0,34 0,34 0,7 -5,9 -9,9 -7,0 -10,-2 -10,-9 0,-41 0,-41 0,-41 -21,-9 -21,-9 -21,-9 0,50 0,50 0,50 0,7 -5,9 -9,9 -5,0 -10,-2 -10,-9 0,-55 0,-55 0,-55 0,0 0,-2 0,-2 -113,-47 -113,-47 -113,-47 33,104 33,104 33,104 0,28 21,49 49,49 119,0 119,0 119,0 28,0 51,-21 51,-49 -40,-17 -40,-17 -40,-17l0 17zm-120 0c0,7 -5,9 -10,9 -4,0 -9,-2 -9,-9 0,-55 0,-55 0,-55 0,-4 5,-9 9,-9 5,0 10,5 10,9l0 55z"/>
  <polygon class="fil1 str0" points="298,115 264,219 264,219 264,219 "/>
  <path class="fil2" d="M298 115c-286,0 -286,0 -286,0 113,47 113,47 113,47 0,-5 5,-7 10,-7 4,0 9,5 9,9 0,5 0,5 0,5 21,9 21,9 21,9 0,-14 0,-14 0,-14 0,-4 3,-9 10,-9 4,0 9,5 9,9 0,21 0,21 0,21 19,10 19,10 19,10 0,-31 0,-31 0,-31 0,-4 5,-9 10,-9 7,0 11,5 11,9 0,38 0,38 0,38 40,17 40,17 40,17 0,0 0,0 0,0l34 -104z"/>
  <path class="fil3" d="M307 122c0,9 -9,19 -21,19 -262,0 -262,0 -262,0 -15,0 -24,-10 -24,-19 0,-12 0,-12 0,-12 0,-12 9,-19 24,-19 262,0 262,0 262,0 12,0 21,7 21,19 0,12 0,12 0,12l0 0z"/>
  <path class="fil4" d="M305 129c-41,-38 -41,-38 -41,-38 -30,0 -30,0 -30,0 -12,9 -12,9 -12,9 40,41 40,41 40,41 24,0 24,0 24,0 9,0 16,-5 19,-12l0 0z"/>
  <polygon class="fil4" points="109,91 76,91 64,100 104,141 161,141 "/>
  <path class="fil5" d="M87 103c-7,5 -16,5 -21,0 -7,-7 -7,-17 0,-21 78,-78 78,-78 78,-78 5,-5 14,-5 21,0 5,7 5,14 0,21l-78 78z"/>
  <path class="fil6" d="M243 82c5,4 5,14 0,21 -7,5 -14,5 -21,0 -78,-78 -78,-78 -78,-78 -5,-7 -5,-14 0,-21 7,-5 14,-5 21,0l78 78z"/>
  <path class="fil7" d="M153 11c3,0 5,2 5,4 0,3 -2,5 -5,5 -2,0 -4,-2 -4,-5 0,-2 2,-4 4,-4l0 0z"/>
 </g>
</svg>
