<?xml version="1.0" encoding="UTF-8"?>
<!DOCTYPE svg PUBLIC "-//W3C//DTD SVG 1.1//EN" "http://www.w3.org/Graphics/SVG/1.1/DTD/svg11.dtd">
<!-- Creator: CorelDRAW X7 -->
<svg xmlns="http://www.w3.org/2000/svg" xml:space="preserve" width="20.2797mm" height="17.7178mm" version="1.1" style="shape-rendering:geometricPrecision; text-rendering:geometricPrecision; image-rendering:optimizeQuality; fill-rule:evenodd; clip-rule:evenodd"
viewBox="0 0 1047 914"
 xmlns:xlink="http://www.w3.org/1999/xlink">
 <defs>
  <style type="text/css">
   <![CDATA[
    .str0 {stroke:black;stroke-width:3.93251;stroke-linecap:round;stroke-linejoin:round}
    .fil3 {fill:#3FA3DB}
    .fil2 {fill:#16569A}
    .fil4 {fill:#125294}
    .fil6 {fill:#212826}
    .fil0 {fill:#3D82B0}
    .fil5 {fill:#4B4C48}
    .fil1 {fill:#AA0000}
    .fil7 {fill:white}
   ]]>
  </style>
 </defs>
 <g id="Слой_x0020_1">
  <metadata id="CorelCorpID_0Corel-Layer"/>
  <path class="fil0" d="M765 745c0,24 -16,32 -40,32 -17,0 -33,-8 -33,-32 0,-80 0,-80 0,-80 -64,-33 -64,-33 -64,-33 0,113 0,113 0,113 0,24 -16,32 -32,32 -24,0 -32,-8 -32,-32 0,-137 0,-137 0,-137 -73,-32 -73,-32 -73,-32 0,169 0,169 0,169 0,24 -16,32 -32,32 -16,0 -32,-8 -32,-32 0,-185 0,-185 0,-185 0,0 0,-8 0,-8 -387,-161 -387,-161 -387,-161 113,354 113,354 113,354 0,97 72,169 169,169 403,0 403,0 403,0 96,0 177,-72 177,-169 -137,-56 -137,-56 -137,-56l0 56zm-411 0c0,24 -16,32 -32,32 -16,0 -32,-8 -32,-32 0,-185 0,-185 0,-185 0,-16 16,-32 32,-32 16,0 32,16 32,32l0 185z"/>
  <polygon class="fil1 str0" points="1014,391 902,745 902,745 902,745 "/>
  <path class="fil2" d="M1014 391c-974,0 -974,0 -974,0 387,161 387,161 387,161 0,-16 16,-24 32,-24 16,0 32,16 32,32 0,16 0,16 0,16 73,32 73,32 73,32 0,-48 0,-48 0,-48 0,-16 8,-32 32,-32 16,0 32,16 32,32 0,72 0,72 0,72 64,33 64,33 64,33 0,-105 0,-105 0,-105 0,-16 16,-32 33,-32 24,0 40,16 40,32 0,129 0,129 0,129 137,56 137,56 137,56 0,0 0,0 0,0l112 -354z"/>
  <path class="fil3" d="M1047 415c0,32 -33,64 -73,64 -893,0 -893,0 -893,0 -49,0 -81,-32 -81,-64 0,-40 0,-40 0,-40 0,-41 32,-65 81,-65 893,0 893,0 893,0 40,0 73,24 73,65 0,40 0,40 0,40l0 0z"/>
  <path class="fil4" d="M1039 439c-137,-129 -137,-129 -137,-129 -105,0 -105,0 -105,0 -40,32 -40,32 -40,32 137,137 137,137 137,137 80,0 80,0 80,0 32,0 56,-16 65,-40l0 0z"/>
  <polygon class="fil4" points="370,310 258,310 217,342 354,479 547,479 "/>
  <path class="fil5" d="M298 350c-24,17 -56,17 -73,0 -24,-24 -24,-56 0,-72 266,-266 266,-266 266,-266 16,-16 48,-16 73,0 16,24 16,48 0,73l-266 265z"/>
  <path class="fil6" d="M829 278c16,16 16,48 0,72 -24,17 -48,17 -72,0 -266,-265 -266,-265 -266,-265 -16,-25 -16,-49 0,-73 24,-16 48,-16 73,0l265 266z"/>
  <path class="fil7" d="M523 36c8,0 16,8 16,16 0,8 -8,16 -16,16 -8,0 -16,-8 -16,-16 0,-8 8,-16 16,-16l0 0z"/>
 </g>
</svg>
