<?xml version="1.0" encoding="UTF-8"?>
<!DOCTYPE svg PUBLIC "-//W3C//DTD SVG 1.1//EN" "http://www.w3.org/Graphics/SVG/1.1/DTD/svg11.dtd">
<!-- Creator: CorelDRAW X7 -->
<svg xmlns="http://www.w3.org/2000/svg" xml:space="preserve" width="20.2797mm" height="17.7178mm" version="1.1" style="shape-rendering:geometricPrecision; text-rendering:geometricPrecision; image-rendering:optimizeQuality; fill-rule:evenodd; clip-rule:evenodd"
viewBox="0 0 706 617"
 xmlns:xlink="http://www.w3.org/1999/xlink">
 <defs>
  <style type="text/css">
   <![CDATA[
    .str0 {stroke:black;stroke-width:2.65292;stroke-linecap:round;stroke-linejoin:round}
    .fil5 {fill:#212826}
    .fil2 {fill:#2867A6}
    .fil4 {fill:#4B4C48}
    .fil1 {fill:#AA0000}
    .fil0 {fill:#C3E4FA}
    .fil3 {fill:white}
   ]]>
  </style>
 </defs>
 <g id="Слой_x0020_1">
  <metadata id="CorelCorpID_0Corel-Layer"/>
  <path class="fil0" d="M516 503c0,16 -11,21 -27,21 -11,0 -22,-5 -22,-21 0,-55 0,-55 0,-55 -43,-21 -43,-21 -43,-21 0,76 0,76 0,76 0,16 -11,21 -22,21 -16,0 -22,-5 -22,-21 0,-93 0,-93 0,-93 -49,-21 -49,-21 -49,-21 0,114 0,114 0,114 0,16 -11,21 -21,21 -11,0 -22,-5 -22,-21 0,-125 0,-125 0,-125 0,0 0,-6 0,-6 -261,-108 -261,-108 -261,-108 76,239 76,239 76,239 0,65 49,114 114,114 272,0 272,0 272,0 65,0 119,-49 119,-114 -92,-38 -92,-38 -92,-38l0 38zm-277 0c0,16 -11,21 -22,21 -11,0 -21,-5 -21,-21 0,-125 0,-125 0,-125 0,-11 10,-22 21,-22 11,0 22,11 22,22l0 125z"/>
  <polygon class="fil1 str0" points="684,264 608,503 608,503 608,503 "/>
  <path class="fil2" d="M684 264c-657,0 -657,0 -657,0 261,108 261,108 261,108 0,-11 11,-16 22,-16 10,0 21,11 21,22 0,11 0,11 0,11 49,21 49,21 49,21 0,-32 0,-32 0,-32 0,-11 6,-22 22,-22 11,0 22,11 22,22 0,49 0,49 0,49 43,21 43,21 43,21 0,-70 0,-70 0,-70 0,-11 11,-22 22,-22 16,0 27,11 27,22 0,87 0,87 0,87 92,38 92,38 92,38 0,0 0,0 0,0l76 -239z"/>
  <path class="fil3" d="M706 280c0,22 -22,43 -49,43 -603,0 -603,0 -603,0 -32,0 -54,-21 -54,-43 0,-27 0,-27 0,-27 0,-27 22,-44 54,-44 603,0 603,0 603,0 27,0 49,17 49,44 0,27 0,27 0,27l0 0z"/>
  <path class="fil2" d="M701 296c-93,-87 -93,-87 -93,-87 -70,0 -70,0 -70,0 -27,22 -27,22 -27,22 92,92 92,92 92,92 54,0 54,0 54,0 22,0 38,-10 44,-27l0 0z"/>
  <polygon class="fil2" points="250,209 174,209 147,231 239,323 369,323 "/>
  <path class="fil4" d="M201 236c-16,11 -38,11 -49,0 -16,-16 -16,-38 0,-48 179,-180 179,-180 179,-180 11,-11 33,-11 49,0 11,16 11,33 0,49l-179 179z"/>
  <path class="fil5" d="M559 188c11,10 11,32 0,48 -16,11 -32,11 -48,0 -180,-179 -180,-179 -180,-179 -11,-16 -11,-33 0,-49 17,-11 33,-11 49,0l179 180z"/>
  <path class="fil3" d="M353 24c5,0 11,6 11,11 0,6 -6,11 -11,11 -5,0 -11,-5 -11,-11 0,-5 6,-11 11,-11l0 0z"/>
 </g>
</svg>
