<?xml version="1.0" encoding="UTF-8"?>
<!DOCTYPE svg PUBLIC "-//W3C//DTD SVG 1.1//EN" "http://www.w3.org/Graphics/SVG/1.1/DTD/svg11.dtd">
<!-- Creator: CorelDRAW X7 -->
<svg xmlns="http://www.w3.org/2000/svg" xml:space="preserve" width="25.1015mm" height="24.974mm" version="1.1" style="shape-rendering:geometricPrecision; text-rendering:geometricPrecision; image-rendering:optimizeQuality; fill-rule:evenodd; clip-rule:evenodd"
viewBox="0 0 885 880"
 xmlns:xlink="http://www.w3.org/1999/xlink">
 <defs>
  <style type="text/css">
   <![CDATA[
    .fil3 {fill:#07689D}
    .fil1 {fill:#07689D}
    .fil0 {fill:#75CAF5}
    .fil2 {fill:white}
   ]]>
  </style>
 </defs>
 <g id="Слой_x0020_1">
  <metadata id="CorelCorpID_0Corel-Layer"/>
  <path class="fil0" d="M440 0c-243,-1 -440,197 -440,440 0,242 197,439 440,439l445 1 -6 -440 6 -439 -445 -1z"/>
  <polygon class="fil1" points="668,330 885,537 885,880 595,880 294,580 279,564 588,558 609,520 "/>
  <path class="fil2" d="M236 420l31 100c0,44 34,77 78,77 184,0 184,0 184,0 45,0 81,-33 81,-77l32 -100 -406 0zm157 26c0,-7 7,-11 15,-11 7,0 14,8 14,15 0,7 0,7 0,7 0,78 0,78 0,78 0,11 -7,15 -14,15 -8,0 -15,-4 -15,-15 0,-85 0,-85 0,-85 0,0 0,-4 0,-4zm63 26c0,-22 0,-22 0,-22 0,-7 3,-15 14,-15 8,0 15,8 15,15 0,33 0,33 0,33 0,52 0,52 0,52 0,11 -7,15 -15,15 -11,0 -14,-4 -14,-15 0,-63 0,-63 0,-63zm59 26c0,-48 0,-48 0,-48 0,-7 7,-15 14,-15 11,0 19,8 19,15 0,59 0,59 0,59l0 26c0,11 -8,15 -19,15 -7,0 -14,-4 -14,-15 0,-37 0,-37 0,-37zm-155 37c0,11 -8,15 -15,15 -7,0 -15,-4 -15,-15 0,-85 0,-85 0,-85 0,-7 8,-15 15,-15 7,0 15,8 15,15l0 85z"/>
  <g id="_976042880">
   <path class="fil2" d="M677 368c0,15 -15,30 -33,30 -410,0 -410,0 -410,0 -22,0 -37,-15 -37,-30 0,-18 0,-18 0,-18 0,-19 15,-30 37,-30l42 0c0,11 5,22 13,30 14,15 38,13 54,3l1 -1 32 -32 119 0 34 34 1 2 2 1c18,12 39,12 57,0l4 -3 2 -3c6,-9 9,-20 9,-31l40 0c18,0 33,11 33,30 0,18 0,18 0,18l0 0z"/>
   <path class="fil2" d="M673 379c-63,-59 -63,-59 -63,-59l-6 0c0,11 -3,22 -9,31l-2 3 -4 3c-5,3 -10,6 -16,7l34 34c37,0 37,0 37,0 14,0 25,-8 29,-19l0 0z"/>
   <path class="fil2" d="M322 360l38 38 88 0 -77 -73 -27 27 -1 1c-6,4 -13,6 -21,7z"/>
  </g>
  <path class="fil2" d="M334 339c-11,7 -26,7 -33,0 -11,-11 -11,-26 0,-33l95 -96c2,6 4,13 8,19l2 2 1 1 17 17 -90 90z"/>
  <path class="fil2" d="M577 306c8,7 8,22 0,33 -11,7 -22,7 -33,0 -122,-122 -122,-122 -122,-122 -17,-26 8,-50 34,-33l121 122z"/>
  <circle class="fil3" cx="440" cy="201" r="12"/>
 </g>
</svg>
