<?xml version="1.0" encoding="UTF-8"?>
<!DOCTYPE svg PUBLIC "-//W3C//DTD SVG 1.1//EN" "http://www.w3.org/Graphics/SVG/1.1/DTD/svg11.dtd">
<!-- Creator: CorelDRAW X7 -->
<svg xmlns="http://www.w3.org/2000/svg" xml:space="preserve" width="25.1014mm" height="24.974mm" version="1.1" style="shape-rendering:geometricPrecision; text-rendering:geometricPrecision; image-rendering:optimizeQuality; fill-rule:evenodd; clip-rule:evenodd"
viewBox="0 0 919 914"
 xmlns:xlink="http://www.w3.org/1999/xlink">
 <defs>
  <style type="text/css">
   <![CDATA[
    .fil3 {fill:#07689D}
    .fil0 {fill:#154E80}
    .fil1 {fill:#1E3966}
    .fil2 {fill:white}
   ]]>
  </style>
 </defs>
 <g id="Слой_x0020_1">
  <metadata id="CorelCorpID_0Corel-Layer"/>
  <path class="fil0" d="M457 0c-253,-1 -457,204 -457,457 0,252 204,455 457,456l462 1 -6 -457 6 -456 -462 -1z"/>
  <polygon class="fil1" points="694,343 919,557 919,914 618,914 306,603 290,586 611,579 633,540 "/>
  <path class="fil2" d="M245 436l33 104c0,46 34,80 80,80 192,0 192,0 192,0 46,0 84,-34 84,-80l33 -104 -422 0zm163 28c0,-8 8,-12 15,-12 8,0 16,8 16,15 0,8 0,8 0,8 0,81 0,81 0,81 0,11 -8,15 -16,15 -7,0 -15,-4 -15,-15 0,-89 0,-89 0,-89 0,0 0,-3 0,-3zm65 26c0,-23 0,-23 0,-23 0,-7 4,-15 15,-15 8,0 16,8 16,15 0,35 0,35 0,35 0,54 0,54 0,54 0,11 -8,15 -16,15 -11,0 -15,-4 -15,-15 0,-66 0,-66 0,-66zm61 27c0,-50 0,-50 0,-50 0,-7 8,-15 16,-15 11,0 19,8 19,15 0,62 0,62 0,62l0 27c0,11 -8,15 -19,15 -8,0 -16,-4 -16,-15 0,-39 0,-39 0,-39zm-161 39c0,11 -7,15 -15,15 -7,0 -15,-4 -15,-15 0,-89 0,-89 0,-89 0,-7 8,-15 15,-15 8,0 15,8 15,15l0 89z"/>
  <g id="_898045064">
   <path class="fil2" d="M703 383c0,15 -15,30 -35,30 -425,0 -425,0 -425,0 -23,0 -38,-15 -38,-30 0,-20 0,-20 0,-20 0,-19 15,-30 38,-30l44 0c-1,11 4,22 13,31 15,15 40,13 56,2l2 -1 32 -32 124 0 35 35 2 1 2 1c19,13 40,13 59,0l4 -2 2 -4c6,-9 10,-20 10,-31l40 0c20,0 35,11 35,30 0,20 0,20 0,20l0 0z"/>
   <path class="fil2" d="M699 394c-65,-61 -65,-61 -65,-61l-6 0c0,11 -4,22 -10,31l-2 4 -4 2c-6,4 -11,7 -17,8l35 35c38,0 38,0 38,0 16,0 27,-7 31,-19l0 0z"/>
   <path class="fil2" d="M335 374l38 39 92 0 -79 -76 -28 28 -2 1c-6,4 -14,7 -21,8z"/>
  </g>
  <path class="fil2" d="M347 352c-12,8 -27,8 -35,0 -11,-12 -11,-27 0,-35l99 -99c2,7 5,13 9,20l1 2 2 1 17 17 -93 94z"/>
  <path class="fil2" d="M599 317c8,8 8,23 0,35 -11,8 -22,8 -34,0 -126,-127 -126,-127 -126,-127 -18,-26 8,-52 34,-34l126 126z"/>
  <circle class="fil3" cx="457" cy="209" r="13"/>
 </g>
</svg>
