<?xml version="1.0" encoding="UTF-8"?>
<!DOCTYPE svg PUBLIC "-//W3C//DTD SVG 1.1//EN" "http://www.w3.org/Graphics/SVG/1.1/DTD/svg11.dtd">
<!-- Creator: CorelDRAW X7 -->
<svg xmlns="http://www.w3.org/2000/svg" xml:space="preserve" width="15.1692mm" height="14.1777mm" version="1.1" style="shape-rendering:geometricPrecision; text-rendering:geometricPrecision; image-rendering:optimizeQuality; fill-rule:evenodd; clip-rule:evenodd"
viewBox="0 0 160 149"
 xmlns:xlink="http://www.w3.org/1999/xlink">
 <defs>
  <style type="text/css">
   <![CDATA[
    .fil0 {fill:#008FD6}
    .fil1 {fill:white}
    .fil3 {fill:#274F7F;fill-rule:nonzero}
    .fil2 {fill:white;fill-rule:nonzero}
   ]]>
  </style>
 </defs>
 <g id="Слой_x0020_1">
  <metadata id="CorelCorpID_0Corel-Layer"/>
  <path class="fil0" d="M75 0l85 0 0 149 -85 0c-42,0 -75,-33 -75,-74 0,-42 33,-75 75,-75z"/>
  <g id="_975948512">
   <path class="fil1" d="M56 79l5 19c0,8 7,15 15,15 35,0 35,0 35,0 8,0 15,-7 15,-15l6 -19 -76 0zm29 5c0,-1 2,-2 3,-2 1,0 3,2 3,3 0,1 0,1 0,1 0,15 0,15 0,15 0,2 -2,3 -3,3 -1,0 -3,-1 -3,-3 0,-16 0,-16 0,-16 0,0 0,-1 0,-1zm12 5c0,-4 0,-4 0,-4 0,-1 1,-3 3,-3 1,0 3,2 3,3 0,6 0,6 0,6 0,10 0,10 0,10 0,2 -2,3 -3,3 -2,0 -3,-1 -3,-3 0,-12 0,-12 0,-12zm11 5c0,-9 0,-9 0,-9 0,-1 1,-3 3,-3 2,0 3,2 3,3 0,11 0,11 0,11l0 5c0,2 -1,3 -3,3 -2,0 -3,-1 -3,-3 0,-7 0,-7 0,-7zm-29 7c0,2 -2,3 -3,3 -1,0 -3,-1 -3,-3 0,-16 0,-16 0,-16 0,-1 2,-3 3,-3 1,0 3,2 3,3l0 16z"/>
   <g>
    <path class="fil1" d="M139 70c0,2 -3,5 -7,5 -77,0 -77,0 -77,0 -4,0 -7,-3 -7,-5 0,-4 0,-4 0,-4 0,-3 3,-5 7,-5l8 0c0,2 1,4 3,5 2,3 7,3 10,1l0 -1 6 -5 22 0 7 6 0 0 0 0c4,3 8,3 11,0l1 0 0 -1c1,-1 2,-3 2,-5l7 0c4,0 7,2 7,5 0,4 0,4 0,4l0 0z"/>
    <path class="fil1" d="M138 72c-12,-11 -12,-11 -12,-11l-1 0c0,2 -1,4 -2,5l0 1 -1 0c-1,1 -2,2 -3,2l6 6c7,0 7,0 7,0 3,0 5,-1 6,-3l0 0z"/>
    <path class="fil1" d="M72 68l7 7 17 0 -15 -14 -5 5 0 1c-1,0 -3,1 -4,1z"/>
   </g>
   <path class="fil1" d="M74 64c-2,1 -5,1 -6,0 -2,-2 -2,-5 0,-6l18 -18c0,1 1,2 1,3l1 1 0 0 3 3 -17 17z"/>
   <path class="fil1" d="M120 58c1,1 1,4 0,6 -2,1 -4,1 -6,0 -23,-23 -23,-23 -23,-23 -4,-5 1,-9 6,-6l23 23zm-26 -22c1,0 2,1 2,2 0,1 -1,2 -2,2 -1,0 -2,-1 -2,-2 0,-1 1,-2 2,-2z"/>
  </g>
  <polygon class="fil2" points="35,26 48,26 48,12 58,12 58,26 71,26 71,35 58,35 58,49 48,49 48,35 35,35 "/>
  <path class="fil3" d="M160 149l-87 0c-12,0 -29,-3 -40,-12 12,6 27,7 39,8l88 0 0 4z"/>
 </g>
</svg>
