<?xml version="1.0" encoding="UTF-8"?>
<!DOCTYPE svg PUBLIC "-//W3C//DTD SVG 1.1//EN" "http://www.w3.org/Graphics/SVG/1.1/DTD/svg11.dtd">
<!-- Creator: CorelDRAW X7 -->
<svg xmlns="http://www.w3.org/2000/svg" xml:space="preserve" width="25.1014mm" height="24.974mm" version="1.1" style="shape-rendering:geometricPrecision; text-rendering:geometricPrecision; image-rendering:optimizeQuality; fill-rule:evenodd; clip-rule:evenodd"
viewBox="0 0 938 933"
 xmlns:xlink="http://www.w3.org/1999/xlink">
 <defs>
  <style type="text/css">
   <![CDATA[
    .fil3 {fill:#07689D}
    .fil1 {fill:#067DBD}
    .fil0 {fill:#99DDFF}
    .fil2 {fill:white}
   ]]>
  </style>
 </defs>
 <g id="Слой_x0020_1">
  <metadata id="CorelCorpID_0Corel-Layer"/>
  <path class="fil0" d="M466 0c-257,-1 -466,209 -466,466 0,257 209,465 466,466l471 1 -5 -467 5 -465 -471 -1z"/>
  <polygon class="fil1" points="708,350 937,569 938,933 630,933 312,615 296,597 623,591 646,551 "/>
  <path class="fil2" d="M250 445l33 106c0,47 36,82 82,82 196,0 196,0 196,0 47,0 86,-35 86,-82l33 -106 -430 0zm166 28c0,-8 8,-12 16,-12 8,0 16,8 16,16 0,8 0,8 0,8 0,82 0,82 0,82 0,12 -8,15 -16,15 -8,0 -16,-3 -16,-15 0,-90 0,-90 0,-90 0,0 0,-4 0,-4zm67 27c0,-23 0,-23 0,-23 0,-8 4,-16 15,-16 8,0 16,8 16,16 0,35 0,35 0,35 0,55 0,55 0,55 0,12 -8,15 -16,15 -11,0 -15,-3 -15,-15 0,-67 0,-67 0,-67zm62 28c0,-51 0,-51 0,-51 0,-8 8,-16 16,-16 12,0 19,8 19,16 0,62 0,62 0,62l0 28c0,12 -7,15 -19,15 -8,0 -16,-3 -16,-15 0,-39 0,-39 0,-39zm-164 39c0,12 -8,15 -16,15 -7,0 -15,-3 -15,-15 0,-90 0,-90 0,-90 0,-8 8,-16 15,-16 8,0 16,8 16,16l0 90z"/>
  <g id="_981429408">
   <path class="fil2" d="M717 390c0,16 -15,32 -35,32 -434,0 -434,0 -434,0 -23,0 -39,-16 -39,-32 0,-19 0,-19 0,-19 0,-20 16,-32 39,-32l44 0c0,12 5,23 14,32 15,15 41,14 57,3l2 -1 33 -34 127 0 35 36 2 2 2 1c19,13 41,13 60,0l4 -3 3 -3c6,-10 9,-21 9,-33l42 0c20,0 35,12 35,32 0,19 0,19 0,19l0 0z"/>
   <path class="fil2" d="M713 402c-66,-63 -66,-63 -66,-63l-7 0c0,12 -3,23 -9,33l-3 3 -4 3c-5,4 -11,6 -17,8l36 36c39,0 39,0 39,0 16,0 27,-8 31,-20l0 0z"/>
   <path class="fil2" d="M341 382l40 40 94 0 -81 -78 -29 29 -2 1c-6,4 -14,7 -22,8z"/>
  </g>
  <path class="fil2" d="M354 359c-12,8 -28,8 -35,0 -12,-12 -12,-27 0,-35l101 -102c1,7 4,14 9,21l1 1 1 2 18 18 -95 95z"/>
  <path class="fil2" d="M612 324c7,8 7,23 0,35 -12,8 -24,8 -36,0 -128,-129 -128,-129 -128,-129 -19,-27 8,-53 35,-35l129 129z"/>
  <circle class="fil3" cx="466" cy="213" r="13"/>
 </g>
</svg>
