<?xml version="1.0" encoding="UTF-8"?>
<!DOCTYPE svg PUBLIC "-//W3C//DTD SVG 1.1//EN" "http://www.w3.org/Graphics/SVG/1.1/DTD/svg11.dtd">
<!-- Creator: CorelDRAW X7 -->
<svg xmlns="http://www.w3.org/2000/svg" xml:space="preserve" width="26.6551mm" height="26.5198mm" version="1.1" style="shape-rendering:geometricPrecision; text-rendering:geometricPrecision; image-rendering:optimizeQuality; fill-rule:evenodd; clip-rule:evenodd"
viewBox="0 0 914 910"
 xmlns:xlink="http://www.w3.org/1999/xlink">
 <defs>
  <style type="text/css">
   <![CDATA[
    .fil3 {fill:#F4FAFE}
    .fil1 {fill:#067DBD}
    .fil0 {fill:#76CFF6}
    .fil2 {fill:white;fill-rule:nonzero}
   ]]>
  </style>
 </defs>
 <g id="Слой_x0020_1">
  <metadata id="CorelCorpID_0Corel-Layer"/>
  <path class="fil0" d="M454 0c-251,-1 -454,203 -454,454 0,251 203,454 454,454l460 2 0 -455 0 -454 -460 -1z"/>
  <polygon class="fil1" points="355,360 617,360 666,402 629,276 914,598 914,910 617,910 321,555 "/>
  <circle class="fil0" cx="491" cy="434" r="202"/>
  <path class="fil2" d="M491 220c59,0 112,24 151,63 38,39 62,92 62,151 0,59 -24,112 -62,151 -39,39 -92,63 -151,63 -59,0 -113,-24 -151,-63 -39,-39 -63,-92 -63,-151 0,-59 24,-112 63,-151 38,-39 92,-63 151,-63zm135 79c-35,-35 -83,-56 -135,-56 -53,0 -101,21 -135,56 -35,35 -56,82 -56,135 0,53 21,101 56,135 34,35 82,56 135,56 52,0 100,-21 135,-56 34,-34 56,-82 56,-135 0,-53 -22,-100 -56,-135z"/>
  <path class="fil3" d="M464 458c-3,-2 -9,-7 -11,-10 -5,-5 -7,-6 -12,-11l-35 -30c-5,-4 -10,-7 -16,-4 -4,1 -20,13 -20,25 0,12 35,49 45,61l37 44c21,27 26,6 55,-34l88 -125c19,-25 22,-28 5,-42 -17,-12 -18,-12 -30,2l-106 124z"/>
  <path class="fil2" d="M464 458c-2,-1 -4,-2 -6,-4 -2,-2 -4,-4 -6,-5 -2,-3 -4,-4 -6,-6 -1,-2 -3,-3 -6,-5l-34 -31c-3,-1 -5,-3 -8,-4 -2,-1 -5,-1 -8,0 -2,1 -9,6 -14,12 -3,4 -5,9 -5,13 0,9 20,32 34,48 4,5 8,10 11,13l37 43c9,13 15,15 22,10 5,-4 11,-13 18,-24 4,-6 9,-12 14,-20l88 -124 2 -4c16,-22 19,-25 2,-37 -8,-6 -12,-9 -16,-9 -4,0 -7,4 -13,10l-106 125 0 -1zm-5 -5c2,2 4,3 5,4l105 -124c7,-6 10,-10 14,-10 4,-1 9,2 17,9 17,13 15,16 -2,39l-2 4 -88 124c-6,7 -10,14 -14,20 -8,11 -13,19 -18,23 -8,6 -14,4 -24,-9l-37 -43c-3,-3 -7,-8 -11,-13 -14,-17 -35,-40 -35,-49 0,-5 3,-9 6,-13 5,-7 13,-12 15,-13 3,-1 6,-1 9,0 2,1 5,3 7,4l35 31c3,2 4,4 6,5 2,2 4,3 6,6 1,1 4,3 6,5z"/>
 </g>
</svg>
