<?xml version="1.0" encoding="UTF-8"?>
<!DOCTYPE svg PUBLIC "-//W3C//DTD SVG 1.1//EN" "http://www.w3.org/Graphics/SVG/1.1/DTD/svg11.dtd">
<!-- Creator: CorelDRAW X7 -->
<svg xmlns="http://www.w3.org/2000/svg" xml:space="preserve" width="19.0324mm" height="19.1302mm" version="1.1" style="shape-rendering:geometricPrecision; text-rendering:geometricPrecision; image-rendering:optimizeQuality; fill-rule:evenodd; clip-rule:evenodd"
viewBox="0 0 402 404"
 xmlns:xlink="http://www.w3.org/1999/xlink">
 <defs>
  <style type="text/css">
   <![CDATA[
    .fil0 {fill:#154470}
    .fil1 {fill:#193463}
    .fil2 {fill:white}
   ]]>
  </style>
 </defs>
 <g id="Слой_x0020_1">
  <metadata id="CorelCorpID_0Corel-Layer"/>
  <path class="fil0" d="M188 0l214 0 0 404 -214 0c-104,0 -188,-90 -188,-202 0,-111 84,-202 188,-202z"/>
  <path class="fil1" d="M303 146l99 81 0 176 -149 -1 -123 -119c1,0 2,0 3,-1l6 -1c2,-1 7,-2 9,-2 0,0 0,0 0,-1l4 -1c0,0 1,0 1,0l4 -1c2,0 4,-1 7,-2 0,0 0,0 1,0l13 -4c1,0 2,0 2,0l18 -5c0,0 1,0 1,0l8 -2c1,0 1,-1 2,-1l4 -1c1,0 1,0 1,0 2,-1 4,-1 5,-2 0,0 0,0 0,0 0,0 0,0 0,0l10 -10c0,0 0,0 1,0 0,-1 0,-1 0,-1l16 -15c3,-3 6,-7 9,-10 0,0 1,0 1,-1 1,0 3,-2 4,-3l9 -9c0,0 0,-1 0,-1l1 -1c1,0 1,0 1,0l12 -13c0,0 0,0 0,0l2 -1c0,0 0,0 0,0l1 -1c0,0 0,0 0,0 0,0 0,0 0,0l0 -1c4,-3 7,-6 10,-10l1 0c0,-1 0,-1 0,-1 1,0 1,0 1,0l1 -1c0,-1 1,-1 2,-2l7 -7c0,-1 -5,-24 -5,-25z"/>
  <g id="_975959192">
   <path class="fil2" d="M128 279l0 0c0,1 0,2 1,3 1,1 3,1 4,0l6 -1c2,-1 7,-2 9,-2 0,0 0,0 0,-1l4 -1c0,0 1,0 1,0l4 -1c2,0 4,-1 7,-2 0,0 0,0 1,0l13 -4c1,0 2,0 2,0l18 -5c0,0 1,0 1,0l8 -2c1,0 1,-1 2,-1l4 -1c1,0 1,0 1,0 2,-1 4,-1 5,-2 0,0 0,0 0,0 0,0 0,0 0,0l10 -10c0,0 0,0 1,0 0,-1 0,-1 0,-1l16 -15c3,-3 6,-7 9,-10 0,0 1,0 1,-1 1,0 3,-2 4,-3l9 -9c0,0 0,-1 0,-1l1 -1c1,0 1,0 1,0l12 -13c0,0 0,0 0,0l2 -1c0,0 0,0 0,0l1 -1c0,0 0,0 0,0 0,0 0,0 0,0l0 -1c4,-3 7,-6 10,-10l1 0c0,-1 0,-1 0,-1 1,0 1,0 1,0l1 -1c0,-1 1,-1 2,-2l7 -7c1,-1 1,-2 2,-3l0 0c0,-1 -1,-1 -1,-1 0,-1 0,-1 0,-1 0,-2 0,-4 -1,-5 0,-2 0,-3 -1,-5 0,-1 0,-1 -1,-2 0,-1 -1,-5 -2,-6 -1,-1 -2,0 -3,1 -2,2 -3,3 -4,4l-23 23c-1,0 -1,0 -1,1l-14 14c0,0 0,0 -1,0l-24 24c0,1 0,1 0,1l-1 1c0,0 0,0 0,0 -1,0 -1,0 -1,1l-8 8c-1,1 -2,2 -4,3l0 1c-1,0 -1,0 -1,0l-3 4c-1,1 -2,3 -2,5 0,2 0,2 1,5l2 8c0,0 -1,1 -2,2 0,0 -1,0 -2,1 -3,0 -5,1 -8,2l-14 4c-1,0 -1,0 -2,0l-13 3c0,0 -3,-3 -4,-3 -1,-1 -4,-4 -5,-5l-1 -1c0,-1 0,-1 0,-1l0 0c0,0 0,0 0,0l-1 -1c-3,-3 -7,-6 -10,-10l-3 -3c0,0 0,0 0,0l0 0c-1,0 -1,0 -1,0l-3 -3c0,-1 -1,-2 -2,-2 1,-2 2,-4 2,-6 0,-1 0,-1 1,-2l1 -4c0,0 0,0 0,-1l4 -13c0,0 0,-1 0,-1l3 -11c0,0 0,0 0,-1 1,0 2,-1 2,-2l6 2c1,0 2,1 3,1 2,0 3,1 4,1 2,0 4,-1 5,-2 2,-1 7,-7 9,-9l14 -14c1,0 0,0 1,0 0,-1 0,-1 0,-1l1 0c0,0 0,0 0,0l1 -1c0,0 0,0 0,0 3,-3 6,-7 9,-10l3 -3c4,-3 8,-8 12,-11l0 -1c0,0 0,0 0,0l1 0c4,-5 8,-9 12,-13 1,0 1,0 1,0 0,0 0,0 0,-1l14 -13c0,0 0,0 0,0l9 -10c1,-1 2,-2 0,-3 -1,-1 -1,-1 -2,-1l-4 -1c-2,-1 -6,-2 -8,-2 -1,0 -2,-1 -2,-1l-1 0c0,0 -1,0 -1,0 0,0 -1,1 -1,1 -1,0 -1,0 -2,0 -1,1 -7,7 -9,9l-1 1c-2,2 -4,4 -6,6 -3,2 -5,5 -7,7l-1 0c-3,4 -7,8 -11,12 0,0 -1,0 -1,1l-1 1c0,0 0,0 0,0l-17 16c-3,3 -6,6 -9,9 0,1 0,1 0,1 0,0 0,0 0,0 -1,0 -1,0 -1,0l-1 2c0,0 0,0 0,0 0,0 -1,0 -1,0 0,0 0,0 0,0l-1 1c0,1 0,1 0,1 -2,1 -4,3 -5,5 -2,1 -3,3 -5,4l-4 5c-4,3 -7,6 -10,9 -1,1 -1,1 -1,3l-4 15c0,0 -1,1 -1,1 0,1 0,1 0,1l-1 3c0,0 0,1 0,1l-3 12c-1,3 -2,7 -3,10 0,0 0,1 0,1l-1 3c0,1 -1,4 -2,6 0,1 0,1 0,2 0,1 -1,2 -1,4l-1 1c0,1 0,1 0,1 0,1 0,1 0,1l-4 15c0,1 -1,3 -1,4 -1,1 -1,3 -1,3z"/>
   <path class="fil2" d="M181 203c0,1 0,1 1,2 0,0 0,0 0,1l7 7c1,0 1,0 1,0l0 0c0,0 0,0 0,0 4,4 7,7 11,11l3 3c1,1 2,2 2,3 2,0 4,0 5,-1 1,-1 2,-3 3,-3l2 -2c0,0 0,0 0,0l13 -13c1,-1 2,-2 2,-2l24 -24c0,0 0,0 0,0 0,0 0,0 0,0 0,0 0,0 0,0l1 0c0,0 0,-1 0,-1 0,0 0,0 0,0 0,0 0,0 0,0l0 0c4,-3 7,-7 10,-10l2 -2c0,0 0,0 0,0 5,-4 9,-8 13,-13l3 -3c4,-3 7,-7 11,-10l3 -3c1,-2 2,-4 1,-6l-18 -18c-1,-1 -5,-5 -6,-6 -2,-2 -5,0 -6,1 -3,4 -6,7 -10,10 0,0 0,0 0,0l0 1c-1,0 -1,0 -1,0l-15 15c0,0 0,0 0,0 0,0 0,0 0,0 0,0 0,0 0,0 -4,4 -7,7 -10,10l-2 2c0,0 0,0 0,0l-12 12c0,0 0,0 -1,1l-14 14c-1,0 -1,0 -1,0 -4,4 -7,8 -11,12l-1 0c0,0 0,0 0,0 0,0 0,0 0,0l-5 5c-1,1 -3,4 -4,5 0,0 -1,1 -1,2z"/>
  </g>
 </g>
</svg>
