<?xml version="1.0" encoding="UTF-8"?>
<!DOCTYPE svg PUBLIC "-//W3C//DTD SVG 1.1//EN" "http://www.w3.org/Graphics/SVG/1.1/DTD/svg11.dtd">
<!-- Creator: CorelDRAW X7 -->
<svg xmlns="http://www.w3.org/2000/svg" xml:space="preserve" width="19.0324mm" height="19.1302mm" version="1.1" style="shape-rendering:geometricPrecision; text-rendering:geometricPrecision; image-rendering:optimizeQuality; fill-rule:evenodd; clip-rule:evenodd"
viewBox="0 0 398 400"
 xmlns:xlink="http://www.w3.org/1999/xlink">
 <defs>
  <style type="text/css">
   <![CDATA[
    .fil1 {fill:#9CCFFF}
    .fil0 {fill:#CBE9FB}
    .fil2 {fill:white}
   ]]>
  </style>
 </defs>
 <g id="Слой_x0020_1">
  <metadata id="CorelCorpID_0Corel-Layer"/>
  <path class="fil0" d="M186 0l212 0 0 399 -212 1c-103,0 -186,-89 -186,-200 0,-110 83,-200 186,-200z"/>
  <path class="fil1" d="M300 145l98 79 0 174 -148 0 -121 -118c1,0 2,0 3,0l6 -2c2,-1 6,-2 8,-2 0,0 1,0 1,-1l3 0c1,-1 1,-1 1,-1l4 -1c2,0 5,-1 7,-2 0,0 1,0 1,0l13 -3c1,-1 2,-1 2,-1l18 -5c0,0 1,0 1,0l8 -2c1,0 1,0 2,0l4 -2c1,0 1,0 1,0 2,0 4,-1 5,-2 0,0 0,0 0,0 0,0 0,0 0,0l10 -9c0,-1 0,-1 0,-1 0,0 1,0 1,-1l15 -15c3,-3 6,-6 9,-9 1,0 1,-1 1,-1 1,-1 3,-3 4,-3l9 -9c0,-1 0,-1 0,-1l2 -1c0,0 0,0 0,0l12 -13c0,0 0,0 0,0l2 -1c0,0 0,0 0,0l1 -1c0,0 0,0 0,0 0,0 0,0 0,0l0 -1c4,-3 7,-6 10,-10l1 0c0,-1 0,-1 0,-1 0,0 0,0 1,0l0 -1c1,-1 2,-1 3,-2l7 -7c0,-1 -5,-23 -5,-24z"/>
  <g id="_981421512">
   <path class="fil2" d="M127 276l0 0c0,1 0,2 0,3 2,1 3,1 5,1l6 -2c2,-1 6,-2 8,-2 0,0 1,0 1,-1l3 0c1,-1 1,-1 1,-1l4 -1c2,0 5,-1 7,-2 0,0 1,0 1,0l13 -3c1,-1 2,-1 2,-1l18 -5c0,0 1,0 1,0l8 -2c1,0 1,0 2,0l4 -2c1,0 1,0 1,0 2,0 4,-1 5,-2 0,0 0,0 0,0 0,0 0,0 0,0l10 -9c0,-1 0,-1 0,-1 0,0 1,0 1,-1l15 -15c3,-3 6,-6 9,-9 1,0 1,-1 1,-1 1,-1 3,-3 4,-3l9 -9c0,-1 0,-1 0,-1l2 -1c0,0 0,0 0,0l12 -13c0,0 0,0 0,0l2 -1c0,0 0,0 0,0l1 -1c0,0 0,0 0,0 0,0 0,0 0,0l0 -1c4,-3 7,-6 10,-10l1 0c0,-1 0,-1 0,-1 0,0 0,0 1,0l0 -1c1,-1 2,-1 3,-2l7 -7c1,-1 1,-2 1,-3l0 0c0,0 0,-1 0,-1 0,0 0,0 0,-1 0,-1 0,-3 -1,-5 0,-1 -1,-3 -1,-4 0,-1 -1,-2 -1,-3 0,-1 -1,-4 -2,-5 -1,-1 -2,0 -3,1 -2,1 -3,2 -4,4l-23 22c0,1 0,1 -1,1l-14 14c0,0 0,0 0,0l-24 24c0,0 -1,0 -1,0l-1 1c0,0 0,0 0,1 0,0 0,0 0,0l-9 9c-1,1 -2,2 -3,3l-1 1c0,0 0,0 0,0l-3 3c-2,1 -2,3 -2,5 0,3 0,3 0,5l3 8c0,1 -2,2 -2,2 0,1 -2,1 -2,1 -3,1 -6,1 -8,2l-14 4c-1,0 -1,0 -2,0l-13 4c0,-1 -3,-3 -3,-4 -2,-1 -4,-4 -5,-5l-2 -1c0,0 0,0 0,0l0 -1c0,0 0,0 0,0l-1 0c-3,-3 -6,-7 -10,-10l-3 -3c0,0 0,0 0,0l0 0c0,-1 0,-1 0,-1l-3 -3c-1,0 -2,-1 -2,-1 0,-3 1,-5 2,-7 0,0 0,-1 0,-1l1 -4c0,0 0,-1 0,-1l4 -13c0,-1 0,-1 0,-1l3 -11c0,0 0,0 1,-1 0,0 1,-1 1,-2l7 2c1,0 2,1 3,1 1,0 2,1 3,1 2,0 4,-1 5,-2 2,-1 7,-7 9,-9l14 -14c0,0 0,0 0,0 1,0 1,0 1,-1l0 0c0,0 0,0 0,0l1 -1c0,0 0,0 0,0 4,-3 7,-7 10,-10l3 -2c4,-4 8,-8 11,-12l1 0c0,0 0,0 0,0l1 -1c4,-4 8,-8 12,-12 0,-1 0,-1 0,-1 0,0 0,0 1,0l13 -13c0,-1 0,-1 0,-1l9 -9c2,-1 2,-3 0,-3 0,-1 -1,-1 -2,-1l-3 -1c-3,-1 -6,-2 -9,-2 -1,-1 -1,-1 -2,-1l-1 0c0,0 0,0 -1,0 0,0 0,0 -1,0 0,1 -1,0 -1,1 -2,1 -8,7 -10,9l-1 1c-2,2 -4,4 -6,6 -2,2 -4,4 -7,7l0 0c-4,4 -7,7 -11,11 0,1 -1,1 -1,1l-1 1c0,0 0,0 0,0l-17 16c-3,4 -6,7 -9,10 0,0 0,0 0,0 0,0 0,0 0,0 0,0 0,0 0,0l-2 2c0,0 0,0 0,0 0,0 0,0 0,0 0,0 0,0 0,0l-2 2c0,0 0,0 0,0 -2,2 -3,3 -5,5 -2,1 -3,3 -5,4l-4 5c-3,3 -6,6 -9,9 -2,1 -1,1 -2,3l-4 14c0,1 0,2 0,2 0,1 0,1 -1,1l0 3c0,0 0,0 -1,1l-3 12c-1,3 -2,6 -2,9 -1,1 -1,1 -1,1l0 3c-1,2 -2,5 -2,6 0,1 0,2 -1,2 0,2 0,3 -1,4l0 2c0,0 0,0 0,1 0,0 0,0 -1,1l-3 14c-1,2 -1,3 -2,5 0,0 0,2 0,2z"/>
   <path class="fil2" d="M179 201c0,1 0,1 1,2 0,0 0,0 0,1l7 6c1,1 1,1 1,1l0 0c0,0 0,0 0,0 4,3 7,7 11,10l3 4c0,0 2,2 2,2 2,1 3,0 5,0 0,-1 2,-3 3,-4l1 -1c0,0 0,0 0,0l14 -14c1,0 1,-1 2,-1l23 -24c0,0 0,0 0,0 0,0 0,0 0,0 0,0 0,0 0,0l1 0c0,0 0,0 0,0 0,0 0,-1 0,-1 0,0 0,0 0,0l0 0c4,-3 7,-7 11,-10l1 -2c0,0 0,0 0,0 5,-4 9,-8 13,-12l3 -3c4,-4 7,-8 11,-11l3 -3c1,-1 2,-4 1,-5l-18 -18c-1,-1 -5,-5 -6,-6 -2,-2 -4,0 -6,1 -3,3 -6,7 -9,10 -1,0 -1,0 -1,0l0 0c0,0 0,0 -1,1l-15 15c0,0 0,0 0,0 0,0 0,0 0,0 0,0 0,0 0,0 -3,3 -7,6 -10,10l-1 1c0,0 0,0 0,0l-12 12c-1,0 -1,1 -1,1l-15 14c0,0 0,0 0,1 -4,3 -7,7 -11,11l-1 0c0,0 0,0 0,0 0,0 0,0 0,0l-5 5c-1,1 -3,4 -4,5 0,0 -1,1 -1,2z"/>
  </g>
 </g>
</svg>
