<svg xmlns="http://www.w3.org/2000/svg" viewBox="0 0 126.11 126.77"><defs><style>.cls-1{fill:#d1d1d1;}.cls-1,.cls-2,.cls-3,.cls-4{fill-rule:evenodd;}.cls-2{fill:#d6d6d6;}.cls-3{fill:#c9c9c9;}.cls-4{fill:#fefefe;}</style></defs><title>edit-dark</title><g id="Слой_2" data-name="Слой 2"><g id="Слой_1-2" data-name="Слой 1"><path class="cls-1" d="M30.73,25.51a292.62,292.62,0,0,0,60,0l-30,34.84Z"/><path class="cls-2" d="M58.93,0h67.18V126.6l-67.18.17C26.39,126.77,0,98.39,0,63.38S26.39,0,58.93,0Z"/><path class="cls-3" d="M95.13,45.92l31,25.11v55.73H80.25L40.73,88.61a1.43,1.43,0,0,0,1-.06l2-.51c.6-.17,2-.57,2.55-.68a1,1,0,0,0,.28-.06L47.68,87l.28-.09,1.13-.28c.74-.23,1.53-.4,2.27-.62.09,0,.17,0,.28-.06l4.25-1.16a3.32,3.32,0,0,0,.57-.14l5.67-1.5a.9.9,0,0,0,.26-.09L65,82.37c.17,0,.34-.09.57-.14l1.39-.37.31-.09a3.44,3.44,0,0,0,1.42-.54.3.3,0,0,0,.09-.11c.06,0,0,0,.06,0l3-3a1.31,1.31,0,0,0,.2-.2l.17-.17L77,72.94,79.91,70a4.36,4.36,0,0,0,.37-.34c.28-.26.88-.85,1.11-1.08l2.86-2.86a1,1,0,0,1,.17-.17l.37-.37.09-.09,3.88-3.86s0-.06.09-.09l.4-.4.06-.06.26-.23v0c.06,0,.06-.06.11-.09l.17-.17c1-1,2-2,3.06-3.09l.28-.23a.3.3,0,0,1,.09-.11c.06,0,.06,0,.09-.09l.28-.26c.26-.23.48-.48.74-.74l2.13-2.15c.23-.2-1.47-7.46-1.36-7.65Z"/><path class="cls-4" d="M40.14,87.56v0a1,1,0,0,0,.26.82c.4.4.88.28,1.36.14l2-.51c.6-.17,2.07-.57,2.55-.68.09,0,.2-.06.28-.06L47.68,87l.28-.09,1.13-.28c.74-.23,1.53-.4,2.27-.62.09,0,.17,0,.28-.06l4.25-1.16a3.32,3.32,0,0,0,.57-.14l5.67-1.5a.9.9,0,0,0,.26-.09L65,82.37c.17,0,.34-.09.57-.14l1.39-.37.31-.09a3.44,3.44,0,0,0,1.42-.54.3.3,0,0,0,.09-.11c.06,0,0,0,.06,0l3-3a1.23,1.23,0,0,0,.2-.17l.17-.17L77,72.94,79.91,70a4.36,4.36,0,0,0,.37-.34c.28-.26.88-.85,1.11-1.08l2.86-2.86a1,1,0,0,1,.17-.17l.37-.37.09-.09,3.88-3.86s0-.06.09-.09l.4-.4.06-.06.26-.23v0c.06,0,.06-.06.11-.09l.17-.17c1-1,2-2,3.06-3.09l.28-.23a.3.3,0,0,1,.09-.11c.06,0,.06,0,.09-.09l.28-.26a8.7,8.7,0,0,0,.71-.74l2.15-2.15a1.35,1.35,0,0,0,.57-.88v-.11c0-.09,0-.17-.06-.26s0-.2,0-.34a7.42,7.42,0,0,0-.34-1.53c-.14-.48-.28-1-.43-1.47-.06-.26-.14-.48-.2-.74a4.69,4.69,0,0,0-.62-1.7c-.43-.31-.82,0-1.13.26s-.82.82-1.25,1.22L85.8,55.25c-.09.06-.06.06-.11.11L81.1,59.92S81,60,81,60l-7.63,7.57-.11.11-.26.26L73,68l-.23.23L70.1,70.84c-.34.34-.65.68-1,1l-.28.28-.06.06-1.11,1.08A2.66,2.66,0,0,0,67,74.83a4.28,4.28,0,0,0,.31,1.59L68,79c0,.11-.4.45-.48.54s-.51.23-.77.28c-.82.26-1.64.43-2.47.65l-4.54,1.22c-.17.06-.28.06-.43.11l-4.14,1.11A11.23,11.23,0,0,0,54,81.75c-.31-.34-1.25-1.3-1.59-1.59l-.34-.34L52,79.74l-.09-.09s0,0,0,0l-.17-.17c-1.08-1-2.13-2.1-3.2-3.17l-.91-.88v0l-.09-.09c-.06,0-.09-.09-.14-.14l-.88-.85c-.14-.14-.45-.48-.6-.6.17-.68.4-1.33.57-2a2.36,2.36,0,0,1,.11-.43L46.91,70c.06-.17.09-.28.11-.4l1.11-4.11c.06-.14.06-.26.11-.43l.88-3.26c.09-.2,0-.2.2-.37s.43-.4.51-.51l2,.51,1,.26a3.49,3.49,0,0,0,1.11.23,2.7,2.7,0,0,0,1.67-.57c.4-.34,2.21-2.21,2.69-2.69l4.56-4.51c0-.06,0,0,.06-.06L63,54l.17-.17v0l.31-.28v0c1.08-1,2.07-2,3.12-3.09l.79-.77c1.25-1.19,2.47-2.49,3.71-3.71l0,0a0,0,0,0,0,0,0l.28-.28C72.79,44.33,74.1,43,75.4,41.7l.11-.11s0,0,.06-.06l4.34-4.28c0-.06,0,0,.06-.06l2.86-2.86c.4-.4.43-.91-.06-1.19a2.62,2.62,0,0,0-.71-.26L81,32.6c-.74-.2-1.9-.54-2.58-.68a3,3,0,0,0-.74-.14h-.51a2.53,2.53,0,0,1-.31.06c-.31.06-.37,0-.62.14-.51.31-2.27,2.3-2.95,2.86l-.34.34c-.65.6-1.25,1.22-1.84,1.84s-1.45,1.47-2.18,2.18l-.09.09c-1.22,1.13-2.38,2.35-3.57,3.54a2.1,2.1,0,0,1-.37.34l-.37.37,0,0-5.07,5c-1,1-2,1.93-2.92,2.92a1,1,0,0,0-.17.17s0,0-.06,0h0l-.51.51s-.06,0-.09.09l0,0,0,0-.4.4c-.09.06-.11.11-.2.17-.48.51-1,1-1.45,1.47s-1,1-1.45,1.45l-1.47,1.45c-1,1-2,1.93-2.92,2.92a1.35,1.35,0,0,0-.51.94L46,65.74a4.14,4.14,0,0,1-.14.57c0,.11-.06.2-.09.28l-.23.88-.09.28-1,3.74c-.26,1-.6,2.07-.85,3.12,0,.11-.06.23-.09.31l-.23.85c-.11.48-.4,1.45-.54,2-.06.17-.11.4-.17.57-.09.43-.23.77-.31,1.16l-.14.57c0,.09-.06.17-.09.28s0,.17-.06.28l-1.25,4.59c-.11.48-.26,1-.4,1.45a6.31,6.31,0,0,0-.2.88Z"/><path class="cls-4" d="M56.83,63.64a1.19,1.19,0,0,0,.11.57c.06.14.14.17.23.28l2.21,2.18c.06.09.06.06.11.11l.06.06h0c1.13,1.11,2.24,2.24,3.34,3.34l1,1a9.93,9.93,0,0,0,.79.77,1.31,1.31,0,0,0,1.39-.2c.17-.14.79-.77,1-1l.45-.43h0L71.94,66l.57-.57,7.43-7.37v0h0v0l.2-.2a0,0,0,0,0,0,0h0v0l.09-.09c1.11-1,2.13-2.13,3.2-3.17L84,54l.06-.06c1.36-1.3,2.69-2.66,4-4l1-1c1.13-1.11,2.21-2.24,3.34-3.34l.91-.88c.45-.45.82-1.25.31-1.81l-5.61-5.56c-.34-.34-1.56-1.62-1.87-1.9-.65-.54-1.39-.14-1.9.37-1,1-2,2-3,3,0,0-.06,0-.06.06l-.17.14c-.09.06-.06.06-.11.11l-4.82,4.76v0a0,0,0,0,0,0,0h0C75,45,74,46.12,72.91,47.17l-.37.37-.06.06-3.83,3.8a1.31,1.31,0,0,1-.2.2l-4.62,4.56c-.06.06-.06.09-.11.11l-3.54,3.57L60,60a0,0,0,0,1,0,0h0L58.37,61.6A14.62,14.62,0,0,0,57.06,63a1.61,1.61,0,0,0-.23.68Z"/><path class="cls-1" d="M30.73,25.51a292.62,292.62,0,0,0,60,0l-30,34.84Z"/><path class="cls-2" d="M58.93,0h67.18V126.6l-67.18.17C26.39,126.77,0,98.39,0,63.38S26.39,0,58.93,0Z"/><path class="cls-3" d="M95.13,45.92l31,25.11v55.73H80.25L40.73,88.61a1.43,1.43,0,0,0,1-.06l2-.51c.6-.17,2-.57,2.55-.68a1,1,0,0,0,.28-.06L47.68,87l.28-.09,1.13-.28c.74-.23,1.53-.4,2.27-.62.09,0,.17,0,.28-.06l4.25-1.16a3.32,3.32,0,0,0,.57-.14l5.67-1.5a.9.9,0,0,0,.26-.09L65,82.37c.17,0,.34-.09.57-.14l1.39-.37.31-.09a3.44,3.44,0,0,0,1.42-.54.3.3,0,0,0,.09-.11c.06,0,0,0,.06,0l3-3a1.31,1.31,0,0,0,.2-.2l.17-.17L77,72.94,79.91,70a4.36,4.36,0,0,0,.37-.34c.28-.26.88-.85,1.11-1.08l2.86-2.86a1,1,0,0,1,.17-.17l.37-.37.09-.09,3.88-3.86s0-.06.09-.09l.4-.4.06-.06.26-.23v0c.06,0,.06-.06.11-.09l.17-.17c1-1,2-2,3.06-3.09l.28-.23a.3.3,0,0,1,.09-.11c.06,0,.06,0,.09-.09l.28-.26c.26-.23.48-.48.74-.74l2.13-2.15c.23-.2-1.47-7.46-1.36-7.65Z"/><path class="cls-4" d="M40.14,87.56v0a1,1,0,0,0,.26.82c.4.4.88.28,1.36.14l2-.51c.6-.17,2.07-.57,2.55-.68.09,0,.2-.06.28-.06L47.68,87l.28-.09,1.13-.28c.74-.23,1.53-.4,2.27-.62.09,0,.17,0,.28-.06l4.25-1.16a3.32,3.32,0,0,0,.57-.14l5.67-1.5a.9.9,0,0,0,.26-.09L65,82.37c.17,0,.34-.09.57-.14l1.39-.37.31-.09a3.44,3.44,0,0,0,1.42-.54.3.3,0,0,0,.09-.11c.06,0,0,0,.06,0l3-3a1.23,1.23,0,0,0,.2-.17l.17-.17L77,72.94,79.91,70a4.36,4.36,0,0,0,.37-.34c.28-.26.88-.85,1.11-1.08l2.86-2.86a1,1,0,0,1,.17-.17l.37-.37.09-.09,3.88-3.86s0-.06.09-.09l.4-.4.06-.06.26-.23v0c.06,0,.06-.06.11-.09l.17-.17c1-1,2-2,3.06-3.09l.28-.23a.3.3,0,0,1,.09-.11c.06,0,.06,0,.09-.09l.28-.26a8.7,8.7,0,0,0,.71-.74l2.15-2.15a1.35,1.35,0,0,0,.57-.88v-.11c0-.09,0-.17-.06-.26s0-.2,0-.34a7.42,7.42,0,0,0-.34-1.53c-.14-.48-.28-1-.43-1.47-.06-.26-.14-.48-.2-.74a4.69,4.69,0,0,0-.62-1.7c-.43-.31-.82,0-1.13.26s-.82.82-1.25,1.22L85.8,55.25c-.09.06-.06.06-.11.11L81.1,59.92S81,60,81,60l-7.63,7.57-.11.11-.26.26L73,68l-.23.23L70.1,70.84c-.34.34-.65.68-1,1l-.28.28-.06.06-1.11,1.08A2.66,2.66,0,0,0,67,74.83a4.28,4.28,0,0,0,.31,1.59L68,79c0,.11-.4.45-.48.54s-.51.23-.77.28c-.82.26-1.64.43-2.47.65l-4.54,1.22c-.17.06-.28.06-.43.11l-4.14,1.11A11.23,11.23,0,0,0,54,81.75c-.31-.34-1.25-1.3-1.59-1.59l-.34-.34L52,79.74l-.09-.09s0,0,0,0l-.17-.17c-1.08-1-2.13-2.1-3.2-3.17l-.91-.88v0l-.09-.09c-.06,0-.09-.09-.14-.14l-.88-.85c-.14-.14-.45-.48-.6-.6.17-.68.4-1.33.57-2a2.36,2.36,0,0,1,.11-.43L46.91,70c.06-.17.09-.28.11-.4l1.11-4.11c.06-.14.06-.26.11-.43l.88-3.26c.09-.2,0-.2.2-.37s.43-.4.51-.51l2,.51,1,.26a3.49,3.49,0,0,0,1.11.23,2.7,2.7,0,0,0,1.67-.57c.4-.34,2.21-2.21,2.69-2.69l4.56-4.51c0-.06,0,0,.06-.06L63,54l.17-.17v0l.31-.28v0c1.08-1,2.07-2,3.12-3.09l.79-.77c1.25-1.19,2.47-2.49,3.71-3.71l0,0a0,0,0,0,0,0,0l.28-.28C72.79,44.33,74.1,43,75.4,41.7l.11-.11s0,0,.06-.06l4.34-4.28c0-.06,0,0,.06-.06l2.86-2.86c.4-.4.43-.91-.06-1.19a2.62,2.62,0,0,0-.71-.26L81,32.6c-.74-.2-1.9-.54-2.58-.68a3,3,0,0,0-.74-.14h-.51a2.53,2.53,0,0,1-.31.06c-.31.06-.37,0-.62.14-.51.31-2.27,2.3-2.95,2.86l-.34.34c-.65.6-1.25,1.22-1.84,1.84s-1.45,1.47-2.18,2.18l-.09.09c-1.22,1.13-2.38,2.35-3.57,3.54a2.1,2.1,0,0,1-.37.34l-.37.37,0,0-5.07,5c-1,1-2,1.93-2.92,2.92a1,1,0,0,0-.17.17s0,0-.06,0h0l-.51.51s-.06,0-.09.09l0,0,0,0-.4.4c-.09.06-.11.11-.2.17-.48.51-1,1-1.45,1.47s-1,1-1.45,1.45l-1.47,1.45c-1,1-2,1.93-2.92,2.92a1.35,1.35,0,0,0-.51.94L46,65.74a4.14,4.14,0,0,1-.14.57c0,.11-.06.2-.09.28l-.23.88-.09.28-1,3.74c-.26,1-.6,2.07-.85,3.12,0,.11-.06.23-.09.31l-.23.85c-.11.48-.4,1.45-.54,2-.06.17-.11.4-.17.57-.09.43-.23.77-.31,1.16l-.14.57c0,.09-.06.17-.09.28s0,.17-.06.28l-1.25,4.59c-.11.48-.26,1-.4,1.45a6.31,6.31,0,0,0-.2.88Z"/><path class="cls-4" d="M56.83,63.64a1.19,1.19,0,0,0,.11.57c.06.14.14.17.23.28l2.21,2.18c.06.09.06.06.11.11l.06.06h0c1.13,1.11,2.24,2.24,3.34,3.34l1,1a9.93,9.93,0,0,0,.79.77,1.31,1.31,0,0,0,1.39-.2c.17-.14.79-.77,1-1l.45-.43h0L71.94,66l.57-.57,7.43-7.37v0h0v0l.2-.2a0,0,0,0,0,0,0h0v0l.09-.09c1.11-1,2.13-2.13,3.2-3.17L84,54l.06-.06c1.36-1.3,2.69-2.66,4-4l1-1c1.13-1.11,2.21-2.24,3.34-3.34l.91-.88c.45-.45.82-1.25.31-1.81l-5.61-5.56c-.34-.34-1.56-1.62-1.87-1.9-.65-.54-1.39-.14-1.9.37-1,1-2,2-3,3,0,0-.06,0-.06.06l-.17.14c-.09.06-.06.06-.11.11l-4.82,4.76v0a0,0,0,0,0,0,0h0C75,45,74,46.12,72.91,47.17l-.37.37-.06.06-3.83,3.8a1.31,1.31,0,0,1-.2.2l-4.62,4.56c-.06.06-.06.09-.11.11l-3.54,3.57L60,60a0,0,0,0,1,0,0h0L58.37,61.6A14.62,14.62,0,0,0,57.06,63a1.61,1.61,0,0,0-.23.68Z"/></g></g></svg>