<?xml version="1.0" encoding="UTF-8"?>
<!DOCTYPE svg PUBLIC "-//W3C//DTD SVG 1.1//EN" "http://www.w3.org/Graphics/SVG/1.1/DTD/svg11.dtd">
<!-- Creator: CorelDRAW X7 -->
<svg xmlns="http://www.w3.org/2000/svg" xml:space="preserve" width="19.0324mm" height="19.1302mm" version="1.1" style="shape-rendering:geometricPrecision; text-rendering:geometricPrecision; image-rendering:optimizeQuality; fill-rule:evenodd; clip-rule:evenodd"
viewBox="0 0 406 408"
 xmlns:xlink="http://www.w3.org/1999/xlink">
 <defs>
  <style type="text/css">
   <![CDATA[
    .fil1 {fill:#0099FF}
    .fil0 {fill:#21B9FF}
    .fil2 {fill:white}
   ]]>
  </style>
 </defs>
 <g id="Слой_x0020_1">
  <metadata id="CorelCorpID_0Corel-Layer"/>
  <path class="fil0" d="M190 0l216 0 0 407 -216 1c-105,0 -190,-92 -190,-204 0,-113 85,-204 190,-204z"/>
  <path class="fil1" d="M306 148l100 80 0 178 -151 -1 -124 -120c1,0 2,0 3,0l7 -2c1,0 6,-2 8,-2 0,0 0,0 1,0l3 -1c1,0 1,0 1,-1l4 0c2,-1 5,-2 7,-2 0,-1 1,-1 1,-1l14 -3c0,0 1,-1 2,-1l18 -5c0,0 0,0 1,0l8 -2c0,0 1,0 2,-1l4 -1c1,0 1,0 1,0 2,0 4,-1 5,-2 0,0 0,0 0,0 0,0 0,0 0,0l10 -10c0,0 0,0 1,0 0,-1 0,-1 0,-1l16 -15c3,-4 6,-7 9,-10 0,0 1,-1 1,-1 1,-1 3,-3 4,-3l9 -10c0,0 0,0 0,0l2 -1c0,0 0,0 0,0l12 -13c0,0 1,0 1,0l1 -1c0,-1 0,-1 0,-1l1 0c0,0 0,0 0,0 0,-1 0,-1 0,-1l1 0c3,-4 6,-7 10,-10l1 -1c0,0 0,0 0,0 0,0 0,0 0,-1l1 0c1,-1 2,-2 2,-3l7 -7c1,0 -4,-24 -4,-24z"/>
  <g id="_652607584">
   <path class="fil2" d="M129 282l0 0c0,1 0,2 1,2 1,2 3,1 4,1l7 -2c1,0 6,-2 8,-2 0,0 0,0 1,0l3 -1c1,0 1,0 1,-1l4 0c2,-1 5,-2 7,-2 0,-1 1,-1 1,-1l14 -3c0,0 1,-1 2,-1l18 -5c0,0 0,0 1,0l8 -2c0,0 1,0 2,-1l4 -1c1,0 1,0 1,0 2,0 4,-1 5,-2 0,0 0,0 0,0 0,0 0,0 0,0l10 -10c0,0 0,0 1,0 0,-1 0,-1 0,-1l16 -15c3,-4 6,-7 9,-10 0,0 1,-1 1,-1 1,-1 3,-3 4,-3l9 -10c0,0 0,0 0,0l2 -1c0,0 0,0 0,0l12 -13c0,0 1,0 1,0l1 -1c0,-1 0,-1 0,-1l1 0c0,0 0,0 0,0 0,-1 0,-1 0,-1l1 0c3,-4 6,-7 10,-10l1 -1c0,0 0,0 0,0 0,0 0,0 0,-1l1 0c1,-1 2,-2 2,-3l7 -7c1,-1 2,-1 2,-3l0 0c0,0 0,0 0,-1 0,0 0,0 0,-1 0,-1 -1,-3 -1,-5 -1,-1 -1,-3 -1,-4 -1,-1 -1,-2 -1,-3 0,-1 -1,-4 -2,-5 -1,-1 -3,0 -4,0 -1,2 -2,3 -4,4l-23 24c0,0 0,0 0,0l-15 15c0,0 0,0 0,0l-25 24c0,0 0,0 0,1l-1 0c0,0 0,0 0,1 -1,0 -1,0 -1,0l-9 9c-1,1 -2,2 -3,3l-1 1c0,0 0,0 0,0l-3 4c-2,1 -2,3 -2,5 0,2 0,2 0,5l3 8c0,0 -2,2 -2,2 0,0 -2,0 -2,1 -3,0 -6,1 -8,2l-15 4c0,0 -1,0 -1,0l-14 4c0,-1 -2,-3 -3,-4 -1,-1 -4,-4 -5,-5l-1 -1c-1,0 -1,0 -1,-1l0 0c0,0 0,0 0,0l-1 0c-3,-4 -7,-7 -10,-11l-3 -3c0,0 0,0 0,0l0 0c0,0 0,0 -1,0l-2 -3c-1,-1 -2,-2 -2,-2 0,-2 1,-4 1,-7 1,0 1,0 1,-1l1 -4c0,0 0,-1 0,-1l4 -13c0,-1 0,-1 0,-2l3 -10c0,-1 0,-1 1,-1 0,-1 1,-2 1,-2l7 2c1,0 2,0 3,1 1,0 2,0 3,0 3,0 4,0 6,-2 1,-1 7,-7 8,-8l15 -15c0,0 0,0 0,0 0,0 0,0 1,0l0 -1c0,0 0,0 0,0l1 -1c0,0 0,0 0,0 4,-3 7,-6 10,-10l3 -2c4,-4 8,-8 12,-12l0 0c0,0 0,0 0,0l1 -1c4,-4 8,-9 12,-13 1,0 1,0 1,0 0,0 0,0 0,0l14 -14c0,0 0,0 0,0l9 -10c2,-1 2,-3 0,-3 0,-1 -1,-1 -2,-1l-4 -1c-2,-1 -6,-2 -8,-2 -1,-1 -1,-1 -2,-1l-1 0c0,0 -1,0 -1,0 0,0 -1,0 -1,0 -1,1 -1,0 -2,1 -1,1 -7,7 -9,9l-1 1c-3,2 -4,4 -6,6 -3,2 -5,5 -7,7l-1 0c-4,4 -7,8 -11,12 -1,0 -1,1 -1,1l-2 1c0,0 0,0 0,0l-16 16c-3,3 -6,7 -9,10 -1,0 -1,0 -1,0 0,0 0,0 0,0 0,0 0,0 0,0l-2 2c0,0 0,0 0,0 0,0 0,0 0,0 0,0 0,0 0,0l-1 2c-1,0 -1,0 -1,0 -2,2 -3,3 -5,5 -1,2 -3,3 -4,5l-5 4c-3,3 -6,7 -10,10 -1,1 -1,1 -1,3l-4 14c0,1 0,2 -1,2 0,1 0,1 0,1l-1 3c0,0 0,1 0,1l-3 12c-1,3 -2,7 -3,10 0,0 0,1 0,1l-1 3c0,1 -1,4 -2,6 0,1 0,1 0,2 0,1 -1,2 -1,4l-1 1c0,1 0,1 0,1 0,1 0,1 0,1l-4 15c0,2 -1,3 -1,5 0,0 -1,2 -1,3z"/>
   <path class="fil2" d="M183 205c0,0 0,1 0,1 0,1 1,1 1,1l7 7c0,1 0,1 0,1l1 0c0,0 0,0 0,0 3,3 7,7 10,11l4 3c0,1 2,2 2,2 2,1 3,1 5,0 0,-1 2,-3 3,-3l1 -2c0,0 0,0 0,0l14 -14c1,0 2,-1 2,-1l24 -24c0,0 0,0 0,0 0,0 0,0 0,0 0,0 0,0 0,0l1 -1c0,0 0,0 0,0 0,0 0,0 0,0 0,0 0,0 0,0l0 0c4,-4 7,-7 11,-11l1 -1c0,0 0,0 0,0 5,-5 9,-9 13,-13l4 -3c3,-4 7,-8 10,-11l3 -3c2,-2 3,-4 1,-6l-18 -18c-1,-1 -5,-5 -6,-6 -2,-2 -4,0 -6,1 -3,4 -6,7 -10,10 0,0 0,0 0,0l0 1c-1,0 0,0 -1,0l-15 15c0,0 0,0 0,0 0,0 0,0 0,0 0,0 0,0 0,0 -4,4 -7,7 -11,11l-1 1c0,0 0,0 0,0l-12 12c0,1 -1,1 -1,1l-15 15c0,0 0,0 0,0 -4,4 -8,8 -12,11l0 1c0,0 0,0 0,0 0,0 0,0 0,0l-5 5c-1,1 -4,3 -4,4 -1,1 -1,2 -1,3z"/>
  </g>
 </g>
</svg>
