<?xml version="1.0" encoding="UTF-8"?>
<!DOCTYPE svg PUBLIC "-//W3C//DTD SVG 1.1//EN" "http://www.w3.org/Graphics/SVG/1.1/DTD/svg11.dtd">
<!-- Creator: CorelDRAW X7 -->
<svg xmlns="http://www.w3.org/2000/svg" xml:space="preserve" width="19.0606mm" height="19.1622mm" version="1.1" style="shape-rendering:geometricPrecision; text-rendering:geometricPrecision; image-rendering:optimizeQuality; fill-rule:evenodd; clip-rule:evenodd"
viewBox="0 0 225 226"
 xmlns:xlink="http://www.w3.org/1999/xlink">
 <defs>
  <style type="text/css">
   <![CDATA[
    .fil0 {fill:#154470}
    .fil1 {fill:#193463}
    .fil2 {fill:#BD2F00;fill-rule:nonzero}
   ]]>
  </style>
 </defs>
 <g id="Слой_x0020_1">
  <metadata id="CorelCorpID_0Corel-Layer"/>
  <path class="fil0" d="M105 0l120 0 0 226 -120 0c-58,0 -105,-50 -105,-113 0,-62 47,-113 105,-113z"/>
  <path class="fil1" d="M134 88l17 -8 74 73 0 73 -53 0 -59 -67c2,3 13,-70 21,-71z"/>
  <path class="fil2" d="M114 90c5,-11 11,-17 22,-17 12,0 22,10 22,22 0,22 -22,43 -44,65 -22,-22 -44,-43 -44,-65 0,-12 10,-22 22,-22 11,0 16,6 22,17z"/>
 </g>
</svg>
