<?xml version="1.0" encoding="UTF-8"?>
<!DOCTYPE svg PUBLIC "-//W3C//DTD SVG 1.1//EN" "http://www.w3.org/Graphics/SVG/1.1/DTD/svg11.dtd">
<!-- Creator: CorelDRAW X7 -->
<svg xmlns="http://www.w3.org/2000/svg" xml:space="preserve" width="19.0606mm" height="19.1622mm" version="1.1" style="shape-rendering:geometricPrecision; text-rendering:geometricPrecision; image-rendering:optimizeQuality; fill-rule:evenodd; clip-rule:evenodd"
viewBox="0 0 220 221"
 xmlns:xlink="http://www.w3.org/1999/xlink">
 <defs>
  <style type="text/css">
   <![CDATA[
    .fil1 {fill:#9CCFFF}
    .fil0 {fill:#CBE9FB}
    .fil2 {fill:white;fill-rule:nonzero}
   ]]>
  </style>
 </defs>
 <g id="Слой_x0020_1">
  <metadata id="CorelCorpID_0Corel-Layer"/>
  <path class="fil0" d="M103 0l117 0 0 221 -117 0c-57,0 -103,-49 -103,-110 0,-61 46,-111 103,-111z"/>
  <path class="fil1" d="M132 86l16 -8 72 72 0 71 -51 0 -59 -66c3,4 14,-68 22,-69z"/>
  <path class="fil2" d="M111 88c6,-11 11,-16 22,-16 12,0 21,9 21,21 0,21 -21,42 -43,64 -21,-22 -43,-43 -43,-64 0,-12 10,-21 22,-21 11,0 16,5 21,16z"/>
 </g>
</svg>
