<?xml version="1.0" encoding="UTF-8"?>
<!DOCTYPE svg PUBLIC "-//W3C//DTD SVG 1.1//EN" "http://www.w3.org/Graphics/SVG/1.1/DTD/svg11.dtd">
<!-- Creator: CorelDRAW X7 -->
<svg xmlns="http://www.w3.org/2000/svg" xml:space="preserve" width="19.5626mm" height="18.025mm" version="1.1" style="shape-rendering:geometricPrecision; text-rendering:geometricPrecision; image-rendering:optimizeQuality; fill-rule:evenodd; clip-rule:evenodd"
viewBox="0 0 585 539"
 xmlns:xlink="http://www.w3.org/1999/xlink">
 <defs>
  <style type="text/css">
   <![CDATA[
    .fil1 {fill:#7AC9F1}
    .fil0 {fill:white}
    .fil2 {fill:white;fill-rule:nonzero}
   ]]>
  </style>
 </defs>
 <g id="Слой_x0020_1">
  <metadata id="CorelCorpID_0Corel-Layer"/>
  <path class="fil0" d="M4 442l17 -127 42 153 -44 -6c-10,-1 -16,-10 -15,-20zm22 -162l17 -124 221 -60 11 1 0 21 17 -5 0 -14 27 4 0 2 5 -1 189 26 44 163 -17 130 -271 73 -191 -26 -52 -190zm502 -148l33 4c9,1 16,10 15,20l-14 103 -34 -127zm10 305l-11 76c-1,10 -10,17 -20,16l-203 -28 234 -64zm-493 -296l8 -56c1,-10 10,-17 20,-16l157 22 -185 50z"/>
  <rect class="fil1" transform="matrix(0.07428 0.273821 -0.273821 0.07428 478.505 62.0372)" width="1281" height="1708" rx="21" ry="21"/>
  <path class="fil2" d="M492 53l92 340 0 1c1,4 0,8 -2,12 -2,4 -6,7 -11,8l-456 124c-5,1 -10,0 -14,-2 -4,-2 -7,-6 -8,-11l0 0 -92 -339 0 0c-2,-5 -1,-10 1,-14 3,-4 7,-7 11,-8l262 -71 0 25 -249 68 89 327 444 -121 -89 -327 -134 37 0 -26 134 -36c4,-1 9,-1 13,2 4,2 8,6 9,11zm-173 53l-27 7 0 -25 27 -7 0 25z"/>
  <path class="fil2" d="M339 278l0 -141c0,-17 10,-27 23,-32 5,-2 10,-3 15,-3 5,0 10,1 15,3 13,4 23,15 23,32l1 153c0,27 -16,44 -37,51 -8,3 -16,4 -25,4 -8,0 -16,-1 -24,-4 -21,-7 -38,-24 -38,-51l0 -221c0,-24 10,-41 25,-53 9,-7 21,-12 33,-15 12,-2 25,-1 36,1 17,5 31,15 38,30 1,2 4,6 2,7l-27 6c-3,-6 -11,-14 -20,-16 -7,-2 -16,-2 -24,0 -8,1 -15,4 -21,9 -9,7 -15,17 -15,31l1 221c0,13 8,21 19,25 5,2 10,3 15,3 5,0 11,-1 16,-3 10,-4 18,-12 18,-24l-1 -154c0,-3 -2,-5 -5,-6 -1,-1 -3,-1 -5,-1 -2,0 -4,0 -5,1 -3,1 -5,3 -5,6l0 138c0,0 0,1 0,2 0,8 -6,14 -14,14 -7,0 -13,-6 -14,-13l0 0z"/>
 </g>
</svg>
