<?xml version="1.0" encoding="UTF-8"?>
<!DOCTYPE svg PUBLIC "-//W3C//DTD SVG 1.1//EN" "http://www.w3.org/Graphics/SVG/1.1/DTD/svg11.dtd">
<!-- Creator: CorelDRAW X7 -->
<svg xmlns="http://www.w3.org/2000/svg" xml:space="preserve" width="26.4942mm" height="26.3598mm" version="1.1" style="shape-rendering:geometricPrecision; text-rendering:geometricPrecision; image-rendering:optimizeQuality; fill-rule:evenodd; clip-rule:evenodd"
viewBox="0 0 1390 1383"
 xmlns:xlink="http://www.w3.org/1999/xlink">
 <defs>
  <style type="text/css">
   <![CDATA[
    .fil2 {fill:#FEFEFE}
    .fil4 {fill:#F4FAFE}
    .fil1 {fill:#067DBD}
    .fil0 {fill:#77CFF7}
    .fil3 {fill:white}
    .fil5 {fill:white;fill-rule:nonzero}
   ]]>
  </style>
 </defs>
 <g id="Слой_x0020_1">
  <metadata id="CorelCorpID_0Corel-Layer"/>
  <path class="fil0" d="M691 0c-382,-1 -691,309 -691,691 0,381 309,689 691,690l699 2 -9 -692 9 -689 -699 -2z"/>
  <polygon class="fil1" points="540,547 939,548 1013,611 1102,594 1390,882 1390,1372 885,1372 461,961 "/>
  <rect class="fil2" x="1013" y="586" width="95.3701" height="365.472" rx="25" ry="88"/>
  <path class="fil3" d="M980 946c-9,6 -22,13 -42,18 -98,25 -163,15 -267,16 -39,0 -151,5 -183,-2 -22,-4 -36,-25 -37,-48 -1,-41 28,-50 45,-59 -18,-8 -66,-1 -71,-63 2,-41 22,-45 45,-59 -46,-14 -61,-18 -61,-63 0,-42 30,-48 61,-55 -13,-9 -38,-8 -44,-44 -5,-27 1,-47 22,-59 20,-12 130,-7 161,-7 28,0 74,6 76,-7 -23,-79 -61,-80 -70,-150 -5,-39 13,-114 55,-124 18,1 19,20 22,33 27,134 135,151 221,245 49,54 42,58 67,100l0 328z"/>
  <path class="fil4" d="M1049 327c-3,-1 -7,-5 -10,-7 -3,-4 -5,-6 -9,-9l-28 -24c-4,-3 -8,-6 -13,-4 -3,1 -16,11 -16,20 0,10 29,39 36,49l30 35c17,22 21,5 44,-27l70 -100c15,-20 18,-22 4,-33 -13,-10 -14,-10 -24,1l-84 99z"/>
  <path class="fil5" d="M1070 135c48,0 91,19 122,51 32,31 51,74 51,122 0,48 -19,91 -51,123 -31,31 -74,51 -122,51 -48,0 -91,-20 -123,-51 -31,-32 -51,-75 -51,-123 0,-48 20,-91 51,-122 32,-32 75,-51 123,-51zm106 67c-27,-27 -65,-44 -106,-44 -42,0 -79,17 -107,44 -27,27 -44,65 -44,106 0,42 17,79 44,107 28,27 65,44 107,44 41,0 79,-17 106,-44 27,-28 44,-65 44,-107 0,-41 -17,-79 -44,-106z"/>
 </g>
</svg>
