<?xml version="1.0" encoding="UTF-8"?>
<!DOCTYPE svg PUBLIC "-//W3C//DTD SVG 1.1//EN" "http://www.w3.org/Graphics/SVG/1.1/DTD/svg11.dtd">
<!-- Creator: CorelDRAW X7 -->
<svg xmlns="http://www.w3.org/2000/svg" xml:space="preserve" width="17.4289mm" height="13.5554mm" version="1.1" style="shape-rendering:geometricPrecision; text-rendering:geometricPrecision; image-rendering:optimizeQuality; fill-rule:evenodd; clip-rule:evenodd"
viewBox="0 0 247 192"
 xmlns:xlink="http://www.w3.org/1999/xlink">
 <defs>
  <style type="text/css">
   <![CDATA[
    .fil4 {fill:none}
    .fil0 {fill:#45A7DE}
    .fil1 {fill:#A6D3F2;fill-rule:nonzero}
    .fil2 {fill:#1E78B0;fill-rule:nonzero}
    .fil3 {fill:white;fill-rule:nonzero}
   ]]>
  </style>
   <clipPath id="id0">
    <path d="M247 0l-247 0 0 192 247 0 0 -192z"/>
   </clipPath>
 </defs>
 <g id="Слой_x0020_1">
  <metadata id="CorelCorpID_0Corel-Layer"/>
  <polygon class="fil0" points="247,0 0,0 0,192 247,192 "/>
  <g style="clip-path:url(#id0)">
   <g id="_815959336">
    <path id="1" class="fil1" d="M185 101l8 -4 3 -49 -4 -3 -86 6 -47 -7 -5 4 -97 150c0,61 129,3 187,14l52 -77 -11 -34z"/>
    <path class="fil2" d="M54 131l0 -83 -103 150c0,61 133,7 191,17l54 -80 -6 0 -131 0 -5 -4z"/>
    <polygon class="fil2" points="64,138 -3,230 117,251 196,135 65,135 "/>
    <path class="fil3" d="M59 44c44,0 89,0 134,0 -2,2 -4,3 -6,5 -20,16 -40,32 -60,48 -1,0 -2,0 -2,0 -17,-14 -34,-27 -51,-41 -5,-4 -11,-7 -15,-12z"/>
    <path class="fil3" d="M54 48c2,1 5,3 7,5 15,12 30,24 46,36 -17,14 -34,27 -51,41 -1,0 -1,1 -2,1l0 -83z"/>
    <path class="fil3" d="M196 135l1 -88c-8,6 -50,39 -53,42 1,1 8,7 16,14l36 32z"/>
    <path class="fil3" d="M157 107c-1,-1 -2,-2 -3,-3 -5,-3 -9,-7 -13,-10 -1,0 -1,-1 -2,-1 -5,4 -9,8 -14,11 -5,-3 -9,-8 -14,-11 -2,1 -4,3 -6,5 -9,7 -17,14 -26,20 -7,6 -14,11 -21,17l132 0 -33 -28z"/>
   </g>
  </g>
  <polygon class="fil4" points="247,0 0,0 0,192 247,192 "/>
 </g>
</svg>
