<?xml version="1.0" encoding="UTF-8"?>
<!DOCTYPE svg PUBLIC "-//W3C//DTD SVG 1.1//EN" "http://www.w3.org/Graphics/SVG/1.1/DTD/svg11.dtd">
<!-- Creator: CorelDRAW X7 -->
<svg xmlns="http://www.w3.org/2000/svg" xml:space="preserve" width="17.7118mm" height="17.6278mm" version="1.1" style="shape-rendering:geometricPrecision; text-rendering:geometricPrecision; image-rendering:optimizeQuality; fill-rule:evenodd; clip-rule:evenodd"
viewBox="0 0 3143 3128"
 xmlns:xlink="http://www.w3.org/1999/xlink">
 <defs>
  <style type="text/css">
   <![CDATA[
    .fil1 {fill:#1E78B0}
    .fil0 {fill:#8BD2F5}
    .fil2 {fill:white}
   ]]>
  </style>
 </defs>
 <g id="Слой_x0020_1">
  <metadata id="CorelCorpID_0Corel-Layer"/>
  <path class="fil0" d="M1562 0c-863,-2 -1562,699 -1562,1562 0,863 699,1560 1562,1562l1581 4 -19 -1566 19 -1558 -1581 -4z"/>
  <path class="fil1" d="M1164 1969c145,-52 303,-293 441,-294l125 0c210,-1 486,-80 748,-206l665 503 0 1156 -1181 -3 -798 -1156z"/>
  <path class="fil2" d="M1187 1001l1290 447c24,22 24,54 0,76l-1296 466c-25,22 -60,26 -84,4l-11 -9c-20,-19 -24,-42 -2,-58l293 -354 516 -94 -515 -100 -288 -314c-21,-19 -17,-41 3,-61l11 -8c24,-22 59,-17 83,5l0 0z"/>
 </g>
</svg>
