<?xml version="1.0" encoding="UTF-8"?>
<!DOCTYPE svg PUBLIC "-//W3C//DTD SVG 1.1//EN" "http://www.w3.org/Graphics/SVG/1.1/DTD/svg11.dtd">
<!-- Creator: CorelDRAW X7 -->
<svg xmlns="http://www.w3.org/2000/svg" xml:space="preserve" width="17.7118mm" height="17.6278mm" version="1.1" style="shape-rendering:geometricPrecision; text-rendering:geometricPrecision; image-rendering:optimizeQuality; fill-rule:evenodd; clip-rule:evenodd"
viewBox="0 0 2980 2966"
 xmlns:xlink="http://www.w3.org/1999/xlink">
 <defs>
  <style type="text/css">
   <![CDATA[
    .fil1 {fill:#008DD9}
    .fil0 {fill:#8FDDFF}
    .fil2 {fill:white}
   ]]>
  </style>
 </defs>
 <g id="Слой_x0020_1">
  <metadata id="CorelCorpID_0Corel-Layer"/>
  <path class="fil0" d="M1481 0c-818,-2 -1481,663 -1481,1481 0,818 663,1479 1481,1481l1499 4 -18 -1485 18 -1477 -1499 -4z"/>
  <path class="fil1" d="M1103 1866c138,-49 288,-277 419,-278l118 0c199,-1 461,-76 709,-195l631 476 0 1097 -1120 -3 -757 -1097z"/>
  <path class="fil2" d="M1126 949l1222 424c23,20 23,51 0,72l-1228 442c-24,20 -57,25 -79,4l-11 -9c-19,-18 -23,-40 -2,-55l277 -335 489 -90 -488 -95 -272 -298c-21,-17 -17,-38 2,-57l11 -8c22,-20 55,-16 79,5l0 0z"/>
 </g>
</svg>
