<svg xmlns="http://www.w3.org/2000/svg" viewBox="0 0 259.23 128.21"><defs><style>.cls-1{fill:#1166ab;}.cls-1,.cls-2,.cls-3,.cls-4{fill-rule:evenodd;}.cls-2{fill:#fefefe;}.cls-3{fill:#e4e4e4;}.cls-4{fill:#fffadd;}</style></defs><title>logo</title><g id="Слой_2" data-name="Слой 2"><g id="Слой_1-2" data-name="Слой 1"><path class="cls-1" d="M88.19,19,84.64,32.51l-22,.11-1.13,4.08.06.34H83.91L80.33,48.42l-22.08.14-.77,3.09L79,51.73,75,65.17l-38.83.2S43.94,40.08,49,19.16Z"/><path class="cls-1" d="M61.2,39.51a6.85,6.85,0,0,0-.43,2.07l.06.34h18c.43-1.42.65-2.24.71-2.41Z"/><polygon class="cls-1" points="83.99 24.43 84.84 21.03 51.56 21.26 38.92 64.49 43.43 64.26 54.09 24.55 83.99 24.43"/><path class="cls-1" d="M151.17,19l18.23,0-4.28,17.55a22.29,22.29,0,0,0,6.32-1.33l3.66-16.21,20.38.14-9.81,46-21.26.23,4.28-16.64c0-.06-.17-.09-.4-.09a20,20,0,0,0-3.4.51,8.5,8.5,0,0,0-2.81.85l-3.8,15.25-15.93,0Z"/><path class="cls-1" d="M145.22,63.69l3.46-1,7.77-39.66s5.87-.43,10.8-.71l.79-2.64s-8.87-.4-13.41.62l-.79.34c.2,0-8.62,43-8.62,43Z"/><path class="cls-1" d="M174.64,49.27a18.09,18.09,0,0,0-3.4.51l-.6.11-3.83,13.83,4.62-.85,3.63-13.52q0-.09-.43-.09Z"/><path class="cls-1" d="M176.85,40.11l3.94-17.57,11.85.65c.34-1,.62-1.7,1-2.72l-16.47-.31L173.25,37.7c-.57.2-9,1.67-9.64,1.84l-.94,3.2a113.2,113.2,0,0,0,14.17-2.64Z"/><path class="cls-1" d="M159.56,79.2c4.54-1,18.06-.51,18.06-.51l-6,20.13A23.31,23.31,0,0,0,178,97.48L182.52,79l21.83-.37L188.67,127.9,171,127.67,175.27,111a1.12,1.12,0,0,0-.43-.06,20,20,0,0,0-3.4.48,10.65,10.65,0,0,0-2.81.85l-3.8,15.25-17.18.23,10.71-48.25Z"/><path class="cls-1" d="M151.8,125.89l3.43-1L163,85.24s5.87-.4,10.8-.68l.79-2.64s-8.87-.43-13.41.62l-.79.34c.23,0-8.59,43-8.59,43Z"/><path class="cls-1" d="M181.19,111.46a19.44,19.44,0,0,0-3.37.48c-.23.06-.43.09-.6.14l-3.86,13.8L178,125l3.63-13.52a.91.91,0,0,0-.43-.06Z"/><path class="cls-1" d="M183.4,102.27l5-17.74,11.2-.26c.37-1,.71-2,1.08-3.06l-15.87.91-5,17.77c-.57.2-9,1.64-9.61,1.81l-1,3.23c2.35-.2,12.3-2,14.17-2.66Z"/><path class="cls-1" d="M12.53,79.06C17.06,78,58,79,58,79L46.32,128l-18.23-.06,8.73-34.53c-.06,0-3.86,0-4.08,0a20,20,0,0,0-3.4.48,10.65,10.65,0,0,0-2.81.85L18.88,128.1,3,128Z"/><path class="cls-1" d="M8.16,126.74l3.43-1,7.77-39.66s28-1.19,32.91-1.47l.79-2.66s-31,.43-35.52,1.45l-.79.34c.23,0-8.59,43-8.59,43Z"/><path class="cls-1" d="M43.17,93.23a18.09,18.09,0,0,0-3.4.51c-.23,0-.4.09-.6.11l-8.33,33.25,4.62-.85L43.6,93.32a.67.67,0,0,0-.43-.09Z"/><path class="cls-1" d="M213.53,42a10.74,10.74,0,0,0-.28,2.21,5.35,5.35,0,0,0,1.84,4.34,7,7,0,0,0,4.59,1.5,11.5,11.5,0,0,0,8.73-3.88,11.38,11.38,0,0,0,3.29-7.8,5.71,5.71,0,0,0-1.59-4.22,6.3,6.3,0,0,0-4.79-1.67,11.65,11.65,0,0,0-7,2.69A12.22,12.22,0,0,0,213.53,42Zm14.54-26.82c6.15,0,11,1.39,14.57,4.17,4.11,3.17,6.26,7.94,6.43,14.34a25.32,25.32,0,0,1-.62,6.24,32.57,32.57,0,0,1-8.08,14.54,41.73,41.73,0,0,1-12.93,9.3,33.17,33.17,0,0,1-14,3.34,23.88,23.88,0,0,1-14.91-4.68,16.69,16.69,0,0,1-6.83-14.06,24.83,24.83,0,0,1,.74-6q2.93-12.2,14.51-20.1c6.89-4.73,13.92-7.11,21.15-7.11Z"/><path class="cls-1" d="M201.32,62.11a21.31,21.31,0,0,0,2.75,1.73,15.58,15.58,0,0,1-5.92-12.73,24.08,24.08,0,0,1,.71-5.56c1.81-7.6,6.35-13.83,13.55-18.77q9.61-6.59,19.7-6.6A24.44,24.44,0,0,1,243,22.39c-.2-.17-.37-.34-.54-.48C239.19,19.33,234.62,18,228.9,18q-10.08,0-19.7,6.63a38.26,38.26,0,0,0-5.92,5c-3.74,3.49-10.09,13.69-7.74,24a15.3,15.3,0,0,0,5.78,8.5Z"/><path class="cls-1" d="M234.51,38.13a13.82,13.82,0,0,1-3.77,10.15c-3.23,3.23-7.8,4.42-12.42,4.42a11.26,11.26,0,0,1-2.83-.34,5.54,5.54,0,0,0,1.25,1.33,9.85,9.85,0,0,0,6.24,1.9,16,16,0,0,0,11.74-4.88c2.95-3,4.42-6.26,4.42-9.72A7.07,7.07,0,0,0,237,35.66a7.48,7.48,0,0,0-3.69-1.76,7.33,7.33,0,0,1,1.19,4.22Z"/><path class="cls-1" d="M73.93,101.62A17.61,17.61,0,0,0,78.58,99a11.2,11.2,0,0,0,3.29-3.8,4.75,4.75,0,0,0,.2-1.19c0-2.24-1.19-3.37-3.6-3.37a7.16,7.16,0,0,0-2.07.34c-.34,1.7-1.13,5.24-2.47,10.69Zm-2.13,11.2L67.44,128.1H49.32L60.58,79.31S79.94,77.73,85.32,78c16.21.71,16.53,7.23,13.55,17.57-4.28,14.8-16,15.7-27.07,17.29Z"/><path class="cls-1" d="M207.81,78.75l51.31-.31-6,14.49-21.09,1.36-8.22,33.93-19.45-.43,9.89-33-.26-.14c-1.42,0-11.51.11-11.51.11Z"/><polygon class="cls-1" points="155.79 79.34 128.92 79.31 115.43 107.89 123.96 78.63 105.14 78.75 92.47 128.1 118.49 128.07 133.94 93.88 125.35 127.79 144.65 128.15 155.79 79.34"/><polygon class="cls-1" points="217.42 94.88 207.92 126.28 211.52 125.83 220.9 95.05 217.42 94.88"/><path class="cls-1" d="M253.53,83.42c.34-.94,1.39-2.15,1.73-3.06l-47.23,1s-1.56,6.18-3.12,10.77c.74,0,1.53,0,2.47,0L209.74,84Z"/><path class="cls-1" d="M86.54,81.61c-8.33-.14-22.9.45-24.86.77-3.74,21.43-5.41,31.52-8.39,43.71l4.39-1c2.75-11.85,4.17-20.78,7.57-40.25l9.27-.68s7.23-.11,13.52,0c9.3.14,9.44,4.82,9.44,4.82a6.15,6.15,0,0,0,.4-2.47c0-1.64-3-4.68-11.34-4.82Z"/><path class="cls-1" d="M74.15,103.12s6.58-2.49,8.73-6.24.54-6.41.54-6.41,6.86,1.79,3.12,7.48-12.39,5.16-12.39,5.16Z"/><polygon class="cls-1" points="148.68 19.19 122.37 19.02 116.42 26.93 113.58 19.16 89.12 19.05 103.29 41.64 78.66 65.85 106.04 65.11 111.49 57.23 114.8 65.71 138.76 65.39 126.34 42.75 148.68 19.19"/><polygon class="cls-1" points="98.19 25.54 113.95 25.17 112.25 22.42 93.8 22.85 105.28 41.87 86.2 61.94 91.45 61.06 108.88 42.92 98.19 25.54"/><polygon class="cls-1" points="126.88 23.58 140.23 23.56 142.98 20.86 124.67 20.98 117.78 29.42 119.56 32.43 126.88 23.58"/><path class="cls-1" d="M4.85,3,51.39,1.42,45.67,20.89l-14.6.4C27.78,32.54,20,65.37,20,65.37L.85,65.31S12,26.82,13.29,21.77l-.23-.14c-1.45,0-11.59.28-13.07.28Z"/><path class="cls-1" d="M20.27,21.4c-1,0-2.32,0-4,.06-2.07,7.8-6.58,24.6-11.45,40.42,1.56-.23,3.06-.43,4.51-.62,5.24-17.29,9.92-35,11.14-39.74Z"/><path class="cls-1" d="M47.06,6.92c.34-.85.68-1.73,1-2.55l-41,2L3.77,18.85c1,0,2.47,0,4.22-.06l2.61-10Z"/><path class="cls-1" d="M108.82,82.26,98.14,123.9l4.08-.34,9.58-38.13,7,.14.91-3.49c-.06-.06-10.66.14-10.86.17Z"/><polygon class="cls-1" points="130.51 82.26 114.63 117.18 114.75 121.75 132.32 85.12 152.5 85.35 153.16 82.18 130.51 82.26"/><polygon class="cls-1" points="135.89 94.03 128.61 123.33 131.98 123.33 139.61 93.49 135.89 94.03"/><polygon class="cls-1" points="57.6 5.98 60.75 5.98 61.45 2.49 62.36 2.49 60.66 10.69 59.75 10.69 60.58 6.78 57.43 6.78 56.61 10.69 55.7 10.69 57.4 2.49 58.31 2.49 57.6 5.98"/><polygon class="cls-1" points="69.33 2.49 69.17 3.29 65.96 3.29 65.39 5.98 68.4 5.98 68.23 6.78 65.25 6.78 64.6 9.87 67.81 9.87 67.64 10.69 63.52 10.69 65.22 2.49 69.33 2.49"/><polygon class="cls-1" points="76.82 2.49 75.15 10.69 74.24 10.69 75.74 3.29 72.62 3.29 71.09 10.69 70.19 10.69 71.89 2.49 76.82 2.49"/><path class="cls-1" d="M82,3.15c-1.42,0-2,1.45-2.41,3.29-.51,2.38-.51,3.63,1,3.63s2-1.25,2.52-3.63c.37-1.84.34-3.29-1.11-3.29ZM78.6,6.58c.4-1.87,1.19-4.25,3.6-4.25S84.42,4.71,84,6.58c-.45,2.27-1.19,4.31-3.6,4.31s-2.27-2-1.81-4.31Z"/><path class="cls-1" d="M86.88,9.86h1c1.11,0,1.81-.31,2.07-1.5s-.43-1.59-1.67-1.59h-.79Zm4.71-7.37-.17.79H88.24L87.68,6h1.08c1.5,0,2.55.48,2.15,2.38A2.69,2.69,0,0,1,88,10.69H85.8l1.67-8.19Z"/><polygon class="cls-1" points="98.84 2.49 98.67 3.29 95.44 3.29 94.9 5.98 97.91 5.98 97.74 6.78 94.73 6.78 94.11 9.87 97.31 9.87 97.14 10.69 93 10.69 94.7 2.49 98.84 2.49"/><path class="cls-1" d="M102.9,3.29l-.43,2.15a11.51,11.51,0,0,1-1.73,4.42h3.34l1.36-6.58Zm3.63-.79L105,9.86h.65l-.57,2.75h-.85l.4-1.93H99.92l-.4,1.93h-.85l.57-2.75h.54c1-1.33,1.45-2.83,2-5.3l.43-2.07Z"/><path class="cls-1" d="M110.32,2.49l-1.39,6.69a8.52,8.52,0,0,1-.2.91h0c.2-.37.31-.68.57-1.11l3.91-6.49h1.3l-1.7,8.19h-.91l1.36-6.55c.09-.43.2-.85.28-1.25h0a7.25,7.25,0,0,1-.6,1.33L109,10.69h-1.33l1.7-8.19Z"/><path class="cls-1" d="M119,2.49l.28,6.41a10.57,10.57,0,0,1-.09,1.19h0a11.23,11.23,0,0,1,.45-1.22l2.95-6.38h1.62l-1.7,8.19h-.91L123,3.94c.06-.37.17-.74.23-1h0c-.2.48-.34.77-.48,1.11l-3.12,6.69h-1.08l-.31-6.77c0-.31,0-.57,0-1h0c-.09.43-.11.71-.2,1l-1.39,6.75h-.91l1.7-8.19Z"/><path class="cls-1" d="M129.4,3.15c-1.39,0-2,1.45-2.41,3.29-.48,2.38-.51,3.63,1,3.63s2-1.25,2.52-3.63c.37-1.84.34-3.29-1.11-3.29ZM126,6.58c.4-1.87,1.19-4.25,3.6-4.25s2.21,2.38,1.81,4.25c-.45,2.27-1.19,4.31-3.6,4.31s-2.27-2-1.81-4.31Z"/><polygon class="cls-1" points="139.01 2.49 138.84 3.29 135.64 3.29 135.1 5.98 138.08 5.98 137.91 6.78 134.93 6.78 134.28 9.87 137.51 9.87 137.34 10.69 133.2 10.69 134.9 2.49 139.01 2.49"/><polygon class="cls-1" points="145.47 6.69 149.33 2.49 150.46 2.49 147.15 5.92 148.85 10.69 147.8 10.69 146.44 6.63 145.25 7.82 144.65 10.69 143.75 10.69 145.42 2.49 146.35 2.49 145.47 6.69"/><path class="cls-1" d="M154.83,3.15h0l-2,4.37H155Zm-.45-.65h1.19l.62,8.19h-1L155,8.33h-2.61l-1.08,2.35h-1Z"/><path class="cls-1" d="M160.21,2.49l-.43,2.07C159.56,5.67,159.82,6,161,6a12.47,12.47,0,0,0,1.36-.09l.71-3.4H164l-1.67,8.19h-.94l.82-4a9.59,9.59,0,0,1-1.53.09c-1.45,0-2.15-.48-1.81-2.13l.45-2.15Z"/><polygon class="cls-1" points="170.96 2.49 170.79 3.29 167.58 3.29 167.05 5.98 170.05 5.98 169.88 6.78 166.88 6.78 166.22 9.87 169.46 9.87 169.28 10.69 165.15 10.69 166.85 2.49 170.96 2.49"/><path class="cls-1" d="M176.77,4.93c.23-1,.06-1.79-1.08-1.79-1.59,0-2.07,2.24-2.3,3.32-.34,1.67-.65,3.6.85,3.6,1.19,0,1.59-1,2-2.32h.91c-.48,1.87-1.22,3.15-2.95,3.15-2.41,0-2.13-2.47-1.7-4.39s1.19-4.17,3.43-4.17c1.56,0,2.1,1.13,1.81,2.61Z"/><polygon class="cls-1" points="181.45 10.69 180.51 10.69 182.04 3.29 179.91 3.29 180.09 2.49 185.24 2.49 185.07 3.29 182.95 3.29 181.45 10.69"/><path class="cls-1" d="M186.77,9.86h1.36a1.62,1.62,0,0,0,1.76-1.53c.23-1.11-.26-1.56-1.19-1.56h-1.28ZM187.6,6h1.13a1.52,1.52,0,0,0,1.7-1.39c.2-.94-.26-1.3-1.08-1.3h-1.22Zm-.2-3.49h2.15c1.53,0,2.1.79,1.84,2a2.22,2.22,0,0,1-1.56,1.79l0,0c.77.11,1.25.85,1,2A2.71,2.71,0,0,1,188,10.69H185.7Z"/><path class="cls-1" d="M196.92,3.15c-1.39,0-2,1.45-2.41,3.29-.48,2.38-.48,3.63,1,3.63s2-1.25,2.52-3.63c.37-1.84.34-3.29-1.13-3.29Zm-3.37,3.43c.37-1.87,1.19-4.25,3.57-4.25s2.21,2.38,1.84,4.25c-.48,2.27-1.22,4.31-3.6,4.31s-2.3-2-1.81-4.31Z"/><polygon class="cls-1" points="210.25 2.58 208.54 10.77 207.64 10.77 209.14 3.37 206.02 3.37 204.49 10.77 203.58 10.77 205.28 2.58 210.25 2.58"/><path class="cls-1" d="M240,2.38,238.59,9.1c-.06.31-.14.62-.2.91h0c.2-.37.31-.68.57-1.11l3.88-6.52h1.33l-1.7,8.22h-.91l1.36-6.55c.09-.43.2-.85.28-1.25h0a7.25,7.25,0,0,1-.6,1.33l-3.88,6.46h-1.33L239,2.38Z"/><path class="cls-1" d="M228.39,3.2h0l-2,4.39h2.15Zm-.45-.65h1.22l.6,8.22h-1l-.17-2.38H226l-1.11,2.38h-1Z"/><path class="cls-1" d="M219.54,2.55l-.43,2.07c-.23,1.13,0,1.42,1.22,1.42A8.1,8.1,0,0,0,221.73,6l.71-3.4h.91l-1.7,8.22h-.91l.82-4a10.1,10.1,0,0,1-1.56.11c-1.45,0-2.13-.51-1.81-2.13l.45-2.18Z"/><polygon class="cls-1" points="217.13 2.58 216.99 3.37 213.79 3.37 213.22 6.07 216.23 6.07 216.06 6.89 213.05 6.89 212.43 9.95 215.63 9.95 215.46 10.77 211.35 10.77 213.02 2.58 217.13 2.58"/><polygon class="cls-1" points="233.63 10.77 232.72 10.77 234.23 3.37 232.1 3.37 232.27 2.55 237.46 2.55 237.29 3.37 235.16 3.37 233.63 10.77"/><path class="cls-2" d="M5,1.56,51.51,0,45.78,19.47l-14.57.4C27.89,31.12,20.15,63.95,20.15,63.95L1,63.89S12.1,25.4,13.44,20.35l-.26-.14c-1.42,0-11.59.28-13.07.28Z"/><path class="cls-3" d="M47.2,5.5c.31-.85.65-1.73,1-2.55l-41,2L3.88,17.43c1,0,2.47,0,4.22-.06l2.61-10Z"/><path class="cls-2" d="M88.3,17.63,84.76,31.1l-22,.11-1.13,4.08.06.34H84L80.48,47l-22.11.14-.77,3.09,21.51.09-4,13.44-38.83.2s7.8-25.29,12.84-46.2Z"/><path class="cls-3" d="M61.31,38.1a7.63,7.63,0,0,0-.4,2.07l.06.34H79c.43-1.42.65-2.24.71-2.41Z"/><polygon class="cls-3" points="84.1 23.02 84.95 19.62 51.68 19.84 39.06 63.07 43.54 62.84 54.2 23.13 84.1 23.02"/><path class="cls-2" d="M151.29,17.63l18.23,0-4.28,17.55a23.33,23.33,0,0,0,6.32-1.3l3.69-16.24,20.35.14-9.81,46-21.23.23,4.28-16.64c-.06-.06-.2-.06-.43-.06a17.18,17.18,0,0,0-3.4.48,8.5,8.5,0,0,0-2.81.85l-3.8,15.25-15.93,0Z"/><path class="cls-3" d="M145.36,62.28l3.43-1,7.77-39.66s5.87-.43,10.8-.71l.79-2.64s-8.87-.4-13.41.62l-.79.34c.2,0-8.59,43-8.59,43Z"/><path class="cls-3" d="M174.76,47.85a17.57,17.57,0,0,0-3.37.51c-.23,0-.43.09-.62.11l-3.83,13.83,4.62-.85,3.63-13.52q0-.09-.43-.09Z"/><path class="cls-3" d="M177,38.69l3.94-17.57,11.85.65c.34-1,.65-1.7,1-2.72l-16.47-.31-3.94,17.55c-.57.23-9,1.67-9.61,1.84l-1,3.2A112.24,112.24,0,0,0,177,38.69Z"/><path class="cls-2" d="M159.68,77.78c4.54-1,18.06-.51,18.06-.51L171.81,97.4a22.29,22.29,0,0,0,6.32-1.33l4.51-18.51,21.86-.37-15.7,49.29-17.69-.23,4.28-16.67a.91.91,0,0,0-.43-.06,20,20,0,0,0-3.4.48,10.65,10.65,0,0,0-2.81.85l-3.8,15.25-17.18.23,10.71-48.25Z"/><path class="cls-3" d="M151.91,124.47l3.43-1,7.77-39.66s5.9-.4,10.83-.68l.77-2.64s-8.87-.4-13.41.62l-.79.34c.23,0-8.59,43-8.59,43Z"/><path class="cls-3" d="M181.33,110a19.67,19.67,0,0,0-3.4.48l-.6.14-3.86,13.8,4.65-.85,3.6-13.52a.84.84,0,0,0-.4-.06Z"/><path class="cls-3" d="M183.51,100.86l5-17.74,11.2-.26c.37-1,.71-2,1.11-3.06l-15.9.91-5,17.77c-.57.2-9,1.64-9.61,1.81l-1,3.23c2.35-.2,12.3-2,14.17-2.66Z"/><path class="cls-2" d="M12.64,77.64c4.54-1,45.5-.09,45.5-.09l-11.71,49-18.23-.06L36.94,92c-.06,0-3.83,0-4.08,0a20,20,0,0,0-3.4.48,11.07,11.07,0,0,0-2.81.85L19,126.68l-15.85-.14Z"/><path class="cls-3" d="M8.28,125.32l3.46-1,7.74-39.66s28-1.19,32.91-1.47l.79-2.66S22.2,81,17.66,82l-.79.34c.23,0-8.59,43-8.59,43Z"/><path class="cls-3" d="M43.29,91.81a18.09,18.09,0,0,0-3.4.51c-.23,0-.4.09-.6.11L31,125.69l4.62-.85L43.71,91.9c0-.06-.2-.09-.43-.09Z"/><path class="cls-2" d="M213.65,40.62a10.74,10.74,0,0,0-.28,2.21,5.35,5.35,0,0,0,1.84,4.34,7,7,0,0,0,4.59,1.5,11.46,11.46,0,0,0,8.73-3.88,11.38,11.38,0,0,0,3.29-7.8,5.71,5.71,0,0,0-1.59-4.22,6.28,6.28,0,0,0-4.76-1.67,11.72,11.72,0,0,0-7,2.69,12.22,12.22,0,0,0-4.79,6.83ZM228.19,13.8q9.23,0,14.6,4.17c4.08,3.17,6.24,7.94,6.43,14.34a26.61,26.61,0,0,1-.62,6.24,32.91,32.91,0,0,1-8.11,14.54,41.4,41.4,0,0,1-12.93,9.3,33.15,33.15,0,0,1-14,3.34,24,24,0,0,1-14.94-4.68A16.69,16.69,0,0,1,191.79,47a26.33,26.33,0,0,1,.74-6q2.93-12.2,14.51-20.1,10.33-7.1,21.15-7.11Z"/><path class="cls-3" d="M201.46,60.69a21,21,0,0,0,2.72,1.73,15.55,15.55,0,0,1-5.9-12.73,24,24,0,0,1,.68-5.56q2.76-11.4,13.55-18.74,9.61-6.63,19.7-6.63A24.35,24.35,0,0,1,243.16,21a4.36,4.36,0,0,0-.54-.48c-3.32-2.58-7.88-3.88-13.61-3.88q-10.08,0-19.7,6.63a36.72,36.72,0,0,0-5.9,5c-3.77,3.49-10.12,13.69-7.77,24a15.21,15.21,0,0,0,5.81,8.5Z"/><path class="cls-3" d="M234.62,36.71a13.82,13.82,0,0,1-3.77,10.15c-3.2,3.23-7.8,4.42-12.42,4.42a11.26,11.26,0,0,1-2.83-.34,6.31,6.31,0,0,0,1.28,1.33,9.71,9.71,0,0,0,6.21,1.9,16,16,0,0,0,11.74-4.88c2.95-3,4.45-6.26,4.45-9.72a7,7,0,0,0-2.15-5.3,7.27,7.27,0,0,0-3.69-1.79,7.33,7.33,0,0,1,1.19,4.22Z"/><path class="cls-2" d="M74.07,100.2a17.94,17.94,0,0,0,4.62-2.66A11.65,11.65,0,0,0,82,93.74a4.64,4.64,0,0,0,.17-1.19c0-2.24-1.19-3.37-3.57-3.37a7.19,7.19,0,0,0-2.1.34c-.31,1.7-1.13,5.24-2.44,10.69Zm-2.15,11.23-4.37,15.25H49.44L60.72,77.9s19.36-1.59,24.72-1.36C101.65,77.24,102,83.79,99,94.11c-4.28,14.8-16,15.7-27.07,17.32Z"/><path class="cls-2" d="M207.92,77.33,259.23,77l-6,14.49-21.09,1.36L224,126.79l-19.45-.43,9.89-33-.26-.14c-1.42,0-11.51.11-11.51.11Z"/><polygon class="cls-2" points="155.91 77.92 129.03 77.9 115.54 106.47 124.07 77.22 105.25 77.33 92.58 126.68 118.6 126.65 134.05 92.47 125.46 126.37 144.76 126.74 155.91 77.92"/><polygon class="cls-3" points="217.53 93.46 208.03 124.87 211.63 124.41 221.05 93.63 217.53 93.46"/><path class="cls-3" d="M253.64,82c.34-.94,1.42-2.15,1.76-3.06l-47.25,1s-1.56,6.18-3.09,10.77c.71,0,1.53,0,2.44,0l2.35-8.19Z"/><path class="cls-3" d="M86.66,80.19c-8.33-.14-22.9.45-24.86.77-3.74,21.43-5.41,31.52-8.39,43.71l4.39-1c2.75-11.85,4.17-20.78,7.57-40.25l9.27-.68s7.23-.11,13.52,0c9.3.14,9.44,4.82,9.44,4.82A6.15,6.15,0,0,0,98,85c0-1.64-3-4.68-11.34-4.82Z"/><path class="cls-3" d="M74.27,101.71s6.6-2.49,8.73-6.24.54-6.41.54-6.41,6.86,1.79,3.12,7.48-12.39,5.16-12.39,5.16Z"/><polygon class="cls-2" points="148.82 17.77 122.48 17.6 116.53 25.51 113.7 17.75 89.23 17.63 103.41 40.22 78.78 64.43 106.16 63.69 111.6 55.81 114.92 64.29 138.9 63.98 126.48 41.33 148.82 17.77"/><polygon class="cls-3" points="98.31 24.12 114.09 23.75 112.36 21 93.91 21.43 105.39 40.45 86.31 60.52 91.56 59.64 109.02 41.5 98.31 24.12"/><polygon class="cls-3" points="126.99 22.17 140.34 22.14 143.09 19.45 124.78 19.56 117.92 28.01 119.68 31.01 126.99 22.17"/><path class="cls-3" d="M20.38,20c-1,0-2.32,0-4,.06C14.34,27.86,9.84,44.65,5,60.46,6.52,60.24,8,60,9.5,59.84c5.22-17.29,9.89-35,11.14-39.74Z"/><path class="cls-3" d="M108.94,80.84,98.25,122.49l4.08-.34L111.91,84l7,.14.91-3.49c0-.06-10.66.14-10.86.17Z"/><polygon class="cls-3" points="130.62 80.84 114.78 115.77 114.86 120.33 132.44 83.71 152.62 83.93 153.27 80.76 130.62 80.84"/><polygon class="cls-3" points="136.03 92.61 128.72 121.92 132.12 121.92 139.72 92.07 136.03 92.61"/><polygon class="cls-4" points="57.66 5.02 60.8 5.02 61.54 1.53 62.45 1.53 60.75 9.75 59.84 9.75 60.63 5.84 57.52 5.84 56.69 9.75 55.79 9.75 57.49 1.53 58.39 1.53 57.66 5.02"/><polygon class="cls-4" points="69.42 1.53 69.25 2.35 66.05 2.35 65.48 5.02 68.48 5.02 68.31 5.84 65.31 5.84 64.69 8.93 67.89 8.93 67.72 9.75 63.61 9.75 65.28 1.53 69.42 1.53"/><polygon class="cls-4" points="76.9 1.53 75.23 9.75 74.3 9.75 75.83 2.35 72.71 2.35 71.18 9.75 70.27 9.75 71.94 1.53 76.9 1.53"/><path class="cls-4" d="M82.06,2.18c-1.39,0-2,1.45-2.38,3.29-.51,2.38-.51,3.66,1,3.66s2-1.28,2.52-3.66c.37-1.81.34-3.29-1.13-3.29ZM78.69,5.61c.4-1.87,1.19-4.25,3.57-4.25S84.5,3.74,84.1,5.61c-.48,2.3-1.19,4.34-3.6,4.34s-2.3-2-1.81-4.34Z"/><path class="cls-4" d="M87,8.93h1c1.11,0,1.81-.34,2.07-1.5s-.43-1.59-1.67-1.59h-.79Zm4.68-7.4-.17.82H88.3L87.76,5h1.08c1.5,0,2.55.51,2.15,2.41a2.72,2.72,0,0,1-2.92,2.32H85.89l1.67-8.22Z"/><polygon class="cls-4" points="98.9 1.53 98.73 2.35 95.53 2.35 94.99 5.02 97.99 5.02 97.82 5.84 94.82 5.84 94.17 8.93 97.4 8.93 97.23 9.75 93.09 9.75 94.79 1.53 98.9 1.53"/><path class="cls-4" d="M103,2.35l-.43,2.13a11.48,11.48,0,0,1-1.73,4.45h3.34l1.36-6.58Zm3.63-.82-1.53,7.4h.65l-.57,2.72h-.88l.4-1.9H100l-.4,1.9h-.88l.57-2.72h.57c1-1.36,1.45-2.83,2-5.3l.43-2.1Z"/><path class="cls-4" d="M110.38,1.53,109,8.25c-.06.28-.14.6-.23.91h0A10.54,10.54,0,0,1,109.39,8l3.88-6.49h1.33l-1.7,8.22H112l1.36-6.55c.09-.43.17-.85.28-1.28h0a8.47,8.47,0,0,1-.6,1.33l-3.88,6.49H107.8l1.7-8.22Z"/><path class="cls-4" d="M119.06,1.53l.28,6.41a6.47,6.47,0,0,1-.06,1.22h0a8.08,8.08,0,0,1,.45-1.22l2.95-6.41h1.59l-1.67,8.22h-.91L123.11,3c.06-.37.17-.74.23-1h0c-.2.48-.34.79-.48,1.11l-3.12,6.72h-1.08l-.31-6.8c0-.31,0-.57,0-1h0c-.11.45-.11.71-.2,1.08l-1.39,6.75h-.91l1.7-8.22Z"/><path class="cls-4" d="M129.49,2.18c-1.42,0-2,1.45-2.41,3.29-.51,2.38-.51,3.66,1,3.66s2-1.28,2.52-3.66c.37-1.81.34-3.29-1.11-3.29Zm-3.4,3.43c.4-1.87,1.19-4.25,3.57-4.25s2.24,2.38,1.84,4.25c-.45,2.3-1.19,4.34-3.6,4.34s-2.27-2-1.81-4.34Z"/><polygon class="cls-4" points="139.1 1.53 138.93 2.35 135.72 2.35 135.16 5.02 138.16 5.02 137.99 5.84 135.01 5.84 134.36 8.93 137.56 8.93 137.4 9.75 133.28 9.75 134.96 1.53 139.1 1.53"/><polygon class="cls-4" points="145.56 5.75 149.41 1.53 150.55 1.53 147.2 4.96 148.93 9.75 147.88 9.75 146.52 5.67 145.33 6.89 144.74 9.75 143.83 9.75 145.5 1.53 146.41 1.53 145.56 5.75"/><path class="cls-4" d="M154.91,2.18h0l-2,4.37h2.15Zm-.45-.65h1.19l.62,8.22h-1l-.17-2.38H152.5l-1.08,2.38h-1Z"/><path class="cls-4" d="M160.3,1.53l-.43,2.07c-.23,1.13,0,1.42,1.22,1.42a7.94,7.94,0,0,0,1.36-.09l.71-3.4h.91l-1.7,8.22h-.91l.82-4a10.1,10.1,0,0,1-1.56.11c-1.42,0-2.13-.51-1.79-2.13l.45-2.18Z"/><polygon class="cls-4" points="171.04 1.53 170.87 2.35 167.67 2.35 167.1 5.02 170.11 5.02 169.94 5.84 166.93 5.84 166.31 8.93 169.51 8.93 169.34 9.75 165.23 9.75 166.93 1.53 171.04 1.53"/><path class="cls-4" d="M176.85,4c.23-1,.06-1.81-1.11-1.81-1.56,0-2,2.24-2.27,3.32-.34,1.67-.65,3.63.85,3.63,1.19,0,1.59-1,2-2.35h.91c-.48,1.9-1.22,3.17-3,3.17-2.41,0-2.1-2.49-1.7-4.42s1.22-4.17,3.46-4.17c1.56,0,2.1,1.16,1.79,2.64Z"/><polygon class="cls-4" points="181.5 9.75 180.59 9.75 182.13 2.35 180 2.35 180.17 1.53 185.33 1.53 185.16 2.35 183.03 2.35 181.5 9.75"/><path class="cls-4" d="M186.86,8.93h1.36c1,0,1.53-.48,1.76-1.56s-.26-1.53-1.19-1.53h-1.28ZM187.68,5h1.11a1.52,1.52,0,0,0,1.73-1.39c.17-.94-.26-1.28-1.08-1.28h-1.22Zm-.2-3.49h2.15c1.53,0,2.1.82,1.84,2a2.17,2.17,0,0,1-1.59,1.79v0c.77.11,1.25.88,1,2a2.71,2.71,0,0,1-2.86,2.35h-2.27Z"/><path class="cls-4" d="M197,2.18c-1.39,0-2,1.45-2.41,3.29-.48,2.38-.51,3.66,1,3.66s2-1.28,2.49-3.66c.4-1.81.34-3.29-1.11-3.29Zm-3.37,3.43c.37-1.87,1.19-4.25,3.57-4.25s2.21,2.38,1.84,4.25c-.48,2.3-1.22,4.34-3.6,4.34s-2.3-2-1.81-4.34Z"/><polygon class="cls-4" points="210.3 1.62 208.63 9.84 207.72 9.84 209.22 2.44 206.11 2.44 204.58 9.84 203.67 9.84 205.34 1.62 210.3 1.62"/><path class="cls-4" d="M240,1.45l-1.36,6.69c-.06.31-.14.62-.23.94h0A10.54,10.54,0,0,1,239,7.94l3.88-6.49h1.33l-1.7,8.22h-.91L243,3.12c.09-.45.17-.85.28-1.28h0a7.25,7.25,0,0,1-.6,1.33l-3.88,6.49h-1.33l1.67-8.22Z"/><path class="cls-4" d="M228.47,2.27h0l-2,4.37h2.15ZM228,1.59h1.22l.6,8.22h-1l-.17-2.35h-2.58L225,9.81h-1Z"/><path class="cls-4" d="M219.63,1.59l-.43,2.1c-.23,1.11,0,1.42,1.22,1.42A8.8,8.8,0,0,0,221.81,5l.68-3.4h.94l-1.7,8.22h-.91l.82-4a10.48,10.48,0,0,1-1.59.09c-1.42,0-2.13-.48-1.79-2.13l.45-2.18Z"/><polygon class="cls-4" points="217.22 1.62 217.05 2.44 213.85 2.44 213.31 5.1 216.31 5.1 216.14 5.92 213.14 5.92 212.51 9.01 215.72 9.01 215.55 9.84 211.44 9.84 213.11 1.62 217.22 1.62"/><polygon class="cls-4" points="233.72 9.81 232.81 9.81 234.31 2.41 232.19 2.41 232.36 1.59 237.51 1.59 237.34 2.41 235.22 2.41 233.72 9.81"/></g></g></svg>