<?xml version="1.0" encoding="UTF-8"?><!DOCTYPE svg PUBLIC "-//W3C//DTD SVG 1.1//EN" "http://www.w3.org/Graphics/SVG/1.1/DTD/svg11.dtd"><svg xmlns="http://www.w3.org/2000/svg"><defs>
        <style>
            .cls-1{fill:#125082;fill-rule:evenodd}
        </style>
    
        <style>
            .cls-1{fill:#c4c4c4;fill-rule:evenodd}
        </style>
    
        <style>
            .cls-1{fill:#ededed;fill-rule:evenodd}
        </style>
    
        <style>
            .cls-1,.cls-2{fill:#d0cfcf}.cls-1{fill-rule:evenodd}.cls-2{stroke:#d0cfcf;stroke-miterlimit:10;stroke-width:.23px}
        </style>
    
        <style>
            .cls-1,.cls-2{fill:#c7cbcf;fill-rule:evenodd}.cls-2{fill:#dfe6eb}
        </style>
    
        <style>
            .cls-1{fill:#999;fill-rule:evenodd}
        </style>
    
        <style>
            .cls-1{fill:#d0cfcf;fill-rule:evenodd}
        </style>
    
        <style>
            .cls-1{fill:#5f7899}
        </style>
    
        <style>
            .cls-1{fill:#b3bec9}
        </style>
    
        <style>
            .cls-1{fill:#b3bec9}
        </style>
    
        <style>
            .cls-1{fill:#b3bec9}
        </style>
    
        <style>
            .cls-1{fill:#b3bec9}
        </style>
    
        <style>
            .cls-1{fill:#b8bec4;fill-rule:evenodd}
        </style>
    
        <style>
            .cls-1{fill:#def2ff;fill-rule:evenodd}
        </style>
    
        <style>
            .cls-1{fill:#fefefe}
        </style>
    
        <style>
            .cls-1{fill:#d0cfcf;fill-rule:evenodd}
        </style>
    
        <style>
            .cls-1,.cls-2{fill:#45484f}.cls-1{fill-rule:evenodd}
        </style>
    
        <style>
            .cls-1,.cls-2{fill:#c7cbcf}.cls-1{fill-rule:evenodd}
        </style>
    
        <style>
            .cls-1{fill:#d0cfcf;fill-rule:evenodd}
        </style>
    
        <style>
            .cls-1{fill:#fff;fill-rule:evenodd}
        </style>
    
        <style>
            .cls-1,.cls-2,.cls-3{fill:#d8d9d9}.cls-1,.cls-2{fill-rule:evenodd}.cls-2{stroke:#ccc;stroke-miterlimit:10;stroke-width:.23px}
        </style>
    
        <style>
            .cls-1{fill:#c7cbcf;fill-rule:evenodd}
        </style>
    
        <style>
            .cls-1{fill:#b8bec4;fill-rule:evenodd}
        </style>
    
        <style>
            .cls-1,.cls-2{fill:#c7cbcf;fill-rule:evenodd}.cls-2{fill:#dfe6eb}
        </style>
    
        <style>
            .cls-1{fill:#d0cfcf;fill-rule:evenodd}
        </style>
    
        <style>
            .cls-1{fill:#dbdbdb;stroke:#dbdbdb;stroke-miterlimit:10;stroke-width:.57px;fill-rule:evenodd}
        </style>
    
        <style>
            .cls-1{fill:#fefefe}
        </style>
    
        <style>
            .cls-1,.cls-2{fill:#d8d9d9}.cls-2{fill-rule:evenodd}
        </style>
    
        <style>
            .cls-1{fill:#fefefe}
        </style>
    
        <style>
            .cls-1,.cls-2{fill:#7c8b99}.cls-1{fill-rule:evenodd}
        </style>
    
        <style>
            .cls-1{fill:#c7cbcf}.cls-1,.cls-3{fill-rule:evenodd}.cls-2,.cls-3{fill:#dfe6eb}
        </style>
    </defs><symbol id="icon-arr-def" viewBox="0 0 15 8.7">
    
    <title>
        arr-def
    </title>
    <path class="cls-1" d="M717.5 364.65a71.61 71.61 0 0 0 15 0l-7.48 8.7z" transform="translate(-717.5 -364.65)"/>
</symbol><symbol id="icon-arr-double" viewBox="0 0 22.17 21.34">
    
    <title>
        arr-double
    </title>
    <g id="&#x421;&#x43B;&#x43E;&#x439;_2" data-name="&#x421;&#x43B;&#x43E;&#x439; 2">
        <g id="&#x421;&#x43B;&#x43E;&#x439;_1-2" data-name="&#x421;&#x43B;&#x43E;&#x439; 1">
            <path class="cls-1" d="M.48 11.82A1.25 1.25 0 0 1 0 10.71v-.31a.1.1 0 0 0 0-.09v-.45l.17-.23a1.77 1.77 0 0 1 1.19-.68h.23a2 2 0 0 1 1 .34l.41.04c2.58 1.9 5.56 4.68 8.08 6.8 2.52-2.13 5.5-4.9 8.08-6.8.06 0 .09-.06.11-.06a1.83 1.83 0 0 1 1-.34H20.44a1.72 1.72 0 0 1 1.22.68l.17.23v.12a.1.1 0 0 0 0 .09v.21a1.25 1.25 0 0 1-.48 1.11.39.39 0 0 1-.09.11l-.06.06s-.09.06-.11.11l-10.03 9.69-.43-.34-9.84-8.87C.71 12 .65 12 .62 12H.56a.39.39 0 0 1-.09-.11zM20.3 8.9"/>
            <path class="cls-1" d="M.54 2.92a1.3 1.3 0 0 1-.48-1.13v-.4V1A1.57 1.57 0 0 1 .51.71 1.77 1.77 0 0 1 1.7 0a.36.36 0 0 1 .17 0h.06a1.74 1.74 0 0 1 1 .34A.21.21 0 0 0 3 .4c2.58 1.9 5.56 4.68 8.08 6.8 2.52-2.13 5.5-4.9 8.08-6.8a.15.15 0 0 0 .14-.06 1.64 1.64 0 0 1 1-.34h.17a1.76 1.76 0 0 1 1.22.71 1.57 1.57 0 0 1 .17.23v.85a1.3 1.3 0 0 1-.48 1.13l.22.08h-.06c0 .06-.09.09-.11.11s0 0 0 .06l-10.32 9.27-.43-.37L.85 3.23v-.06c0-.06-.14-.05-.17-.11L.62 3l-.08-.08zM20.35 0"/>
        </g>
    </g>
</symbol><symbol id="icon-arr-page" viewBox="0 0 16.19 28.77">
    
    <title>
        arr-page
    </title>
    <g id="&#x421;&#x43B;&#x43E;&#x439;_2" data-name="&#x421;&#x43B;&#x43E;&#x439; 2">
        <path class="cls-1" d="M12.42.62A1.6 1.6 0 0 1 13.86 0H15c.09.09.2.14.28.23a2.33 2.33 0 0 1 .91 1.53v.28a2.06 2.06 0 0 1-.43 1.3l-.09.11c-2.49 3.78-6.12 7.63-8.87 10.92 2.75 3.32 6.38 7.17 8.84 10.54a.21.21 0 0 1 .06.11 2.12 2.12 0 0 1 .43 1.3v.2a2.19 2.19 0 0 1-.91 1.62c-.09.09-.2.14-.28.23h-1.08a1.63 1.63 0 0 1-1.45-.62.75.75 0 0 1-.17-.14v-.06a.75.75 0 0 1-.17-.14v-.06L0 14.37l.48-.54L12 1l.17-.17a.75.75 0 0 1 .17-.14zm3.77 25.77v.06" id="&#x421;&#x43B;&#x43E;&#x439;_1-2" data-name="&#x421;&#x43B;&#x43E;&#x439; 1"/>
    </g>
</symbol><symbol id="icon-arr-sld-big" viewBox="0 0 472.615 472.615">
    <path d="M205.783 139.662V30.525L0 236.308 205.783 442.09V332.955h266.832V139.662z"/>
</symbol><symbol id="icon-arr-sld-l" viewBox="0 0 451.847 451.847">
    <path d="M97.141 225.92c0-8.095 3.091-16.192 9.259-22.366L300.689 9.27c12.359-12.359 32.397-12.359 44.751 0 12.354 12.354 12.354 32.388 0 44.748L173.525 225.92l171.903 171.909c12.354 12.354 12.354 32.391 0 44.744-12.354 12.365-32.386 12.365-44.745 0l-194.29-194.281c-6.167-6.177-9.252-14.274-9.252-22.372z"/>
</symbol><symbol id="icon-arr-sld-r" viewBox="0 0 451.846 451.847">
    <path d="M345.441 248.292L151.154 442.573c-12.359 12.365-32.397 12.365-44.75 0-12.354-12.354-12.354-32.391 0-44.744L278.318 225.92 106.409 54.017c-12.354-12.359-12.354-32.394 0-44.748 12.354-12.359 32.391-12.359 44.75 0l194.287 194.284c6.177 6.18 9.262 14.271 9.262 22.366 0 8.099-3.091 16.196-9.267 22.373z"/>
</symbol><symbol id="icon-balloons" viewBox="0 0 39.23 40.06">
    
    <title>
        balloons
    </title>
    <g id="&#x421;&#x43B;&#x43E;&#x439;_2" data-name="&#x421;&#x43B;&#x43E;&#x439; 2">
        <g id="&#x421;&#x43B;&#x43E;&#x439;_1-2" data-name="&#x421;&#x43B;&#x43E;&#x439; 1">
            <path class="cls-1" d="M7.74 1.5a6.75 6.75 0 0 1 5.13 2.66 15.74 15.74 0 0 0-2 7.85 15.48 15.48 0 0 0 2.07 7.91 6.74 6.74 0 0 1-5.19 2.72C3.46 22.65 0 17.91 0 12.08S3.46 1.5 7.74 1.5zm5.61 3.32a10.71 10.71 0 0 1 1 1.67 5.49 5.49 0 0 0-.77 3.32l1-.17a3.87 3.87 0 0 1 .28-1.9 13.94 13.94 0 0 1 .4 1.56 4.79 4.79 0 0 0-.26 1.93l.43-.09v.94a12.91 12.91 0 0 1-2.07 7.2A14.88 14.88 0 0 1 11.59 12a14.87 14.87 0 0 1 1.76-7.2zM6 4.85C2.07 7.2 2.58 10 2.58 10l-.85.14s-.6-3.37 3.86-6zm1.31 1.24c-3.94 2.35-3.46 5.13-3.46 5.13l-.85.15s-.6-3.34 3.86-6z"/>
            <path class="cls-1" d="M6.63 22.54c.28.26.23.2-.2.62-.06.06-.43.54-.51.62l3.15.06c-.26-.43-.71-.68-.77-1.22z"/>
            <path class="cls-2" d="M8.11 23.58s.09.17.11.43a2.48 2.48 0 0 1-.31 2.13 7.92 7.92 0 0 0-1.59 3c-.06.48.23.77.79 1a2.85 2.85 0 0 1 1.3 2.24 15.12 15.12 0 0 1 .06 4.31l-.79-.34a14.5 14.5 0 0 0-.09-3.83c-.17-.77-.4-1.42-.82-1.59-.91-.4-1.42-.91-1.33-1.84a8.32 8.32 0 0 1 1.76-3.43 1.82 1.82 0 0 0 .14-1.47c-.09-.57-.17-1 .31-1.3z"/>
            <path class="cls-1" d="M31.49 1.36a6.26 6.26 0 0 0-4.28 1.79A15.31 15.31 0 0 1 29.88 12a15.34 15.34 0 0 1-2.61 8.79 6.38 6.38 0 0 0 4.22 1.73c4.28 0 7.74-4.73 7.74-10.57s-3.46-10.6-7.74-10.6zm-4.82 2.3A12.35 12.35 0 0 0 23.75 12a12.31 12.31 0 0 0 3 8.33A14.56 14.56 0 0 0 29.14 12a14.52 14.52 0 0 0-2.47-8.36zm6.52 1.08c3.94 2.35 3.46 5.13 3.46 5.13l.85.14s.6-3.37-3.86-6zM31.89 6c4 2.38 3.46 5.16 3.46 5.16l.85.14s.6-3.37-3.86-6z"/>
            <path class="cls-1" d="M32.6 22.42c-.28.26-.23.17.2.6.06.06.43.54.51.62l-3.15.06c.26-.4.71-.65.77-1.19z"/>
            <path class="cls-2" d="M31.1 23.47c.06 0-.06.17-.11.4a2.68 2.68 0 0 0 .3 2.13 7.37 7.37 0 0 1 1.59 3c.06.45-.26.74-.79 1a2.82 2.82 0 0 0-1.33 2.21 15.83 15.83 0 0 0 0 4.31l.79-.31a14.55 14.55 0 0 1 .09-3.83c.14-.77.4-1.42.82-1.62a1.71 1.71 0 0 0 1.3-1.84A7.76 7.76 0 0 0 32 25.51a2 2 0 0 1-.17-1.5c.11-.57.17-1-.28-1.28z"/>
            <path class="cls-1" d="M20.38 0c4.85 0 8.76 5.39 8.76 12s-3.91 12-8.76 12-8.79-5.36-8.79-12 3.94-12 8.79-12zm-1.93 3.8c-4.51 2.69-3.94 5.84-3.94 5.84l-1 .17S12.87 6 17.94 3zm1.45 1.42c-4.48 2.66-3.9 5.84-3.9 5.84l-1 .17s-.68-3.83 4.39-6.83z"/>
            <path class="cls-1" d="M19.11 23.9c.34.28.26.2-.23.68-.06.09-.45.62-.54.71l3.54.06c-.28-.45-.79-.77-.85-1.36z"/>
            <path class="cls-2" d="M20.81 25.09s.09.17.14.45a2.93 2.93 0 0 1-.37 2.41c-1.16 1.64-1.73 2.69-1.79 3.4-.06.54.28.85.91 1.13A3.28 3.28 0 0 1 21.2 35a17.72 17.72 0 0 1 0 4.9l-.88-.37a16.48 16.48 0 0 0-.11-4.37c-.17-.88-.45-1.59-.94-1.81-1-.43-1.59-1-1.5-2.1.06-.88.68-2.1 2-3.88a2.06 2.06 0 0 0 .2-1.67c-.11-.65-.2-1.13.31-1.47z"/>
        </g>
    </g>
</symbol><symbol id="icon-books" viewBox="0 0 100.83 131.22">
    
    <title>
        books
    </title>
    <g id="&#x421;&#x43B;&#x43E;&#x439;_2" data-name="&#x421;&#x43B;&#x43E;&#x439; 2">
        <g id="&#x421;&#x43B;&#x43E;&#x439;_1-2" data-name="&#x421;&#x43B;&#x43E;&#x439; 1">
            <path class="cls-1" d="M81.38 61.65H49.8c-1.76 0-3.43-.65-3.43-2.41a2.91 2.91 0 0 1 3.15-2.83h31.61a2.91 2.91 0 0 1 3.15 2.83c0 1.76-1.36 2.41-3.12 2.41zm-17.57-16L56 45.61l4.14-6.21c3.69 6.38-.06-.11 3.63 6.26zM68 41.36L71.23 36l6.69 9.75-7.31-.09zM50 28.77c8.2 2.23 14.52-3.88 12.25-12.19h16.87V37l-5.25-6.5a3.16 3.16 0 0 0-5.47 0L64.63 37l-1.79-3.1a3.16 3.16 0 0 0-5.47 0L50 44.42zm0-12.22l7.37-.06c3.4 4.39-3 11-7.37 7.6zM92.49 0H36.62a3.16 3.16 0 0 0-3.15 3.15v7.09H30.3a3.16 3.16 0 0 0 0 6.32h3.17v8.67H30.3a3.16 3.16 0 0 0 0 6.32h3.17v8.67H30.3a3.16 3.16 0 0 0 0 6.32h3.17v8.67H30.3a3.16 3.16 0 0 0 0 6.32h3.17v7.07a3.16 3.16 0 0 0 3.15 3.17h55.87a3.17 3.17 0 0 0 3.17-3.17V3.15A3.16 3.16 0 0 0 92.49 0z"/>
            <path class="cls-1" d="M44.53 82.26H6.46a2.15 2.15 0 0 0-2.15 2.13v4.85H2.15a2.14 2.14 0 1 0 0 4.28h2.16v5.92H2.15a2.15 2.15 0 0 0 0 4.31h2.16v5.9H2.15a2.15 2.15 0 0 0 0 4.31h2.16v5.92H2.15a2.14 2.14 0 1 0 0 4.28h2.16V129a2.15 2.15 0 0 0 2.15 2.15h38.07a2.13 2.13 0 0 0 2.13-2.15V84.39a2.12 2.12 0 0 0-2.13-2.13zm-4.85 16.5h-2.16a3.59 3.59 0 0 1-.71.21 27.08 27.08 0 0 1-7.83.26 7.25 7.25 0 0 1-1.84-.47h-2.51v-2.17a5.27 5.27 0 0 1-.63-2.36 4.57 4.57 0 0 1 .65-2.43v-1.63H26a4 4 0 0 1 3-.94 20 20 0 0 0 2.83.08h1.7c.21 0 1.55-.16.64 0a5.54 5.54 0 0 1 4.25.84h1.28v1.37a5.61 5.61 0 0 1 .62 1.29 5 5 0 0 1-.62 4z"/>
            <path class="cls-1" d="M99 90H66.93a1.83 1.83 0 0 0-1.81 1.81v4.09H63.3a1.81 1.81 0 1 0 0 3.63h1.81v5H63.3a1.81 1.81 0 0 0 0 3.63h1.81v5H63.3a1.8 1.8 0 1 0 0 3.6h1.81v5H63.3a1.83 1.83 0 0 0-1.81 1.81 1.81 1.81 0 0 0 1.81 1.81h1.81v4.08a1.8 1.8 0 0 0 1.81 1.79H99a1.8 1.8 0 0 0 1.81-1.79V91.84A1.83 1.83 0 0 0 99 90zm-6.55 16a4.62 4.62 0 0 1-3.45 1.36c-6.45 0-6.43-10 0-10a4.54 4.54 0 0 1 4.46 3 4.75 4.75 0 0 1-1 5.63z"/>
            <path class="cls-2" d="M93.5 100.39a5.49 5.49 0 0 1-1 5.54 4.81 4.81 0 0 0 1.5-3.46 4.76 4.76 0 0 0-.5-2.08z"/>
        </g>
    </g>
</symbol><symbol id="icon-cart" viewBox="0 0 134.33 117.38">
    
    <title>
        cart
    </title>
    <g id="&#x421;&#x43B;&#x43E;&#x439;_2" data-name="&#x421;&#x43B;&#x43E;&#x439; 2">
        <g id="&#x421;&#x43B;&#x43E;&#x439;_1-2" data-name="&#x421;&#x43B;&#x43E;&#x439; 1">
            <path class="cls-1" d="M10.77 67.78l8.87 27.89c0 12.42 9.3 21.71 21.69 21.71H93c12.39 0 22.73-9.3 22.73-21.71l8.87-27.89zm44 7.37c0-2.07 2.07-3.12 4.14-3.12A4.45 4.45 0 0 1 63 76.17v23.78a3.8 3.8 0 0 1-4.14 4.14 3.8 3.8 0 0 1-4.14-4.14v-24.8zm17.57 7.23v-6.21c0-2.07 1-4.14 4.14-4.14a4.42 4.42 0 0 1 4.11 4.14v23.78a3.78 3.78 0 0 1-4.11 4.14c-3.12 0-4.14-1-4.14-4.14V82.37zm16.53 7.22V76.17A4.45 4.45 0 0 1 93 72c3.09 0 5.16 2.07 5.16 4.14v23.81c0 3.09-2.07 4.14-5.16 4.14a3.8 3.8 0 0 1-4.14-4.14V89.6zm-43.4 10.35a3.8 3.8 0 0 1-4.14 4.14 3.8 3.8 0 0 1-4.14-4.14V76.17A4.45 4.45 0 0 1 41.33 72a4.45 4.45 0 0 1 4.14 4.14z"/>
            <path class="cls-1" d="M134.33 53.29c0 4.14-4.14 8.28-9.3 8.28H10.35C4.14 61.57 0 57.43 0 53.29V48.1c0-5.16 4.14-8.25 10.35-8.25H22a12 12 0 0 0 3.69 8.42c4 4 10.66 3.54 15.11.57l.4-.26 8.73-8.73h33.52l9.41 9.41.43.43.51.34a13.71 13.71 0 0 0 16 0l1-.68.68-1a15.35 15.35 0 0 0 2.55-8.5h11c5.16 0 9.3 3.09 9.3 8.25v5.19z"/>
            <path class="cls-1" d="M133.31 56.38l-17.57-16.53H114a15.35 15.35 0 0 1-2.55 8.5l-.68 1-1 .68a16.17 16.17 0 0 1-4.51 2.1l9.41 9.44H125c4.14 0 7.23-2.07 8.28-5.19z"/>
            <path class="cls-1" d="M35 51.05l10.47 10.52h24.8L48.76 41l-7.57 7.57-.4.26A13.71 13.71 0 0 1 35 51.05z"/>
            <path class="cls-1" d="M38.24 45c-3.09 2.07-7.23 2.07-9.3 0-3.12-3.12-3.12-7.23 0-9.3L55.7 8.9a15.84 15.84 0 0 0 2.3 5.33l.31.51.43.43 4.65 4.65z"/>
            <path class="cls-1" d="M106.44 35.72c2.07 2.07 2.07 6.18 0 9.3a7.74 7.74 0 0 1-9.3 0L63 10.88c-4.79-7.17 2.13-14.09 9.3-9.3z"/>
            <path class="cls-1" d="M67.89 9.92a3.47 3.47 0 1 0-3.49-3.46 3.47 3.47 0 0 0 3.49 3.46z"/>
        </g>
    </g>
</symbol><symbol id="icon-close" viewBox="0 0 212.982 212.982">
    <path d="M131.804 106.491l75.936-75.936c6.99-6.99 6.99-18.323 0-25.312-6.99-6.99-18.322-6.99-25.312 0L106.491 81.18 30.554 5.242c-6.99-6.99-18.322-6.99-25.312 0-6.989 6.99-6.989 18.323 0 25.312l75.937 75.936-75.937 75.937c-6.989 6.99-6.989 18.323 0 25.312 6.99 6.99 18.322 6.99 25.312 0l75.937-75.937 75.937 75.937c6.989 6.99 18.322 6.99 25.312 0 6.99-6.99 6.99-18.322 0-25.312l-75.936-75.936z" fill-rule="evenodd" clip-rule="evenodd"/>
</symbol><symbol id="icon-cups" viewBox="0 0 55.11 32.26">
    
    <title>
        cups
    </title>
    <g id="&#x421;&#x43B;&#x43E;&#x439;_2" data-name="&#x421;&#x43B;&#x43E;&#x439; 2">
        <g id="&#x421;&#x43B;&#x43E;&#x439;_1-2" data-name="&#x421;&#x43B;&#x43E;&#x439; 1">
            <path class="cls-1" d="M55.11 18.57a9 9 0 0 1-8.76 9.21 9 9 0 0 1-8.76-9.21z"/>
            <path class="cls-1" d="M46.26 29.93a10.77 10.77 0 0 1-4.68-1v3.37h9.35v-3.41a10.77 10.77 0 0 1-4.68 1z"/>
            <path class="cls-1" d="M38.24 4.22a11.66 11.66 0 1 0 0 23.33c.43 0 .88 0 1.3-.06a11.29 11.29 0 0 1-3.74-8.39v-2.4h14.06a7.43 7.43 0 0 0 0-.79A11.67 11.67 0 0 0 38.24 4.22z"/>
            <path class="cls-1" d="M38.27 0a15.94 15.94 0 0 0 0 31.89 14 14 0 0 0 1.56-.09v-2.35a14 14 0 0 1-1.56.09 13.61 13.61 0 1 1 13.6-13.61v.79h2.33v-.79A16 16 0 0 0 38.27 0z"/>
            <path class="cls-1" d="M3.94 20.3v1.84a8 8 0 0 0 .2 1.86h-.85a1.84 1.84 0 0 1 0-3.69zm13.8 7.88a8.09 8.09 0 0 0 1.33-1.62 8.22 8.22 0 0 0 1.3-4.42v-5.22H3.94v1.93h-.65a3.29 3.29 0 0 0 0 6.58h1.33a8.64 8.64 0 0 0 .6 1.13 9.19 9.19 0 0 0 1.33 1.62h11.2z"/>
            <path class="cls-1" d="M9.95 29.71h9.95v.17a2 2 0 0 1-2 2H6.41a2 2 0 0 1-2-2v-.17z"/>
        </g>
    </g>
</symbol><symbol id="icon-fb" viewBox="0 0 23.101 23.101">
    <path d="M8.258 4.458c0-.144.02-.455.06-.931.043-.477.223-.976.546-1.5.32-.522.839-.991 1.561-1.406C11.144.208 12.183 0 13.539 0h3.82v4.163h-2.797c-.277 0-.535.104-.768.309-.231.205-.35.4-.35.581v2.59h3.914c-.041.507-.086 1-.138 1.476l-.155 1.258c-.062.425-.125.819-.187 1.182h-3.462v11.542H8.258V11.558H5.742V7.643h2.516V4.458z"/>
</symbol><symbol id="icon-filter-best" viewBox="0 0 13.44 21.88">
    
    <title>
        filter-best
    </title>
    <g id="&#x421;&#x43B;&#x43E;&#x439;_2" data-name="&#x421;&#x43B;&#x43E;&#x439; 2">
        <path class="cls-1" d="M5.47 21.88C3.8 17.29 4 14.6 4 10.94l-4 .65C2.49 8 5.27 3.94 6.86 0 8.59 4.62 11 7.63 13.44 11.54L9.61 11a13.76 13.76 0 0 0 2.83 10.91z" id="&#x421;&#x43B;&#x43E;&#x439;_1-2" data-name="&#x421;&#x43B;&#x43E;&#x439; 1"/>
    </g>
</symbol><symbol id="icon-filter-down" viewBox="0 0 19.36 21.38">
    
    <title>
        filter-down
    </title>
    <g id="&#x421;&#x43B;&#x43E;&#x439;_2" data-name="&#x421;&#x43B;&#x43E;&#x439; 2">
        <path class="cls-1" d="M19.3 5.05C13 5 10.23 6.75 9.89 10.32l4.28-.62a39.88 39.88 0 0 0-7.23 11.68A50.16 50.16 0 0 0 0 9.73l3.91.57C4 4.43 9-.62 19.36.06z" id="&#x421;&#x43B;&#x43E;&#x439;_1-2" data-name="&#x421;&#x43B;&#x43E;&#x439; 1"/>
    </g>
</symbol><symbol id="icon-filter-list" viewBox="0 0 60.04 15.99">
    
    <title>
        filter-list
    </title>
    <g id="&#x421;&#x43B;&#x43E;&#x439;_2" data-name="&#x421;&#x43B;&#x43E;&#x439; 2">
        <g id="&#x421;&#x43B;&#x43E;&#x439;_1-2" data-name="&#x421;&#x43B;&#x43E;&#x439; 1">
            <path class="cls-1" d="M0 0h60.04v2.98H0z"/>
            <path class="cls-1" d="M0 6.32h60.04V9.3H0z"/>
            <path class="cls-1" d="M0 13.01h60.04v2.98H0z"/>
        </g>
    </g>
</symbol><symbol id="icon-filter-squares" viewBox="0 0 46.83 10.23">
    
    <title>
        filter-squares
    </title>
    <g id="&#x421;&#x43B;&#x43E;&#x439;_2" data-name="&#x421;&#x43B;&#x43E;&#x439; 2">
        <g id="&#x421;&#x43B;&#x43E;&#x439;_1-2" data-name="&#x421;&#x43B;&#x43E;&#x439; 1">
            <path class="cls-1" d="M0 0h10.06v10.23H0z"/>
            <path class="cls-1" d="M12.44 0h10.09v10.23H12.44z"/>
            <path class="cls-1" d="M24.63 0h10.06v10.23H24.63z"/>
            <path class="cls-1" d="M36.77 0h10.06v10.23H36.77z"/>
        </g>
    </g>
</symbol><symbol id="icon-filter-up" viewBox="0 0 19.36 21.35">
    
    <title>
        filter-up
    </title>
    <g id="&#x421;&#x43B;&#x43E;&#x439;_2" data-name="&#x421;&#x43B;&#x43E;&#x439; 2">
        <path class="cls-1" d="M.06 16.33c6.32 0 9.07-1.7 9.41-5.27l-4.31.6A38.87 38.87 0 0 0 12.42 0a49.76 49.76 0 0 0 6.94 11.65l-3.94-.6C15.31 16.92 10.32 22 0 21.29z" id="&#x421;&#x43B;&#x43E;&#x439;_1-2" data-name="&#x421;&#x43B;&#x43E;&#x439; 1"/>
    </g>
</symbol><symbol id="icon-framing" viewBox="0 0 40.93 82.74">
    
    <title>
        framing
    </title>
    <g id="&#x421;&#x43B;&#x43E;&#x439;_2" data-name="&#x421;&#x43B;&#x43E;&#x439; 2">
        <g id="&#x421;&#x43B;&#x43E;&#x439;_1-2" data-name="&#x421;&#x43B;&#x43E;&#x439; 1">
            <path class="cls-1" d="M36.26 38.13a1.14 1.14 0 0 1-1.16 1.13H5.81a1.14 1.14 0 0 1-1.13-1.13V18.77a1.14 1.14 0 0 1 1.13-1.13h29.28a1.14 1.14 0 0 1 1.16 1.13zM19.53 4.62a2.3 2.3 0 0 0 1.87 0l8.08 8.08h-18zm20.24 8.08h-6.89l-10-10a.78.78 0 0 0 0-.26 2.41 2.41 0 1 0-4.82 0v.26L8 12.7H1.13A1.14 1.14 0 0 0 0 13.83V43a1.14 1.14 0 0 0 1.13 1.13h38.64A1.14 1.14 0 0 0 40.93 43V13.83a1.14 1.14 0 0 0-1.16-1.13z"/>
            <path class="cls-1" d="M27.69 21.63a3.4 3.4 0 0 1-.34.31c-1.22 1-2.49 2.1-3.8 3.09a.92.92 0 0 0-1.33-.28s-.26.17-.31.23a5.57 5.57 0 0 1-.71.37.1.1 0 0 1-.06 0L22.42 24c.6-.65-.2-1.76-1-1.25s-1.3.74-2 1.11a9.94 9.94 0 0 1-3.29 1.25c-1 .09-1 1.7 0 1.62a6.82 6.82 0 0 0 2-.51c-.17.2-.34.4-.51.57a.84.84 0 0 0 .43 1.39 18.36 18.36 0 0 1-5.56 1.36 1 1 0 0 0-.88 1 1 1 0 0 0 1 .88h.09a20.18 20.18 0 0 0 2.89-.42c-1.79 1.25-3.15 2.21-3.17 2.21a1 1 0 0 0 1 1.64l10.29-5.44a30.65 30.65 0 0 0-2.3 3.12A1 1 0 0 0 22.56 34a10.77 10.77 0 0 0 1.22-.54l-.34.6a1 1 0 0 0 .06 1 1 1 0 0 0 .79.4h.14c.09 0 2.1-.31 3.2-.6a1 1 0 0 0 .68-1.19.94.94 0 0 0-1.15-.67c-.31.09-.68.14-1 .23l1.16-2.13a1 1 0 0 0-.2-1.19 1 1 0 0 0-1.16-.09c1.33-1.59 2.58-3 2.58-3a1 1 0 0 0 .06-1.25 1 1 0 0 0-1.22-.28l-1.59.85c.34-.31.65-.62 1-.94.48-.48 1-1 1.9-1.81a4.24 4.24 0 0 0 .31-.29 1 1 0 0 0 .09-1.36 1 1 0 0 0-1.36-.11z"/>
            <path class="cls-1" d="M9.1 76.71a2 2 0 1 1 2-2 2 2 0 0 1-2 2zm0-7.71a5.66 5.66 0 1 0 5.64 5.67A5.66 5.66 0 0 0 9.1 69z"/>
            <path class="cls-1" d="M20.55 81.18a12.62 12.62 0 0 0-3.23-8.62 11.11 11.11 0 0 0-1-1 7.45 7.45 0 0 1 .65 3.09 7.84 7.84 0 0 1-6 7.6h9.58z"/>
            <path class="cls-1" d="M9.1 63.21a2 2 0 1 1 2-2 2 2 0 0 1-2 2zm-5.64-2a5.64 5.64 0 1 0 5.64-5.65 5.66 5.66 0 0 0-5.64 5.64z"/>
            <path class="cls-1" d="M16.92 61.23a7.72 7.72 0 0 1-2.41 5.64H28.6a13.12 13.12 0 0 1 4.48.71 7.68 7.68 0 0 0 3.23-6.26 7.76 7.76 0 0 0-7.74-7.71h-17.6a7.87 7.87 0 0 1 6 7.6z"/>
            <path class="cls-1" d="M28.6 69H16.47a14.07 14.07 0 0 1 2.44 2.07 14.85 14.85 0 0 1 3.8 10.09v1.56H40v-1.54a12.49 12.49 0 0 0-3.23-8.62A11.05 11.05 0 0 0 28.6 69z"/>
        </g>
    </g>
</symbol><symbol id="icon-geo" viewBox="0 0 14.05 25.37">
    
    <title>
        geo
    </title>
    <g id="&#x421;&#x43B;&#x43E;&#x439;_2" data-name="&#x421;&#x43B;&#x43E;&#x439; 2">
        <path class="cls-1" d="M7.12 2.13a4.79 4.79 0 0 1 4.76 4.37 4.83 4.83 0 0 1-4.48 5.12h-.28a4.83 4.83 0 0 1-4.94-4.39 4.77 4.77 0 0 1 4.51-5.1zm0 23.16l3.49-8.65c.14-.28.23-.57.34-.85l.73-1.79c.51-1.25 1.28-3.34 1.79-4.39a6.75 6.75 0 0 0-.23-6A7 7 0 0 0 7.12 0H7A7 7 0 0 0 .79 3.71a7 7 0 0 0-.68 4.48A6.66 6.66 0 0 0 .6 9.64c2.29 4.9 4.3 10.57 6.4 15.65.06.11 0 0 .09.09z" id="&#x421;&#x43B;&#x43E;&#x439;_1-2" data-name="&#x421;&#x43B;&#x43E;&#x439; 1"/>
    </g>
</symbol><symbol id="icon-gp" viewBox="0 0 18.56 11.83">
    
    <title>
        gp
    </title>
    <g id="&#x421;&#x43B;&#x43E;&#x439;_2" data-name="&#x421;&#x43B;&#x43E;&#x439; 2">
        <g id="&#x421;&#x43B;&#x43E;&#x439;_1-2" data-name="&#x421;&#x43B;&#x43E;&#x439; 1">
            <path class="cls-1" d="M16.92 5.16h-.4V3.34c0-.09-.09-.23-.14-.23h-1.39v2h-2.07v.37c0 .37.06.74.06 1.11.37 0 .74.06 1.11.06H15v2h1.5v-2h2V5.16z"/>
            <path class="cls-1" d="M11.05 4.71h-5c-.06 0-.2.09-.2.14v2.26H9a1.4 1.4 0 0 1-.11.37 3.05 3.05 0 0 1-3.51 1.87 3.45 3.45 0 0 1-2.83-4.11 2.55 2.55 0 0 1 .23-.79 3.45 3.45 0 0 1 3.88-2 3.21 3.21 0 0 1 1.47.77c.57-.6 1.13-1.13 1.73-1.73-.06-.06-.11-.09-.14-.11A5.71 5.71 0 0 0 4.93.08 5.89 5.89 0 0 0 .39 8a6 6 0 0 0 6.21 3.79 5.42 5.42 0 0 0 3.4-1.61 6 6 0 0 0 1.47-5.1c0-.31-.14-.4-.45-.37z"/>
        </g>
    </g>
</symbol><symbol id="icon-house" viewBox="0 0 52.95 28.29">
    
    <title>
        house
    </title>
    <g id="&#x421;&#x43B;&#x43E;&#x439;_2" data-name="&#x421;&#x43B;&#x43E;&#x439; 2">
        <g id="&#x421;&#x43B;&#x43E;&#x439;_1-2" data-name="&#x421;&#x43B;&#x43E;&#x439; 1">
            <path class="cls-1" d="M24.21.28H29v7.09l4.82 2.92 6.23-4.11 12.9 8.53-1.56 2.36-11.37-7.52-7.03 4.65-16.38-9.92-14.63 9.55-.31-.48-.11.09L0 11.08 16.84 0l7.37 4.48V.28z"/>
            <path class="cls-1" d="M5.13 13.89v14.4h31.18v-7.65h6.6v7.65h6.32V17.6l-9.1-6-7.06 4.65L16.7 6.32zm6 .45h3.94v5.78h-3.9zm7.54 0h3.94v5.78h-3.9z"/>
        </g>
    </g>
</symbol><symbol id="icon-loupe" viewBox="0 0 43.75 39.57">
    
    <title>
        loupe
    </title>
    <g id="&#x421;&#x43B;&#x43E;&#x439;_2" data-name="&#x421;&#x43B;&#x43E;&#x439; 2">
        <g id="&#x421;&#x43B;&#x43E;&#x439;_1-2" data-name="&#x421;&#x43B;&#x43E;&#x439; 1">
            <path class="cls-1" d="M13.88 5.21a10.67 10.67 0 0 0-3.2.82 4.52 4.52 0 0 0-.82.43 8.71 8.71 0 0 0-3 3.06c-.4 1 .6 1.93 1.76.79A11.5 11.5 0 0 1 11 8.18a6.58 6.58 0 0 1 3.62-1.08 7.57 7.57 0 0 1 3.91 1l.09.06c.82.48 1.59 1.33 2.35 1.73a.46.46 0 0 0 .43 0 1 1 0 0 0 .43-1.42 7.24 7.24 0 0 0-3-2.41 10.53 10.53 0 0 0-4.93-.88z"/>
            <path class="cls-1" d="M29.27 30.55l10.57 8.62c.88.85 1.93.26 2.78-.71a4.66 4.66 0 0 0 1.11-1.84c.14-.68-.45-1-.85-1.5-10.6-8.62-10.35-8.45-10.35-8.45l-2.72.77z"/>
            <path class="cls-1" d="M28.39 30.07l.88.48 3.26-3.88a8 8 0 0 0-.77-.82 2.63 2.63 0 0 0-4 .31c-1.19 1.3-1.08 2.58.65 3.91z"/>
            <path class="cls-2" d="M13.94 0a14.58 14.58 0 0 1 15.25 13.94 14.58 14.58 0 0 1-13.92 15.25A14.6 14.6 0 0 1 0 15.44v-.17A14.44 14.44 0 0 1 3.82 4.75 14.62 14.62 0 0 1 13.77 0zm8.25 6.29a11.14 11.14 0 0 0-8.08-2.95A11.29 11.29 0 0 0 3.36 15.1a11.24 11.24 0 0 0 19.53 7.09 11.2 11.2 0 0 0-.71-15.87z"/>
        </g>
    </g>
</symbol><symbol id="icon-lovers" viewBox="0 0 46.94 30.98">
    
    <title>
        lovers
    </title>
    <g id="&#x421;&#x43B;&#x43E;&#x439;_2" data-name="&#x421;&#x43B;&#x43E;&#x439; 2">
        <g id="&#x421;&#x43B;&#x43E;&#x439;_1-2" data-name="&#x421;&#x43B;&#x43E;&#x439; 1">
            <path class="cls-1" d="M11.4 3.57a6 6 0 0 1 4.3 1.79 6 6 0 0 1 0 8.62 5.65 5.65 0 0 1-1.56 1.13 9.08 9.08 0 0 1 3.57 2.18 8.85 8.85 0 0 1 2.61 6.29v5.24h6.07v-5.24a9.24 9.24 0 0 1 2.66-6.49 9.39 9.39 0 0 1 3.09-2 5.9 5.9 0 0 1-1.13-.91 6.36 6.36 0 0 1 0-9 6.36 6.36 0 0 1 9 0 6.36 6.36 0 0 1 0 9 6.55 6.55 0 0 1-1.11.88 9.21 9.21 0 0 1 5.78 8.53v5.24h2.15V31H0v-2.17h2.52v-5.25a8.94 8.94 0 0 1 6.15-8.48A5.79 5.79 0 0 1 7.09 14 6.09 6.09 0 0 1 11.4 3.57zm16.92 25.26h14.57v-5.25a7.26 7.26 0 0 0-2.15-5.13 7.25 7.25 0 0 0-10.26 0 7.26 7.26 0 0 0-2.15 5.13zM38.75 6.52a4.46 4.46 0 0 0-3.17-1.33 4.5 4.5 0 0 0-4.45 4.48 4.43 4.43 0 0 0 1.3 3.17 4.48 4.48 0 0 0 3.15 1.3 4.45 4.45 0 0 0 4.48-4.48 4.48 4.48 0 0 0-1.3-3.15z"/>
            <path class="cls-2" d="M23.16 1.64A2.55 2.55 0 0 1 25.63 0a2.35 2.35 0 0 1 2.47 2.18c0 2.18-2.47 4.39-4.93 6.58-2.47-2.18-4.93-4.39-4.93-6.58A2.35 2.35 0 0 1 20.69 0a2.58 2.58 0 0 1 2.47 1.64z"/>
        </g>
    </g>
</symbol><symbol id="icon-machine" viewBox="0 0 60.55 33.73">
    
    <title>
        machine
    </title>
    <g id="&#x421;&#x43B;&#x43E;&#x439;_2" data-name="&#x421;&#x43B;&#x43E;&#x439; 2">
        <g id="&#x421;&#x43B;&#x43E;&#x439;_1-2" data-name="&#x421;&#x43B;&#x43E;&#x439; 1">
            <path class="cls-1" d="M55.56 11.51a1.17 1.17 0 0 1-1.16 1.19 1.2 1.2 0 0 1-1.19-1.19V9.18A1.2 1.2 0 0 1 54.4 8a1.17 1.17 0 0 1 1.16 1.19zM51.68 30a1.77 1.77 0 1 1 1.79-1.76A1.77 1.77 0 0 1 51.68 30zm-2.16-18.49V9.18a1.19 1.19 0 1 1 2.38 0v2.32a1.19 1.19 0 1 1-2.38 0zm-1.3 0A1.2 1.2 0 0 1 47 12.7a1.17 1.17 0 0 1-1.16-1.19V9.18A1.17 1.17 0 0 1 47 8a1.2 1.2 0 0 1 1.19 1.19zm11.14-2.35a1.16 1.16 0 0 0-1 .68v-1A3.31 3.31 0 0 0 55 5.56h-1.09V3.17a1.19 1.19 0 0 0-2.38 0v2.39H50V1.19A1.17 1.17 0 0 0 48.87 0a1.2 1.2 0 0 0-1.19 1.19v4.37H36.2a1.18 1.18 0 0 0 .51-1 1.2 1.2 0 0 0-1.19-1.16h-3.09a1.17 1.17 0 0 0-1.16 1.19 1.16 1.16 0 0 0 .48 1h-.54a5.07 5.07 0 0 0-5.07 5.07v6.75a3 3 0 0 0 3 3.06v1.79a1.19 1.19 0 1 0 2.38 0v-1.82a3 3 0 0 0 3.06-3.06v-2.21h6.52a4.48 4.48 0 0 1 0 9H27.3a1.16 1.16 0 0 0-1.16 1.19v5.13a3.29 3.29 0 0 0 3.29 3.29H55a3.31 3.31 0 0 0 3.32-3.29V17a1.14 1.14 0 0 0 1 .65 1.2 1.2 0 0 0 1.19-1.19v-6.11a1.2 1.2 0 0 0-1.19-1.19z"/>
            <path class="cls-1" d="M10 21.32a.66.66 0 0 0 .4.88 16.94 16.94 0 0 0 5.36.68h.11a19.24 19.24 0 0 0 5.5-.79.69.69 0 1 0-.45-1.3 17.33 17.33 0 0 1-5.16.74 16.42 16.42 0 0 1-4.88-.6.69.69 0 0 0-.88.4z"/>
            <path class="cls-1" d="M10 23.24a.66.66 0 0 0 .4.88 16.94 16.94 0 0 0 5.36.68h.11a19.24 19.24 0 0 0 5.53-.8.69.69 0 1 0-.45-1.3 16.31 16.31 0 0 1-5.16.74 16.42 16.42 0 0 1-4.88-.6.69.69 0 0 0-.88.4z"/>
            <path class="cls-1" d="M10.91 24.77a.69.69 0 0 0-.88.4.66.66 0 0 0 .4.88 16.94 16.94 0 0 0 5.36.68h.11a19.24 19.24 0 0 0 5.5-.79.69.69 0 0 0 .43-.85.66.66 0 0 0-.88-.43 19.17 19.17 0 0 1-5.16.71 15.29 15.29 0 0 1-4.88-.6z"/>
            <path class="cls-1" d="M21.4 30a.68.68 0 0 0 .43-.85.71.71 0 0 0-.88-.43 16.56 16.56 0 0 1-5 .74h-.11a16.42 16.42 0 0 1-4.88-.6.68.68 0 0 0-.48 1.28 16.94 16.94 0 0 0 5.36.68h.11A17.64 17.64 0 0 0 21.4 30z"/>
            <path class="cls-1" d="M15.93 17.66c1.28 0 2.32.23 2.32.48s-1 .45-2.32.45-2.35-.2-2.35-.45 1-.48 2.35-.48zm6.43.51a.53.53 0 0 0-.06-.2c0-.48-2.86-.88-6.38-.88s-6.41.4-6.41.88a.53.53 0 0 0-.06.23v.8a1.15 1.15 0 0 0 .62 1 16.11 16.11 0 0 0 5.84.82 15.73 15.73 0 0 0 5.86-.82 1.12 1.12 0 0 0 .6-1z"/>
            <path class="cls-1" d="M9.47 31.95a1.15 1.15 0 0 0 .62 1 15.48 15.48 0 0 0 5.84.82 15.33 15.33 0 0 0 5.84-.79 1.17 1.17 0 0 0 .6-1v-.79a.43.43 0 0 0-.62-.43 17 17 0 0 1-5.81.94 17 17 0 0 1-5.84-.94.43.43 0 0 0-.62.43z"/>
            <path class="cls-1" d="M8.7 30.67C8.82 28.18 10 28 10.46 28a19 19 0 0 0 5.33.65h.11a19.24 19.24 0 0 0 5.5-.79.69.69 0 0 0 .43-.85.66.66 0 0 0-.88-.43 17.91 17.91 0 0 1-5.16.71 14.31 14.31 0 0 1-4.88-.6h-.09a.68.68 0 0 0-.26-.06c-1.13 0-3.06.51-3.23 4-.06.85-1.19 1.59-1.62 1.79a.67.67 0 0 0-.31.91.64.64 0 0 0 .6.4.48.48 0 0 0 .28-.09c.26-.11 2.32-1.16 2.41-2.95z"/>
            <path class="cls-1" d="M.34 26.25a.42.42 0 0 0 .23.54 10.72 10.72 0 0 0 3.23.4h.09a10.66 10.66 0 0 0 3.29-.48.42.42 0 0 0 .28-.51.41.41 0 0 0-.54-.26 10.59 10.59 0 0 1-3.12.43A10 10 0 0 1 .85 26a.4.4 0 0 0-.51.23z"/>
            <path class="cls-1" d="M.34 27.41a.42.42 0 0 0 .23.54 10.72 10.72 0 0 0 3.23.4h.09a10.66 10.66 0 0 0 3.29-.48.41.41 0 0 0 .28-.51.41.41 0 0 0-.54-.26 10.59 10.59 0 0 1-3.12.43 10 10 0 0 1-2.95-.34.4.4 0 0 0-.51.23z"/>
            <path class="cls-1" d="M.85 28.35a.4.4 0 0 0-.51.23.42.42 0 0 0 .23.54 10.72 10.72 0 0 0 3.23.4h.09A10.66 10.66 0 0 0 7.17 29a.41.41 0 0 0 .28-.51.41.41 0 0 0-.54-.26 11.84 11.84 0 0 1-3.12.43 10 10 0 0 1-2.95-.34z"/>
            <path class="cls-1" d="M7.17 31.49a.43.43 0 0 0 .29-.49.45.45 0 0 0-.54-.28 9.68 9.68 0 0 1-3.06.45H3.8a8.35 8.35 0 0 1-2.95-.37.41.41 0 0 0-.51.2.39.39 0 0 0 .23.51A10.06 10.06 0 0 0 3.8 32h.09a10.66 10.66 0 0 0 3.29-.48z"/>
            <path class="cls-1" d="M3.88 24.07c.79 0 1.42.11 1.42.26s-.62.28-1.42.28-1.42-.11-1.42-.28.65-.26 1.42-.26zm3.88.28a.17.17 0 0 0 0-.11c0-.28-1.73-.54-3.86-.54S0 24 0 24.24a.17.17 0 0 0 0 .11v.48a.72.72 0 0 0 .37.6 9.72 9.72 0 0 0 3.51.51 8.75 8.75 0 0 0 3.51-.51.66.66 0 0 0 .37-.6z"/>
            <path class="cls-1" d="M0 32.66a.72.72 0 0 0 .37.6 10 10 0 0 0 3.51.48 9.56 9.56 0 0 0 3.51-.48.66.66 0 0 0 .37-.6v-.48c0-.23-.17-.31-.37-.26a10 10 0 0 1-3.51.57 10.11 10.11 0 0 1-3.51-.57c-.2-.06-.37 0-.37.26z"/>
            <path class="cls-1" d="M.6 30.27a10.54 10.54 0 0 0 3.2.4h.09a10.66 10.66 0 0 0 3.29-.48.41.41 0 0 0 .28-.51.43.43 0 0 0-.54-.26 13.42 13.42 0 0 1-3.12.43 8.46 8.46 0 0 1-3.37-.45 1.08 1.08 0 0 0 .17.88z"/>
        </g>
    </g>
</symbol><symbol id="icon-minus" viewBox="0 0 42 42">
    <path d="M37.059 16H4.941C2.224 16 0 18.282 0 21s2.224 5 4.941 5H37.059C39.776 26 42 23.718 42 21s-2.224-5-4.941-5z"/>
</symbol><symbol id="icon-od" viewBox="0 0 15.25 25.39">
    
    <title>
        od
    </title>
    <g id="&#x421;&#x43B;&#x43E;&#x439;_2" data-name="&#x421;&#x43B;&#x43E;&#x439; 2">
        <g id="&#x421;&#x43B;&#x43E;&#x439;_1-2" data-name="&#x421;&#x43B;&#x43E;&#x439; 1">
            <path class="cls-1" d="M14.85 15.36a7.87 7.87 0 0 1-2.78 1.81 14.75 14.75 0 0 1-3.17.71 3.42 3.42 0 0 1 .34.37c1.47 1.45 2.95 2.92 4.39 4.39a1.5 1.5 0 0 1 .34 1.7 1.74 1.74 0 0 1-1.64 1 1.61 1.61 0 0 1-1-.51c-1.13-1.1-2.26-2.18-3.33-3.32-.31-.34-.45-.26-.74 0-1.11 1.17-2.26 2.3-3.38 3.41a1.4 1.4 0 0 1-1.7.31 1.73 1.73 0 0 1-1-1.59 1.58 1.58 0 0 1 .54-1.08c1.45-1.44 2.9-2.89 4.28-4.33a3.82 3.82 0 0 0 .34-.34A9.8 9.8 0 0 1 1.1 16c-.17-.17-.37-.31-.54-.45a1.5 1.5 0 0 1-.23-2.13 1.52 1.52 0 0 1 2-.45 3.37 3.37 0 0 1 .43.26 8.61 8.61 0 0 0 9.55.09 2.46 2.46 0 0 1 .94-.48 1.47 1.47 0 0 1 1.67.68 1.38 1.38 0 0 1-.09 1.84z"/>
            <path class="cls-1" d="M7.65 0a6.42 6.42 0 1 1-6.43 6.41A6.42 6.42 0 0 1 7.65 0zm0 9.58a3.15 3.15 0 1 0-3.17-3.12 3.15 3.15 0 0 0 3.17 3.12z"/>
        </g>
    </g>
</symbol><symbol id="icon-pencil" viewBox="0 0 21.26 22.72">
    
    <title>
        pencil
    </title>
    <g id="&#x421;&#x43B;&#x43E;&#x439;_2" data-name="&#x421;&#x43B;&#x43E;&#x439; 2">
        <g id="&#x421;&#x43B;&#x43E;&#x439;_1-2" data-name="&#x421;&#x43B;&#x43E;&#x439; 1">
            <path class="cls-1" d="M3.37 18.83L3 18.38l1.45-3.86 2.69 2.38zM1 21.07l6.54-3.17 9.52-10.6-4.22-3.8-9.52 10.6z"/>
            <path class="cls-2" d="M13.66 2.62l4.2 3.8c2-1.76 3-3.8 1.16-5.64-1.9-1.67-4.37.14-5.36 1.84z"/>
            <path class="cls-3" d="M0 21.56h21.26v1.16H0z"/>
        </g>
    </g>
</symbol><symbol id="icon-pictures" viewBox="0 0 61.11 31.21">
    
    <title>
        pictures
    </title>
    <g id="&#x421;&#x43B;&#x43E;&#x439;_2" data-name="&#x421;&#x43B;&#x43E;&#x439; 2">
        <g id="&#x421;&#x43B;&#x43E;&#x439;_1-2" data-name="&#x421;&#x43B;&#x43E;&#x439; 1">
            <path class="cls-1" d="M25.6 26.93a.81.81 0 0 1-.79.79H4.11a.79.79 0 0 1-.79-.79V13.27a.8.8 0 0 1 .79-.82H24.8a.82.82 0 0 1 .79.82zM13.78 3.26a1.82 1.82 0 0 0 .68.14 1.68 1.68 0 0 0 .65-.14L20.83 9H8.08zM28.09 9h-4.87l-7.09-7.1a.55.55 0 0 0 0-.2 1.7 1.7 0 1 0-3.4 0v.2L5.67 9H.82a.8.8 0 0 0-.82.78v20.61a.82.82 0 0 0 .82.82h27.27a.82.82 0 0 0 .82-.82V9.78a.8.8 0 0 0-.82-.78z"/>
            <path class="cls-1" d="M19.56 15.28l-.26.23c-.85.74-1.73 1.47-2.66 2.15a.64.64 0 0 0-.94-.17l-.23.14a2.68 2.68 0 0 1-.48.26h-.06c.28-.31.6-.62.88-1a.56.56 0 0 0-.68-.88c-.45.28-.94.54-1.39.77a7.49 7.49 0 0 1-2.35.91c-.71.06-.71 1.19 0 1.13a4.75 4.75 0 0 0 1.42-.37c-.11.14-.26.28-.37.43a.58.58 0 0 0 .31 1 13.2 13.2 0 0 1-3.91 1 .67.67 0 0 0-.62.74.66.66 0 0 0 .68.62H9a12.27 12.27 0 0 0 2-.34c-1.25.91-2.21 1.56-2.24 1.59a.67.67 0 0 0-.17.91.68.68 0 0 0 .91.26l7.26-3.86a23.54 23.54 0 0 0-1.62 2.2.68.68 0 0 0 .06.77.67.67 0 0 0 .74.26 7 7 0 0 0 .85-.37l-.23.4a.72.72 0 0 0 .6 1h.11c.06 0 1.47-.23 2.27-.43a.71.71 0 0 0 .48-.85.69.69 0 0 0-.85-.48l-.71.17.82-1.5a.7.7 0 0 0-.17-.85.68.68 0 0 0-.82-.06c1-1.13 1.84-2.1 1.84-2.1a.65.65 0 0 0 0-.88.67.67 0 0 0-.85-.2l-1.13.6a7.7 7.7 0 0 0 .68-.68c.34-.34.74-.71 1.36-1.28l.26-.2a.68.68 0 0 0 .06-1 .7.7 0 0 0-1-.09z"/>
            <path class="cls-1" d="M39.29 25.26a1.42 1.42 0 1 1 0-2.83 1.42 1.42 0 1 1 0 2.83zm0-5.41a4 4 0 1 0 4 4 4 4 0 0 0-4-4z"/>
            <path class="cls-1" d="M47.37 28.43a8.93 8.93 0 0 0-2.3-6.09c-.23-.23-.48-.48-.71-.68a5.65 5.65 0 0 1 .43 2.18 5.53 5.53 0 0 1-4.2 5.36h6.77z"/>
            <path class="cls-1" d="M39.29 15.76a1.43 1.43 0 1 1 1.42-1.45 1.45 1.45 0 0 1-1.42 1.45zm-4-1.45a4 4 0 1 0 4-4 4 4 0 0 0-4 4z"/>
            <path class="cls-1" d="M44.82 14.34a5.57 5.57 0 0 1-1.7 4h9.95a9.76 9.76 0 0 1 3.15.51 5.34 5.34 0 0 0 2.27-4.42A5.44 5.44 0 0 0 53 9H40.59a5.56 5.56 0 0 1 4.22 5.36z"/>
            <path class="cls-1" d="M53 19.84h-8.5a10.16 10.16 0 0 1 4.39 8.59v1.11h12.22v-1.11a8.91 8.91 0 0 0-2.27-6.09 7.9 7.9 0 0 0-5.84-2.5z"/>
        </g>
    </g>
</symbol><symbol id="icon-plus" viewBox="0 0 42 42">
    <path d="M37.059 16H26V4.941C26 2.224 23.718 0 21 0s-5 2.224-5 4.941V16H4.941C2.224 16 0 18.282 0 21s2.224 5 4.941 5H16v11.059C16 39.776 18.282 42 21 42s5-2.224 5-4.941V26h11.059C39.776 26 42 23.718 42 21s-2.224-5-4.941-5z"/>
</symbol><symbol id="icon-polygraph" viewBox="0 0 48.08 44.16">
    
    <title>
        polygraph
    </title>
    <g id="&#x421;&#x43B;&#x43E;&#x439;_2" data-name="&#x421;&#x43B;&#x43E;&#x439; 2">
        <path class="cls-1" d="M42 0H7C1.82.31-.13 3.12 0 8.25v7.65h1.62v26h1.65v2.24h5.52v-2.22h24v2.24h5.56v-2.24h2.61v-4.47L48 33.08l.09-2.89-6.41 1.93c-.37.14-.28.26-.74.48v-1.28L48 27l.09-2.89L41.68 26c-.37.14-.28.26-.74.48v-1.14L48 21l.09-2.89L41.68 20c-.37.17-.28.26-.74.48V15.9h1zM8.68 6.43h9.41v5H8.68zm10.8 0h2v2.16h-2zm0 3.29h2v2.13h-2zm3.12 0h2v2.13h-2zm0-3.17h2V8.7h-2zM10 20.64h7.71v1.25h6.92v-1.25h7.26v6H10zm0 8h7.71v1.25h6.92v-1.26h7.26v6H10z" id="&#x421;&#x43B;&#x43E;&#x439;_1-2" data-name="&#x421;&#x43B;&#x43E;&#x439; 1"/>
    </g>
</symbol><symbol id="icon-ruble" viewBox="0 0 510.127 510.127">
    <path d="M34.786 428.963h81.158v69.572c0 3.385 1.083 6.156 3.262 8.322 2.173 2.18 4.951 3.27 8.335 3.27h60.502c3.14 0 5.857-1.09 8.152-3.27 2.295-2.166 3.439-4.938 3.439-8.322v-69.572h182.964c3.377 0 6.156-1.076 8.334-3.256 2.18-2.178 3.262-4.951 3.262-8.336v-46.377c0-3.365-1.082-6.156-3.262-8.322-2.172-2.18-4.957-3.27-8.334-3.27h-182.97v-42.754h123.184c48.305 0 87.73-14.719 118.293-44.199 30.551-29.449 45.834-67.49 45.834-114.125 0-46.604-15.283-84.646-45.834-114.125C410.548 14.749 371.116 0 322.812 0H127.535c-3.385 0-6.157 1.089-8.335 3.256-2.173 2.179-3.262 4.969-3.262 8.335v227.896H34.786c-3.384 0-6.157 1.145-8.335 3.439-2.172 2.295-3.262 5.012-3.262 8.151v53.978c0 3.385 1.083 6.158 3.262 8.336 2.179 2.18 4.945 3.256 8.335 3.256h81.158v42.754H34.786c-3.384 0-6.157 1.09-8.335 3.27-2.172 2.166-3.262 4.951-3.262 8.322v46.377c0 3.385 1.083 6.158 3.262 8.336 2.178 2.181 4.95 3.257 8.335 3.257zM199.628 77.179h115.938c25.6 0 46.248 7.485 61.953 22.46 15.697 14.976 23.549 34.547 23.549 58.691 0 24.156-7.852 43.733-23.549 58.691-15.705 14.988-36.354 22.473-61.953 22.473H199.628V77.179z"/>
</symbol><symbol id="icon-shirts" viewBox="0 0 136.8 145.3">
    
    <title>
        shirts
    </title>
    <g id="&#x421;&#x43B;&#x43E;&#x439;_2" data-name="&#x421;&#x43B;&#x43E;&#x439; 2">
        <g id="&#x421;&#x43B;&#x43E;&#x439;_1-2" data-name="&#x421;&#x43B;&#x43E;&#x439; 1">
            <path class="cls-1" d="M47.82 7.57a8.84 8.84 0 0 0 8.48-6.15 32 32 0 0 1-8.48 1 32.12 32.12 0 0 1-8.48-1 8.89 8.89 0 0 0 8.48 6.15z"/>
            <path class="cls-1" d="M92.72 12.08a2.12 2.12 0 0 0-1.08-1.19L74.5 3a84.85 84.85 0 0 0-11.14-3h-.4a2 2 0 0 0-2 1.59 13.5 13.5 0 0 1-13.14 10.54A13.52 13.52 0 0 1 34.64 1.59a2 2 0 0 0-2-1.59h-.4a86 86 0 0 0-11.09 3L4 10.89a2.12 2.12 0 0 0-1.08 1.19A2.07 2.07 0 0 0 3 13.66l7.46 14.71a2 2 0 0 0 1.81 1.11 1.83 1.83 0 0 0 .57-.09l8.28-2.47v49.36a2.05 2.05 0 0 0 2 2h49.33a2 2 0 0 0 2-2V27l8.28 2.44a2.12 2.12 0 0 0 .57.09 2 2 0 0 0 1.81-1.11l7.46-14.71a2.07 2.07 0 0 0 .11-1.59z"/>
            <path class="cls-1" d="M42.8 135.38c-12.53 0-23.41-2.13-30.22-6-2.35 1.13-9.72 4.82-11.68 7.14a5.47 5.47 0 0 0-.9 2.35 7.66 7.66 0 0 0 .54 1.87c16.58 7 25.85 4.34 35.12 2.49 9.84-1.92 18.79-8.23 18.79-8.23a1.83 1.83 0 0 1 .23-.26c-4.05.4-8.05.62-11.88.62z"/>
            <path class="cls-1" d="M43.06 97.88h-.11c-.14-1.56-2-2.81-4.37-2.81s-4.34 1.34-4.34 2.93v.09c-22 2.3-21.15 17.72-20.69 26a26 26 0 0 1-.11 3.83c9 5.13 25.57 7 43.65 4.85a71.86 71.86 0 0 1 7.94-4.54s.28-8.56 0-11.4c-1.47-14.85-14.2-18.28-22-19z"/>
            <path class="cls-1" d="M101.08 101.2c-1.33 0-2.1.71-2.1 2.35v6.29c0 1.62.77 2.35 2.1 2.35s2.13-.74 2.13-2.35v-6.29c0-1.64-.79-2.35-2.13-2.35z"/>
            <path class="cls-1" d="M119.85 110.07c0 3.88-2.69 5.36-6 5.36-4.05 0-5.61-2.49-5.61-4.48 0-1.08.43-1.36 1.73-1.36 1.53 0 1.9.34 1.9 1.25 0 1.11 1 1.36 2.13 1.36 1.59 0 2.18-.6 2.18-2.13v-.45c0-1.59-1-1.9-2.3-1.9-.79 0-1-.71-1-1.42s.26-1.42 1-1.42 1.84-.11 1.84-2c0-1.36-.77-1.7-1.73-1.7-1.16 0-1.76.28-1.76 1.22s-.37 1.33-1.73 1.33c-1.7 0-1.93-.34-1.93-1.47 0-1.87 1.33-4.25 5.41-4.25 3 0 5.27 1.08 5.27 4.28 0 1.73-.62 3.34-1.81 3.88a3.45 3.45 0 0 1 2.41 3.49v.45zm-12.93-.23c0 4.05-2.58 5.58-5.84 5.58s-5.81-1.53-5.81-5.58v-6.29c0-4.08 2.55-5.58 5.81-5.58s5.84 1.5 5.84 5.58zM136 92.72c-6.8-3.06-10.57-12.7-8.84-23.22a1.42 1.42 0 0 0-.31-1.11 1.3 1.3 0 0 0-1-.48h-5.56a1.38 1.38 0 0 0-1.36 1.22 11.56 11.56 0 0 1-23 0 1.38 1.38 0 0 0-1.36-1.22H89a1.3 1.3 0 0 0-1 .48 1.42 1.42 0 0 0-.31 1.11c1.73 10.52-2 20.15-8.84 23.22A1.38 1.38 0 0 0 78 94v49.27a1.34 1.34 0 0 0 1.36 1.36h56.07a1.34 1.34 0 0 0 1.33-1.36V94a1.38 1.38 0 0 0-.79-1.25z"/>
            <path class="cls-2" d="M59.64 34.81a8.07 8.07 0 1 0-8.16-8.05 8.13 8.13 0 0 0 8.16 8.05z"/>
            <path class="cls-1" d="M61.8 27.33a2.76 2.76 0 1 1-5.5 0V26a.76.76 0 0 1 .77-.77h4a.76.76 0 0 1 .74.77zm1-3.63h-7.47a.76.76 0 0 0-.74.77v2.66A4.79 4.79 0 0 0 59 31.95a4.79 4.79 0 0 0 4.45-4.82v-2.67a.74.74 0 0 0-.74-.77z"/>
            <path class="cls-1" d="M65.74 27.13a7.34 7.34 0 0 1-1.87 4.82 6.83 6.83 0 0 1-2.1 1.62 6.08 6.08 0 0 1-2.72.62 6.16 6.16 0 0 1-2.72-.62 6.83 6.83 0 0 1-2.1-1.62 7.34 7.34 0 0 1-1.87-4.82v-2.67a3 3 0 0 1 3-3h7.43a3 3 0 0 1 3 3zM60.07 17c-16.19.34-8.73 8-8.11 17.21.54 2.58 10.12 7 13 .43C67 30.1 77.19 20.47 60.07 17z"/>
        </g>
    </g>
</symbol><symbol id="icon-souvenirs" viewBox="0 0 46.06 28.93">
    
    <title>
        souvenirs
    </title>
    <g id="&#x421;&#x43B;&#x43E;&#x439;_2" data-name="&#x421;&#x43B;&#x43E;&#x439; 2">
        <g id="&#x421;&#x43B;&#x43E;&#x439;_1-2" data-name="&#x421;&#x43B;&#x43E;&#x439; 1">
            <path class="cls-1" d="M30.18 3.79a1.71 1.71 0 0 1 2.38-.57.86.86 0 0 1 .2.14c.06 0 0 .06 0 .06a2.16 2.16 0 0 0-.6.09 4 4 0 0 0-.62.23 2.71 2.71 0 0 0-1.19 1.79c0 .09 0 .2-.14.09a1.58 1.58 0 0 1 0-1.81zm1.67 2.61c-.06 0-.06-.06-.06-.09a1.5 1.5 0 0 1 .51-1.22l.2-.09a1.54 1.54 0 0 1 .77.09s.06 0 0 .06a1.12 1.12 0 0 1-.17.43 1.69 1.69 0 0 1-1.28.82zM37 8.63a18.16 18.16 0 0 1 1.76 4.17.3.3 0 0 1 0 .23c-.31.94-.31 1.73-.45 1.81s-.88-.31-1.93-.43a.43.43 0 0 1-.26-.11 12.35 12.35 0 0 1-2.61-2.89c-.06-.11 0-.14.06-.17a5.79 5.79 0 0 0 2.15-2.07 6.19 6.19 0 0 0 .6-1.33s0-.11.11 0a7.8 7.8 0 0 1 .54.79zm8.31 3.54a3.87 3.87 0 0 0-5.16-1.11l-.09.09c-.06 0-.17.11-.2 0a18.2 18.2 0 0 0-1.53-3.29 13 13 0 0 0-1.76-2.35 5.75 5.75 0 0 0-2.75-4.28 5.81 5.81 0 0 0-7.89 8.17.34.34 0 0 1 .06.43c-1.3 2.1-4.08 6.69-4.56 7.48-.09.14-.26.06-.26.06l-1.39-.85a1.13 1.13 0 0 0-1.59.4 1.15 1.15 0 0 0 .37 1.59l1.39.85a.16.16 0 0 1 .09.26c-.11.2-.4.65-.54.88s-.2 0-.2 0l-1.42-.88a1.21 1.21 0 0 0-1.62.4 1.17 1.17 0 0 0 .4 1.59l1.42.88a.16.16 0 0 1 .06.23c-.14.26-.4.68-.54.91a.14.14 0 0 1-.2 0l-1.4-.85a1.16 1.16 0 0 0-1.19 2s.94.57 1.42.88c.17.09.06.2.06.2-.65 1.11.23 1.67 1.33 2.35a3.82 3.82 0 0 0 1.73.74 1.12 1.12 0 0 0 1-.65s7.05-11.76 9.75-16.18a.27.27 0 0 1 .28-.17 4.41 4.41 0 0 0 1.36-.09c.06 0 .17 0 .23.06a12.78 12.78 0 0 0 2.18 2.72c.11.11 0 .17 0 .23A3.86 3.86 0 0 0 32.87 20a4.37 4.37 0 0 0 2.21 1.93c1.7.77 7.54 1.56 8.33 1s2.61-6.07 2.64-8a4.44 4.44 0 0 0-.79-2.81z"/>
            <path class="cls-1" d="M5 2.68l.34 2.75-3.12.4A4.68 4.68 0 0 1 3 4.16a4.64 4.64 0 0 1 2-1.48zm7.82-1.13a4.82 4.82 0 0 1 3.49 1 5.23 5.23 0 0 1 1.22 1.42L7.08 5.2l-.37-2.86a4.72 4.72 0 0 1 2.92 1 4.77 4.77 0 0 1 3.15-1.79zM6.2 12.63l-2.35-1.81A4.79 4.79 0 0 1 2.06 7.7l3.46-.45zm5 3.6a.81.81 0 0 1-.62-.17c-.57-.45-1.47-1.13-2.44-1.9L7.31 7 18 5.69a4.71 4.71 0 0 1-1 3.46c-.09.11-3.88 5-5.3 6.77a.88.88 0 0 1-.54.31zm6-14.91A6.32 6.32 0 0 0 12.58 0 6.16 6.16 0 0 0 9.4 1.41a6.29 6.29 0 0 0-7.6 1.81C-1.65 7.5.47 12.18 3 14.56c.11.11 5.92 4.62 8.08 6.26a1 1 0 0 0 1.39-.17c1.67-2.13 6.21-7.94 6.29-8.05 1.47-2.07 3.29-7.54-1.59-11.28z"/>
        </g>
    </g>
</symbol><symbol id="icon-star" viewBox="0 0 25.7 22.23">
    
    <title>
        star
    </title>
    <g id="&#x421;&#x43B;&#x43E;&#x439;_2" data-name="&#x421;&#x43B;&#x43E;&#x439; 2">
        <path class="cls-1" d="M12.85.85l2.78 7.91 9.13-.03-7.37 4.88 2.8 7.91-7.34-4.91-7.37 4.91 2.84-7.91L.95 8.73l9.1.03 2.8-7.91z" id="&#x421;&#x43B;&#x43E;&#x439;_1-2" data-name="&#x421;&#x43B;&#x43E;&#x439; 1"/>
    </g>
</symbol><symbol id="icon-tw" viewBox="0 0 21.26 17.01">
    
    <title>
        tw
    </title>
    <g id="&#x421;&#x43B;&#x43E;&#x439;_2" data-name="&#x421;&#x43B;&#x43E;&#x439; 2">
        <path class="cls-1" d="M21.26 2a9 9 0 0 1-2.49.68A4.35 4.35 0 0 0 20.69.31a8.66 8.66 0 0 1-2.78 1A4.45 4.45 0 0 0 14.71 0a4.33 4.33 0 0 0-4.34 4.31 3.73 3.73 0 0 0 .11 1 12.53 12.53 0 0 1-9-4.48 4.21 4.21 0 0 0-.57 2.12 4.26 4.26 0 0 0 1.92 3.57A4.7 4.7 0 0 1 .85 6a4.13 4.13 0 0 0 .31 1.6 4.44 4.44 0 0 0 3.2 2.66 5.22 5.22 0 0 1-1.16.14 4 4 0 0 1-.82-.09 4.38 4.38 0 0 0 4.08 3A8.8 8.8 0 0 1 1 15.14a6.33 6.33 0 0 1-1-.06A12.48 12.48 0 0 0 6.69 17a12.1 12.1 0 0 0 12.1-9.6 11.91 11.91 0 0 0 .31-2.61 3.43 3.43 0 0 0 0-.54A8.2 8.2 0 0 0 21.26 2z" id="&#x421;&#x43B;&#x43E;&#x439;_1-2" data-name="&#x421;&#x43B;&#x43E;&#x439; 1"/>
    </g>
</symbol><symbol id="icon-user" viewBox="0 0 19.6 22.92">
    
    <title>
        user
    </title>
    <g id="&#x421;&#x43B;&#x43E;&#x439;_2" data-name="&#x421;&#x43B;&#x43E;&#x439; 2">
        <g id="&#x421;&#x43B;&#x43E;&#x439;_1-2" data-name="&#x421;&#x43B;&#x43E;&#x439; 1">
            <path class="cls-1" d="M13.26 8.81a4.38 4.38 0 0 1-2.55 3.37 2.44 2.44 0 0 1-1.84 0 4.39 4.39 0 0 1-2.58-3.37c-.17 0-.43-.28-.71-1.33-.37-1.42 0-1.64.37-1.59a2.27 2.27 0 0 1-.14-.6c-.6-3.66 1.11-3.8 1.11-3.8a2.86 2.86 0 0 1 1-1A3.4 3.4 0 0 1 10.06 0a2 2 0 0 1 .82.17 3.65 3.65 0 0 1 .94.48 4.39 4.39 0 0 1 .94.85 4.41 4.41 0 0 1 1 1.9 4.18 4.18 0 0 1 0 1.87 4.53 4.53 0 0 1-.14.6c.34 0 .74.17.37 1.59-.28 1-.54 1.33-.74 1.33z"/>
            <path class="cls-1" d="M1.86 14.93a14.9 14.9 0 0 0 4.45-2l1.56 4.93.31.94.26.79.82-2.32c-2-2.83.4-2.81.54-2.78s2.55-.06.54 2.78l.82 2.32.26-.79.31-.94 1.56-4.93a14.9 14.9 0 0 0 4.45 2c1.84.45 1.93 2.58 1.84 3.63 0 0-.11 3.6-.2 4.22H.22c-.11-.62-.2-4.22-.2-4.22-.09-1 0-3.17 1.84-3.63z"/>
            <path class="cls-2" d="M9.23 17.2c-.48-.54-1-1.62-.77-2.15a1.32 1.32 0 0 1 1.33-.62c1.19 0 2.1.82.54 2.78l.82 2.32-1.35 3.39-1.36-3.4z"/>
        </g>
    </g>
</symbol><symbol id="icon-vk" viewBox="0 0 23.39 13.69">
    
    <title>
        vk
    </title>
    <g id="&#x421;&#x43B;&#x43E;&#x439;_2" data-name="&#x421;&#x43B;&#x43E;&#x439; 2">
        <path class="cls-1" d="M23.21 1a6.81 6.81 0 0 0-2.52-.19 16 16 0 0 0-2.52.11 14.79 14.79 0 0 0-1.5 2.75c-.79 1.53-1.79 3-2.41 3-.82 0-.62-2.52-.57-4.37 0-1.22-.17-1.62-.34-1.73A7.92 7.92 0 0 0 11.73 0s-3.51-.28-4 1.25c.68.09 1.81-.11 1.39 4.59 0 .23-.54 2.18-2.18-.45C6.49 4.75 4.93.84 4.39.81 2.55.76.76.7.14 1s.79 3 3.09 6.66c1.9 3 3.91 5.27 7.34 5.87a8.88 8.88 0 0 0 2.89-.11c.34-.2-.09-2.75 1.13-3 .57-.09 2.64 2.66 3.46 3a9.07 9.07 0 0 0 2.64.23c1.16-.06 2.49.09 2.64-.71.28-1.76-3.57-4.05-3.69-5.16-.08-.78 1.42-2.2 2.18-3.28.94-1.33 2-2.95 1.39-3.46z" id="&#x421;&#x43B;&#x43E;&#x439;_1-2" data-name="&#x421;&#x43B;&#x43E;&#x439; 1"/>
    </g>
</symbol><symbol id="icon-watched" viewBox="0 0 52.39 27.03">
    
    <title>
        watched
    </title>
    <g id="&#x421;&#x43B;&#x43E;&#x439;_2" data-name="&#x421;&#x43B;&#x43E;&#x439; 2">
        <g id="&#x421;&#x43B;&#x43E;&#x439;_1-2" data-name="&#x421;&#x43B;&#x43E;&#x439; 1">
            <path class="cls-1" d="M30 5.8c-1.87.11-2 1.53-2.66 2.75l-1.76 3.63c-.91 1.9-.68 2.35-.68 4.68 0 1.76-.09 3.66 0 5.39a13.66 13.66 0 0 1 9-.51 11.3 11.3 0 0 0 1.16.4v-6c1.5 0 1.33-1.39 1.33-2.24V6.68c0-1.19.06-2.49 0-3.69L31.86 3C29.91 3 30 3.53 30 5.8z"/>
            <path class="cls-1" d="M42.21 16.14v6c.54-.11 1.16-.45 2.35-.68a13.34 13.34 0 0 1 6.69.37 10.5 10.5 0 0 0 1.11.4c0-1.19.06-6.66 0-8a5.27 5.27 0 0 0-.68-2c-.6-1.22-1.13-2.44-1.76-3.63-.68-1.41-.92-2.75-2.67-2.8.03-1.8.32-2.8-1.73-2.8H40.9v10.83c0 1.28 0 2.24 1.33 2.3z"/>
            <path class="cls-1" d="M25.74 25.5c0-.51.17-.6.57-.79a12.53 12.53 0 0 1 6.07-.37c.57.09 1.79.4 1.93.79.48 1.53-7 1.81-8.56.37zm-.79-2.61c0 2.78-.34 3 .94 3.57 2 .77 7.46.85 9-.4.31-.26.23-.51.23-.94v-2.35a12.41 12.41 0 0 0-10.15.11z"/>
            <path class="cls-1" d="M51.56 25.5c-1.22 1.28-7.43 1.3-8.56 0-.6-1.33 5.58-1.84 8-.79.4.17.65.26.6.79zm-9.33-2.72c-.06.74 0 1.53 0 2.27 0 1 .09 1 .88 1.39 1.93.79 7.29.91 9-.34.31-.26.26-.4.26-.91v-2.27a12.35 12.35 0 0 0-10.12-.14z"/>
            <path class="cls-1" d="M38.44 3c-1.25.28-.91 1.39-.94 2.89v7.6c0 .57-.11 1.33.2 1.76a1.11 1.11 0 0 0 1.33.45c1-.31.77-1.87.77-3V5.29a3.71 3.71 0 0 0-.11-1.7A1.11 1.11 0 0 0 38.44 3z"/>
            <path class="cls-1" d="M41 2.57h5C46-.33 46.46 0 43.54 0S41-.33 41 2.57z"/>
            <path class="cls-1" d="M31.29 2.57h5.07C36.11-.21 37.11 0 33.87 0c-3 0-2.55-.37-2.58 2.55z"/>
            <path class="cls-2" d="M16.53 4.58a33.18 33.18 0 0 1-3.06 2.55 6.84 6.84 0 0 1 2.18 2.24 8.09 8.09 0 0 1 1 4.2 8.18 8.18 0 0 1-1 3.91 7.73 7.73 0 0 1-2.15 2.32 26.27 26.27 0 0 1 2.3 2.83l-1.36 1C11 18.78 6.72 16.29 2.61 13.88c0 0-2.38-1.39-2.61-1.53l1.53-.65A68.15 68.15 0 0 0 8.9 8.09a31.92 31.92 0 0 0 6.43-4.73zm-1.65 8.62v.09l.62.62a1.38 1.38 0 0 0 0-.34c0-.34 0-.68-.06-1l-.62.62zm-.4 4a2.74 2.74 0 0 1-1.79-1.33 4.83 4.83 0 0 1-.69-2.76 4.86 4.86 0 0 1 1-2.58 2.53 2.53 0 0 1 1.45-1 6.14 6.14 0 0 0-2-1.73c-.88.62-1.81 1.19-2.75 1.73a59 59 0 0 1-6 3 42.6 42.6 0 0 1 9 6.41 7.12 7.12 0 0 0 1.79-1.79zm-.43-3.69v-.34l.06-.37 1.25-1.28a8.12 8.12 0 0 0-.43-1.16 1.53 1.53 0 0 0-1.25.71 4.12 4.12 0 0 0-.77 2.1 3.82 3.82 0 0 0 .54 2.24 1.74 1.74 0 0 0 1.28 1 .39.39 0 0 0 .27-.21 8.75 8.75 0 0 0 .4-1.22l-1.33-1.3z"/>
            <path class="cls-1" d="M15.59 14.39a1 1 0 0 0 .94-1.11 1 1 0 0 0-.94-1.11 1 1 0 0 0-.94 1.11 1 1 0 0 0 .94 1.11z"/>
            <path class="cls-1" d="M14.71 13.93a.7.7 0 1 0-.77-.68.73.73 0 0 0 .77.68z"/>
        </g>
    </g>
</symbol><symbol id="icon-&#x420;&#x435;&#x441;&#x443;&#x440;&#x441; 1" viewBox="0 0 100.83 131.22">
    
    <title>
        &#x420;&#x435;&#x441;&#x443;&#x440;&#x441; 1
    </title>
    <g id="&#x421;&#x43B;&#x43E;&#x439;_2" data-name="&#x421;&#x43B;&#x43E;&#x439; 2">
        <g id="&#x421;&#x43B;&#x43E;&#x439;_1-2" data-name="&#x421;&#x43B;&#x43E;&#x439; 1">
            <path class="cls-1" d="M81.38 61.65H49.8c-1.76 0-3.43-.65-3.43-2.41a2.91 2.91 0 0 1 3.15-2.83h31.61a2.91 2.91 0 0 1 3.15 2.83c0 1.76-1.36 2.41-3.12 2.41zm-17.57-16L56 45.61l4.14-6.21c3.69 6.38-.06-.11 3.63 6.26zM68 41.36L71.23 36l6.69 9.75-7.31-.09zM50 28.77c8.2 2.23 14.52-3.88 12.25-12.19h16.87V37l-5.25-6.5a3.16 3.16 0 0 0-5.47 0L64.63 37l-1.79-3.1a3.16 3.16 0 0 0-5.47 0L50 44.42zm0-12.22l7.37-.06c3.4 4.39-3 11-7.37 7.6zM92.49 0H36.62a3.16 3.16 0 0 0-3.15 3.15v7.09H30.3a3.16 3.16 0 0 0 0 6.32h3.17v8.67H30.3a3.16 3.16 0 0 0 0 6.32h3.17v8.67H30.3a3.16 3.16 0 0 0 0 6.32h3.17v8.67H30.3a3.16 3.16 0 0 0 0 6.32h3.17v7.07a3.16 3.16 0 0 0 3.15 3.17h55.87a3.17 3.17 0 0 0 3.17-3.17V3.15A3.16 3.16 0 0 0 92.49 0z"/>
            <path class="cls-1" d="M44.53 82.26H6.46a2.15 2.15 0 0 0-2.15 2.13v4.85H2.15a2.14 2.14 0 1 0 0 4.28h2.16v5.92H2.15a2.15 2.15 0 0 0 0 4.31h2.16v5.9H2.15a2.15 2.15 0 0 0 0 4.31h2.16v5.92H2.15a2.14 2.14 0 1 0 0 4.28h2.16V129a2.15 2.15 0 0 0 2.15 2.15h38.07a2.13 2.13 0 0 0 2.13-2.15V84.39a2.12 2.12 0 0 0-2.13-2.13zm-19.9 7.91h15.06v8.59H24.63z"/>
            <path class="cls-1" d="M99 90H66.93a1.83 1.83 0 0 0-1.81 1.81v4.09H63.3a1.81 1.81 0 1 0 0 3.63h1.81v5H63.3a1.81 1.81 0 0 0 0 3.63h1.81v5H63.3a1.8 1.8 0 1 0 0 3.6h1.81v5H63.3a1.83 1.83 0 0 0-1.81 1.81 1.81 1.81 0 0 0 1.81 1.81h1.81v4.08a1.8 1.8 0 0 0 1.81 1.79H99a1.8 1.8 0 0 0 1.81-1.79V91.84A1.83 1.83 0 0 0 99 90zm-9.81 7.63a4.82 4.82 0 1 1-4.82 4.82 4.81 4.81 0 0 1 4.82-4.82z"/>
            <path class="cls-2" d="M24.63 90.17h15.05v8.59H24.63z"/>
            <path class="cls-3" d="M89.21 107.29a4.82 4.82 0 1 0-4.82-4.82 4.83 4.83 0 0 0 4.82 4.82z"/>
        </g>
    </g>
</symbol></svg>